%TF.GenerationSoftware,KiCad,Pcbnew,10.0.6*%
%TF.CreationDate,2026-10-07T20:56:50-07:00*%
%TF.ProjectId,finished,66696e69-7368-4656-942e-6b696361645f,rev?*%
%TF.SameCoordinates,Original*%
%TF.FileFunction,Legend,Top*%
%TF.FilePolarity,Positive*%
%FSLAX46Y46*%
G04 Gerber Fmt 4.6, Leading zero omitted, Abs format (unit mm)*
G04 Created by KiCad (PCBNEW 10.0.6) date 2026-10-07 20:56:50*
%MOMM*%
%LPD*%
G01*
G04 APERTURE LIST*
G04 Aperture macros list*
%AMRoundRect*
0 Rectangle with rounded corners*
0 $1 Rounding radius*
0 $2 $3 $4 $5 $6 $7 $8 $9 X,Y pos of 4 corners*
0 Add a 4 corners polygon primitive as box body*
4,1,4,$2,$3,$4,$5,$6,$7,$8,$9,$2,$3,0*
0 Add four circle primitives for the rounded corners*
1,1,$1+$1,$2,$3*
1,1,$1+$1,$4,$5*
1,1,$1+$1,$6,$7*
1,1,$1+$1,$8,$9*
0 Add four rect primitives between the rounded corners*
20,1,$1+$1,$2,$3,$4,$5,0*
20,1,$1+$1,$4,$5,$6,$7,0*
20,1,$1+$1,$6,$7,$8,$9,0*
20,1,$1+$1,$8,$9,$2,$3,0*%
%AMFreePoly0*
4,1,37,0.603843,0.796157,0.639018,0.796157,0.711114,0.766294,0.766294,0.711114,0.796157,0.639018,0.796157,0.603843,0.800000,0.600000,0.800000,-0.600000,0.796157,-0.603843,0.796157,-0.639018,0.766294,-0.711114,0.711114,-0.766294,0.639018,-0.796157,0.603843,-0.796157,0.600000,-0.800000,0.000000,-0.800000,0.000000,-0.796148,-0.078414,-0.796148,-0.232228,-0.765552,-0.377117,-0.705537,
-0.507515,-0.618408,-0.618408,-0.507515,-0.705537,-0.377117,-0.765552,-0.232228,-0.796148,-0.078414,-0.796148,0.078414,-0.765552,0.232228,-0.705537,0.377117,-0.618408,0.507515,-0.507515,0.618408,-0.377117,0.705537,-0.232228,0.765552,-0.078414,0.796148,0.000000,0.796148,0.000000,0.800000,0.600000,0.800000,0.603843,0.796157,0.603843,0.796157,$1*%
%AMFreePoly1*
4,1,37,0.000000,0.796148,0.078414,0.796148,0.232228,0.765552,0.377117,0.705537,0.507515,0.618408,0.618408,0.507515,0.705537,0.377117,0.765552,0.232228,0.796148,0.078414,0.796148,-0.078414,0.765552,-0.232228,0.705537,-0.377117,0.618408,-0.507515,0.507515,-0.618408,0.377117,-0.705537,0.232228,-0.765552,0.078414,-0.796148,0.000000,-0.796148,0.000000,-0.800000,-0.600000,-0.800000,
-0.603843,-0.796157,-0.639018,-0.796157,-0.711114,-0.766294,-0.766294,-0.711114,-0.796157,-0.639018,-0.796157,-0.603843,-0.800000,-0.600000,-0.800000,0.600000,-0.796157,0.603843,-0.796157,0.639018,-0.766294,0.711114,-0.711114,0.766294,-0.639018,0.796157,-0.603843,0.796157,-0.600000,0.800000,0.000000,0.800000,0.000000,0.796148,0.000000,0.796148,$1*%
G04 Aperture macros list end*
%ADD10C,0.150000*%
%ADD11C,0.120000*%
%ADD12C,3.200000*%
%ADD13C,1.700000*%
%ADD14C,4.000000*%
%ADD15C,2.200000*%
%ADD16C,3.050000*%
%ADD17RoundRect,0.250000X0.550000X0.550000X-0.550000X0.550000X-0.550000X-0.550000X0.550000X-0.550000X0*%
%ADD18C,1.600000*%
%ADD19RoundRect,0.200000X0.600000X-0.600000X0.600000X0.600000X-0.600000X0.600000X-0.600000X-0.600000X0*%
%ADD20FreePoly0,90.000000*%
%ADD21FreePoly1,90.000000*%
%ADD22C,2.000000*%
G04 APERTURE END LIST*
D10*
X58477381Y-115956009D02*
X58810714Y-115956009D01*
X58953571Y-116479819D02*
X58477381Y-116479819D01*
X58477381Y-116479819D02*
X58477381Y-115479819D01*
X58477381Y-115479819D02*
X58953571Y-115479819D01*
X59334524Y-116432200D02*
X59429762Y-116479819D01*
X59429762Y-116479819D02*
X59620238Y-116479819D01*
X59620238Y-116479819D02*
X59715476Y-116432200D01*
X59715476Y-116432200D02*
X59763095Y-116336961D01*
X59763095Y-116336961D02*
X59763095Y-116289342D01*
X59763095Y-116289342D02*
X59715476Y-116194104D01*
X59715476Y-116194104D02*
X59620238Y-116146485D01*
X59620238Y-116146485D02*
X59477381Y-116146485D01*
X59477381Y-116146485D02*
X59382143Y-116098866D01*
X59382143Y-116098866D02*
X59334524Y-116003628D01*
X59334524Y-116003628D02*
X59334524Y-115956009D01*
X59334524Y-115956009D02*
X59382143Y-115860771D01*
X59382143Y-115860771D02*
X59477381Y-115813152D01*
X59477381Y-115813152D02*
X59620238Y-115813152D01*
X59620238Y-115813152D02*
X59715476Y-115860771D01*
X60620238Y-116432200D02*
X60525000Y-116479819D01*
X60525000Y-116479819D02*
X60334524Y-116479819D01*
X60334524Y-116479819D02*
X60239286Y-116432200D01*
X60239286Y-116432200D02*
X60191667Y-116384580D01*
X60191667Y-116384580D02*
X60144048Y-116289342D01*
X60144048Y-116289342D02*
X60144048Y-116003628D01*
X60144048Y-116003628D02*
X60191667Y-115908390D01*
X60191667Y-115908390D02*
X60239286Y-115860771D01*
X60239286Y-115860771D02*
X60334524Y-115813152D01*
X60334524Y-115813152D02*
X60525000Y-115813152D01*
X60525000Y-115813152D02*
X60620238Y-115860771D01*
X60858630Y-206679819D02*
X60382440Y-206679819D01*
X60382440Y-206679819D02*
X60382440Y-205679819D01*
X61763392Y-206584580D02*
X61715773Y-206632200D01*
X61715773Y-206632200D02*
X61572916Y-206679819D01*
X61572916Y-206679819D02*
X61477678Y-206679819D01*
X61477678Y-206679819D02*
X61334821Y-206632200D01*
X61334821Y-206632200D02*
X61239583Y-206536961D01*
X61239583Y-206536961D02*
X61191964Y-206441723D01*
X61191964Y-206441723D02*
X61144345Y-206251247D01*
X61144345Y-206251247D02*
X61144345Y-206108390D01*
X61144345Y-206108390D02*
X61191964Y-205917914D01*
X61191964Y-205917914D02*
X61239583Y-205822676D01*
X61239583Y-205822676D02*
X61334821Y-205727438D01*
X61334821Y-205727438D02*
X61477678Y-205679819D01*
X61477678Y-205679819D02*
X61572916Y-205679819D01*
X61572916Y-205679819D02*
X61715773Y-205727438D01*
X61715773Y-205727438D02*
X61763392Y-205775057D01*
X62049107Y-206013152D02*
X62430059Y-206013152D01*
X62191964Y-205679819D02*
X62191964Y-206536961D01*
X62191964Y-206536961D02*
X62239583Y-206632200D01*
X62239583Y-206632200D02*
X62334821Y-206679819D01*
X62334821Y-206679819D02*
X62430059Y-206679819D01*
X62763393Y-206679819D02*
X62763393Y-206013152D01*
X62763393Y-206203628D02*
X62811012Y-206108390D01*
X62811012Y-206108390D02*
X62858631Y-206060771D01*
X62858631Y-206060771D02*
X62953869Y-206013152D01*
X62953869Y-206013152D02*
X63049107Y-206013152D01*
X63525298Y-206679819D02*
X63430060Y-206632200D01*
X63430060Y-206632200D02*
X63382441Y-206536961D01*
X63382441Y-206536961D02*
X63382441Y-205679819D01*
X63097023Y-134529819D02*
X63668451Y-134529819D01*
X63382737Y-135529819D02*
X63382737Y-134529819D01*
X64430356Y-135529819D02*
X64430356Y-135006009D01*
X64430356Y-135006009D02*
X64382737Y-134910771D01*
X64382737Y-134910771D02*
X64287499Y-134863152D01*
X64287499Y-134863152D02*
X64097023Y-134863152D01*
X64097023Y-134863152D02*
X64001785Y-134910771D01*
X64430356Y-135482200D02*
X64335118Y-135529819D01*
X64335118Y-135529819D02*
X64097023Y-135529819D01*
X64097023Y-135529819D02*
X64001785Y-135482200D01*
X64001785Y-135482200D02*
X63954166Y-135386961D01*
X63954166Y-135386961D02*
X63954166Y-135291723D01*
X63954166Y-135291723D02*
X64001785Y-135196485D01*
X64001785Y-135196485D02*
X64097023Y-135148866D01*
X64097023Y-135148866D02*
X64335118Y-135148866D01*
X64335118Y-135148866D02*
X64430356Y-135101247D01*
X64906547Y-135529819D02*
X64906547Y-134529819D01*
X64906547Y-134910771D02*
X65001785Y-134863152D01*
X65001785Y-134863152D02*
X65192261Y-134863152D01*
X65192261Y-134863152D02*
X65287499Y-134910771D01*
X65287499Y-134910771D02*
X65335118Y-134958390D01*
X65335118Y-134958390D02*
X65382737Y-135053628D01*
X65382737Y-135053628D02*
X65382737Y-135339342D01*
X65382737Y-135339342D02*
X65335118Y-135434580D01*
X65335118Y-135434580D02*
X65287499Y-135482200D01*
X65287499Y-135482200D02*
X65192261Y-135529819D01*
X65192261Y-135529819D02*
X65001785Y-135529819D01*
X65001785Y-135529819D02*
X64906547Y-135482200D01*
X65668749Y-154484580D02*
X65621130Y-154532200D01*
X65621130Y-154532200D02*
X65478273Y-154579819D01*
X65478273Y-154579819D02*
X65383035Y-154579819D01*
X65383035Y-154579819D02*
X65240178Y-154532200D01*
X65240178Y-154532200D02*
X65144940Y-154436961D01*
X65144940Y-154436961D02*
X65097321Y-154341723D01*
X65097321Y-154341723D02*
X65049702Y-154151247D01*
X65049702Y-154151247D02*
X65049702Y-154008390D01*
X65049702Y-154008390D02*
X65097321Y-153817914D01*
X65097321Y-153817914D02*
X65144940Y-153722676D01*
X65144940Y-153722676D02*
X65240178Y-153627438D01*
X65240178Y-153627438D02*
X65383035Y-153579819D01*
X65383035Y-153579819D02*
X65478273Y-153579819D01*
X65478273Y-153579819D02*
X65621130Y-153627438D01*
X65621130Y-153627438D02*
X65668749Y-153675057D01*
X66525892Y-154579819D02*
X66525892Y-154056009D01*
X66525892Y-154056009D02*
X66478273Y-153960771D01*
X66478273Y-153960771D02*
X66383035Y-153913152D01*
X66383035Y-153913152D02*
X66192559Y-153913152D01*
X66192559Y-153913152D02*
X66097321Y-153960771D01*
X66525892Y-154532200D02*
X66430654Y-154579819D01*
X66430654Y-154579819D02*
X66192559Y-154579819D01*
X66192559Y-154579819D02*
X66097321Y-154532200D01*
X66097321Y-154532200D02*
X66049702Y-154436961D01*
X66049702Y-154436961D02*
X66049702Y-154341723D01*
X66049702Y-154341723D02*
X66097321Y-154246485D01*
X66097321Y-154246485D02*
X66192559Y-154198866D01*
X66192559Y-154198866D02*
X66430654Y-154198866D01*
X66430654Y-154198866D02*
X66525892Y-154151247D01*
X67002083Y-153913152D02*
X67002083Y-154913152D01*
X67002083Y-153960771D02*
X67097321Y-153913152D01*
X67097321Y-153913152D02*
X67287797Y-153913152D01*
X67287797Y-153913152D02*
X67383035Y-153960771D01*
X67383035Y-153960771D02*
X67430654Y-154008390D01*
X67430654Y-154008390D02*
X67478273Y-154103628D01*
X67478273Y-154103628D02*
X67478273Y-154389342D01*
X67478273Y-154389342D02*
X67430654Y-154484580D01*
X67430654Y-154484580D02*
X67383035Y-154532200D01*
X67383035Y-154532200D02*
X67287797Y-154579819D01*
X67287797Y-154579819D02*
X67097321Y-154579819D01*
X67097321Y-154579819D02*
X67002083Y-154532200D01*
X67859226Y-154532200D02*
X67954464Y-154579819D01*
X67954464Y-154579819D02*
X68144940Y-154579819D01*
X68144940Y-154579819D02*
X68240178Y-154532200D01*
X68240178Y-154532200D02*
X68287797Y-154436961D01*
X68287797Y-154436961D02*
X68287797Y-154389342D01*
X68287797Y-154389342D02*
X68240178Y-154294104D01*
X68240178Y-154294104D02*
X68144940Y-154246485D01*
X68144940Y-154246485D02*
X68002083Y-154246485D01*
X68002083Y-154246485D02*
X67906845Y-154198866D01*
X67906845Y-154198866D02*
X67859226Y-154103628D01*
X67859226Y-154103628D02*
X67859226Y-154056009D01*
X67859226Y-154056009D02*
X67906845Y-153960771D01*
X67906845Y-153960771D02*
X68002083Y-153913152D01*
X68002083Y-153913152D02*
X68144940Y-153913152D01*
X68144940Y-153913152D02*
X68240178Y-153960771D01*
X70002678Y-173629819D02*
X69526488Y-173629819D01*
X69526488Y-173629819D02*
X69526488Y-172629819D01*
X70288393Y-173582200D02*
X70431250Y-173629819D01*
X70431250Y-173629819D02*
X70669345Y-173629819D01*
X70669345Y-173629819D02*
X70764583Y-173582200D01*
X70764583Y-173582200D02*
X70812202Y-173534580D01*
X70812202Y-173534580D02*
X70859821Y-173439342D01*
X70859821Y-173439342D02*
X70859821Y-173344104D01*
X70859821Y-173344104D02*
X70812202Y-173248866D01*
X70812202Y-173248866D02*
X70764583Y-173201247D01*
X70764583Y-173201247D02*
X70669345Y-173153628D01*
X70669345Y-173153628D02*
X70478869Y-173106009D01*
X70478869Y-173106009D02*
X70383631Y-173058390D01*
X70383631Y-173058390D02*
X70336012Y-173010771D01*
X70336012Y-173010771D02*
X70288393Y-172915533D01*
X70288393Y-172915533D02*
X70288393Y-172820295D01*
X70288393Y-172820295D02*
X70336012Y-172725057D01*
X70336012Y-172725057D02*
X70383631Y-172677438D01*
X70383631Y-172677438D02*
X70478869Y-172629819D01*
X70478869Y-172629819D02*
X70716964Y-172629819D01*
X70716964Y-172629819D02*
X70859821Y-172677438D01*
X71288393Y-173629819D02*
X71288393Y-172629819D01*
X71716964Y-173629819D02*
X71716964Y-173106009D01*
X71716964Y-173106009D02*
X71669345Y-173010771D01*
X71669345Y-173010771D02*
X71574107Y-172963152D01*
X71574107Y-172963152D02*
X71431250Y-172963152D01*
X71431250Y-172963152D02*
X71336012Y-173010771D01*
X71336012Y-173010771D02*
X71288393Y-173058390D01*
X72193155Y-173629819D02*
X72193155Y-172963152D01*
X72193155Y-172629819D02*
X72145536Y-172677438D01*
X72145536Y-172677438D02*
X72193155Y-172725057D01*
X72193155Y-172725057D02*
X72240774Y-172677438D01*
X72240774Y-172677438D02*
X72193155Y-172629819D01*
X72193155Y-172629819D02*
X72193155Y-172725057D01*
X72526488Y-172963152D02*
X72907440Y-172963152D01*
X72669345Y-173629819D02*
X72669345Y-172772676D01*
X72669345Y-172772676D02*
X72716964Y-172677438D01*
X72716964Y-172677438D02*
X72812202Y-172629819D01*
X72812202Y-172629819D02*
X72907440Y-172629819D01*
X73097917Y-172963152D02*
X73478869Y-172963152D01*
X73240774Y-172629819D02*
X73240774Y-173486961D01*
X73240774Y-173486961D02*
X73288393Y-173582200D01*
X73288393Y-173582200D02*
X73383631Y-173629819D01*
X73383631Y-173629819D02*
X73478869Y-173629819D01*
X78860714Y-116479819D02*
X78289286Y-116479819D01*
X78575000Y-116479819D02*
X78575000Y-115479819D01*
X78575000Y-115479819D02*
X78479762Y-115622676D01*
X78479762Y-115622676D02*
X78384524Y-115717914D01*
X78384524Y-115717914D02*
X78289286Y-115765533D01*
X84766369Y-206679819D02*
X84290179Y-206679819D01*
X84290179Y-206679819D02*
X84290179Y-205679819D01*
X85004465Y-205679819D02*
X85242560Y-206679819D01*
X85242560Y-206679819D02*
X85433036Y-205965533D01*
X85433036Y-205965533D02*
X85623512Y-206679819D01*
X85623512Y-206679819D02*
X85861608Y-205679819D01*
X86242560Y-206679819D02*
X86242560Y-206013152D01*
X86242560Y-205679819D02*
X86194941Y-205727438D01*
X86194941Y-205727438D02*
X86242560Y-205775057D01*
X86242560Y-205775057D02*
X86290179Y-205727438D01*
X86290179Y-205727438D02*
X86242560Y-205679819D01*
X86242560Y-205679819D02*
X86242560Y-205775057D01*
X86718750Y-206013152D02*
X86718750Y-206679819D01*
X86718750Y-206108390D02*
X86766369Y-206060771D01*
X86766369Y-206060771D02*
X86861607Y-206013152D01*
X86861607Y-206013152D02*
X87004464Y-206013152D01*
X87004464Y-206013152D02*
X87099702Y-206060771D01*
X87099702Y-206060771D02*
X87147321Y-206156009D01*
X87147321Y-206156009D02*
X87147321Y-206679819D01*
X88480952Y-135625057D02*
X88385714Y-135577438D01*
X88385714Y-135577438D02*
X88290476Y-135482200D01*
X88290476Y-135482200D02*
X88147619Y-135339342D01*
X88147619Y-135339342D02*
X88052381Y-135291723D01*
X88052381Y-135291723D02*
X87957143Y-135291723D01*
X88004762Y-135529819D02*
X87909524Y-135482200D01*
X87909524Y-135482200D02*
X87814286Y-135386961D01*
X87814286Y-135386961D02*
X87766667Y-135196485D01*
X87766667Y-135196485D02*
X87766667Y-134863152D01*
X87766667Y-134863152D02*
X87814286Y-134672676D01*
X87814286Y-134672676D02*
X87909524Y-134577438D01*
X87909524Y-134577438D02*
X88004762Y-134529819D01*
X88004762Y-134529819D02*
X88195238Y-134529819D01*
X88195238Y-134529819D02*
X88290476Y-134577438D01*
X88290476Y-134577438D02*
X88385714Y-134672676D01*
X88385714Y-134672676D02*
X88433333Y-134863152D01*
X88433333Y-134863152D02*
X88433333Y-135196485D01*
X88433333Y-135196485D02*
X88385714Y-135386961D01*
X88385714Y-135386961D02*
X88290476Y-135482200D01*
X88290476Y-135482200D02*
X88195238Y-135529819D01*
X88195238Y-135529819D02*
X88004762Y-135529819D01*
X92624405Y-154294104D02*
X93100595Y-154294104D01*
X92529167Y-154579819D02*
X92862500Y-153579819D01*
X92862500Y-153579819D02*
X93195833Y-154579819D01*
X97339286Y-115575057D02*
X97386905Y-115527438D01*
X97386905Y-115527438D02*
X97482143Y-115479819D01*
X97482143Y-115479819D02*
X97720238Y-115479819D01*
X97720238Y-115479819D02*
X97815476Y-115527438D01*
X97815476Y-115527438D02*
X97863095Y-115575057D01*
X97863095Y-115575057D02*
X97910714Y-115670295D01*
X97910714Y-115670295D02*
X97910714Y-115765533D01*
X97910714Y-115765533D02*
X97863095Y-115908390D01*
X97863095Y-115908390D02*
X97291667Y-116479819D01*
X97291667Y-116479819D02*
X97910714Y-116479819D01*
X102054167Y-172629819D02*
X102720833Y-172629819D01*
X102720833Y-172629819D02*
X102054167Y-173629819D01*
X102054167Y-173629819D02*
X102720833Y-173629819D01*
X106721429Y-134529819D02*
X106959524Y-135529819D01*
X106959524Y-135529819D02*
X107150000Y-134815533D01*
X107150000Y-134815533D02*
X107340476Y-135529819D01*
X107340476Y-135529819D02*
X107578572Y-134529819D01*
X108864582Y-206679819D02*
X108388392Y-206679819D01*
X108388392Y-206679819D02*
X108388392Y-205679819D01*
X109150297Y-206394104D02*
X109626487Y-206394104D01*
X109055059Y-206679819D02*
X109388392Y-205679819D01*
X109388392Y-205679819D02*
X109721725Y-206679819D01*
X110197916Y-206679819D02*
X110102678Y-206632200D01*
X110102678Y-206632200D02*
X110055059Y-206536961D01*
X110055059Y-206536961D02*
X110055059Y-205679819D01*
X110436012Y-206013152D02*
X110816964Y-206013152D01*
X110578869Y-205679819D02*
X110578869Y-206536961D01*
X110578869Y-206536961D02*
X110626488Y-206632200D01*
X110626488Y-206632200D02*
X110721726Y-206679819D01*
X110721726Y-206679819D02*
X110816964Y-206679819D01*
X111626786Y-154532200D02*
X111769643Y-154579819D01*
X111769643Y-154579819D02*
X112007738Y-154579819D01*
X112007738Y-154579819D02*
X112102976Y-154532200D01*
X112102976Y-154532200D02*
X112150595Y-154484580D01*
X112150595Y-154484580D02*
X112198214Y-154389342D01*
X112198214Y-154389342D02*
X112198214Y-154294104D01*
X112198214Y-154294104D02*
X112150595Y-154198866D01*
X112150595Y-154198866D02*
X112102976Y-154151247D01*
X112102976Y-154151247D02*
X112007738Y-154103628D01*
X112007738Y-154103628D02*
X111817262Y-154056009D01*
X111817262Y-154056009D02*
X111722024Y-154008390D01*
X111722024Y-154008390D02*
X111674405Y-153960771D01*
X111674405Y-153960771D02*
X111626786Y-153865533D01*
X111626786Y-153865533D02*
X111626786Y-153770295D01*
X111626786Y-153770295D02*
X111674405Y-153675057D01*
X111674405Y-153675057D02*
X111722024Y-153627438D01*
X111722024Y-153627438D02*
X111817262Y-153579819D01*
X111817262Y-153579819D02*
X112055357Y-153579819D01*
X112055357Y-153579819D02*
X112198214Y-153627438D01*
X116341667Y-115479819D02*
X116960714Y-115479819D01*
X116960714Y-115479819D02*
X116627381Y-115860771D01*
X116627381Y-115860771D02*
X116770238Y-115860771D01*
X116770238Y-115860771D02*
X116865476Y-115908390D01*
X116865476Y-115908390D02*
X116913095Y-115956009D01*
X116913095Y-115956009D02*
X116960714Y-116051247D01*
X116960714Y-116051247D02*
X116960714Y-116289342D01*
X116960714Y-116289342D02*
X116913095Y-116384580D01*
X116913095Y-116384580D02*
X116865476Y-116432200D01*
X116865476Y-116432200D02*
X116770238Y-116479819D01*
X116770238Y-116479819D02*
X116484524Y-116479819D01*
X116484524Y-116479819D02*
X116389286Y-116432200D01*
X116389286Y-116432200D02*
X116341667Y-116384580D01*
X121104167Y-172629819D02*
X121770833Y-173629819D01*
X121770833Y-172629819D02*
X121104167Y-173629819D01*
X125985714Y-135006009D02*
X126319047Y-135006009D01*
X126461904Y-135529819D02*
X125985714Y-135529819D01*
X125985714Y-135529819D02*
X125985714Y-134529819D01*
X125985714Y-134529819D02*
X126461904Y-134529819D01*
X130700595Y-154579819D02*
X130700595Y-153579819D01*
X130700595Y-153579819D02*
X130938690Y-153579819D01*
X130938690Y-153579819D02*
X131081547Y-153627438D01*
X131081547Y-153627438D02*
X131176785Y-153722676D01*
X131176785Y-153722676D02*
X131224404Y-153817914D01*
X131224404Y-153817914D02*
X131272023Y-154008390D01*
X131272023Y-154008390D02*
X131272023Y-154151247D01*
X131272023Y-154151247D02*
X131224404Y-154341723D01*
X131224404Y-154341723D02*
X131176785Y-154436961D01*
X131176785Y-154436961D02*
X131081547Y-154532200D01*
X131081547Y-154532200D02*
X130938690Y-154579819D01*
X130938690Y-154579819D02*
X130700595Y-154579819D01*
X135915476Y-115813152D02*
X135915476Y-116479819D01*
X135677381Y-115432200D02*
X135439286Y-116146485D01*
X135439286Y-116146485D02*
X136058333Y-116146485D01*
X140797023Y-173534580D02*
X140749404Y-173582200D01*
X140749404Y-173582200D02*
X140606547Y-173629819D01*
X140606547Y-173629819D02*
X140511309Y-173629819D01*
X140511309Y-173629819D02*
X140368452Y-173582200D01*
X140368452Y-173582200D02*
X140273214Y-173486961D01*
X140273214Y-173486961D02*
X140225595Y-173391723D01*
X140225595Y-173391723D02*
X140177976Y-173201247D01*
X140177976Y-173201247D02*
X140177976Y-173058390D01*
X140177976Y-173058390D02*
X140225595Y-172867914D01*
X140225595Y-172867914D02*
X140273214Y-172772676D01*
X140273214Y-172772676D02*
X140368452Y-172677438D01*
X140368452Y-172677438D02*
X140511309Y-172629819D01*
X140511309Y-172629819D02*
X140606547Y-172629819D01*
X140606547Y-172629819D02*
X140749404Y-172677438D01*
X140749404Y-172677438D02*
X140797023Y-172725057D01*
X145559523Y-135529819D02*
X145226190Y-135053628D01*
X144988095Y-135529819D02*
X144988095Y-134529819D01*
X144988095Y-134529819D02*
X145369047Y-134529819D01*
X145369047Y-134529819D02*
X145464285Y-134577438D01*
X145464285Y-134577438D02*
X145511904Y-134625057D01*
X145511904Y-134625057D02*
X145559523Y-134720295D01*
X145559523Y-134720295D02*
X145559523Y-134863152D01*
X145559523Y-134863152D02*
X145511904Y-134958390D01*
X145511904Y-134958390D02*
X145464285Y-135006009D01*
X145464285Y-135006009D02*
X145369047Y-135053628D01*
X145369047Y-135053628D02*
X144988095Y-135053628D01*
X150155357Y-154056009D02*
X149822024Y-154056009D01*
X149822024Y-154579819D02*
X149822024Y-153579819D01*
X149822024Y-153579819D02*
X150298214Y-153579819D01*
X155013095Y-115479819D02*
X154536905Y-115479819D01*
X154536905Y-115479819D02*
X154489286Y-115956009D01*
X154489286Y-115956009D02*
X154536905Y-115908390D01*
X154536905Y-115908390D02*
X154632143Y-115860771D01*
X154632143Y-115860771D02*
X154870238Y-115860771D01*
X154870238Y-115860771D02*
X154965476Y-115908390D01*
X154965476Y-115908390D02*
X155013095Y-115956009D01*
X155013095Y-115956009D02*
X155060714Y-116051247D01*
X155060714Y-116051247D02*
X155060714Y-116289342D01*
X155060714Y-116289342D02*
X155013095Y-116384580D01*
X155013095Y-116384580D02*
X154965476Y-116432200D01*
X154965476Y-116432200D02*
X154870238Y-116479819D01*
X154870238Y-116479819D02*
X154632143Y-116479819D01*
X154632143Y-116479819D02*
X154536905Y-116432200D01*
X154536905Y-116432200D02*
X154489286Y-116384580D01*
X159204167Y-172629819D02*
X159537500Y-173629819D01*
X159537500Y-173629819D02*
X159870833Y-172629819D01*
X164014286Y-134529819D02*
X164585714Y-134529819D01*
X164300000Y-135529819D02*
X164300000Y-134529819D01*
X169324404Y-153627438D02*
X169229166Y-153579819D01*
X169229166Y-153579819D02*
X169086309Y-153579819D01*
X169086309Y-153579819D02*
X168943452Y-153627438D01*
X168943452Y-153627438D02*
X168848214Y-153722676D01*
X168848214Y-153722676D02*
X168800595Y-153817914D01*
X168800595Y-153817914D02*
X168752976Y-154008390D01*
X168752976Y-154008390D02*
X168752976Y-154151247D01*
X168752976Y-154151247D02*
X168800595Y-154341723D01*
X168800595Y-154341723D02*
X168848214Y-154436961D01*
X168848214Y-154436961D02*
X168943452Y-154532200D01*
X168943452Y-154532200D02*
X169086309Y-154579819D01*
X169086309Y-154579819D02*
X169181547Y-154579819D01*
X169181547Y-154579819D02*
X169324404Y-154532200D01*
X169324404Y-154532200D02*
X169372023Y-154484580D01*
X169372023Y-154484580D02*
X169372023Y-154151247D01*
X169372023Y-154151247D02*
X169181547Y-154151247D01*
X174015476Y-115479819D02*
X173825000Y-115479819D01*
X173825000Y-115479819D02*
X173729762Y-115527438D01*
X173729762Y-115527438D02*
X173682143Y-115575057D01*
X173682143Y-115575057D02*
X173586905Y-115717914D01*
X173586905Y-115717914D02*
X173539286Y-115908390D01*
X173539286Y-115908390D02*
X173539286Y-116289342D01*
X173539286Y-116289342D02*
X173586905Y-116384580D01*
X173586905Y-116384580D02*
X173634524Y-116432200D01*
X173634524Y-116432200D02*
X173729762Y-116479819D01*
X173729762Y-116479819D02*
X173920238Y-116479819D01*
X173920238Y-116479819D02*
X174015476Y-116432200D01*
X174015476Y-116432200D02*
X174063095Y-116384580D01*
X174063095Y-116384580D02*
X174110714Y-116289342D01*
X174110714Y-116289342D02*
X174110714Y-116051247D01*
X174110714Y-116051247D02*
X174063095Y-115956009D01*
X174063095Y-115956009D02*
X174015476Y-115908390D01*
X174015476Y-115908390D02*
X173920238Y-115860771D01*
X173920238Y-115860771D02*
X173729762Y-115860771D01*
X173729762Y-115860771D02*
X173634524Y-115908390D01*
X173634524Y-115908390D02*
X173586905Y-115956009D01*
X173586905Y-115956009D02*
X173539286Y-116051247D01*
X178658928Y-173106009D02*
X178801785Y-173153628D01*
X178801785Y-173153628D02*
X178849404Y-173201247D01*
X178849404Y-173201247D02*
X178897023Y-173296485D01*
X178897023Y-173296485D02*
X178897023Y-173439342D01*
X178897023Y-173439342D02*
X178849404Y-173534580D01*
X178849404Y-173534580D02*
X178801785Y-173582200D01*
X178801785Y-173582200D02*
X178706547Y-173629819D01*
X178706547Y-173629819D02*
X178325595Y-173629819D01*
X178325595Y-173629819D02*
X178325595Y-172629819D01*
X178325595Y-172629819D02*
X178658928Y-172629819D01*
X178658928Y-172629819D02*
X178754166Y-172677438D01*
X178754166Y-172677438D02*
X178801785Y-172725057D01*
X178801785Y-172725057D02*
X178849404Y-172820295D01*
X178849404Y-172820295D02*
X178849404Y-172915533D01*
X178849404Y-172915533D02*
X178801785Y-173010771D01*
X178801785Y-173010771D02*
X178754166Y-173058390D01*
X178754166Y-173058390D02*
X178658928Y-173106009D01*
X178658928Y-173106009D02*
X178325595Y-173106009D01*
X178921131Y-206632200D02*
X179063988Y-206679819D01*
X179063988Y-206679819D02*
X179302083Y-206679819D01*
X179302083Y-206679819D02*
X179397321Y-206632200D01*
X179397321Y-206632200D02*
X179444940Y-206584580D01*
X179444940Y-206584580D02*
X179492559Y-206489342D01*
X179492559Y-206489342D02*
X179492559Y-206394104D01*
X179492559Y-206394104D02*
X179444940Y-206298866D01*
X179444940Y-206298866D02*
X179397321Y-206251247D01*
X179397321Y-206251247D02*
X179302083Y-206203628D01*
X179302083Y-206203628D02*
X179111607Y-206156009D01*
X179111607Y-206156009D02*
X179016369Y-206108390D01*
X179016369Y-206108390D02*
X178968750Y-206060771D01*
X178968750Y-206060771D02*
X178921131Y-205965533D01*
X178921131Y-205965533D02*
X178921131Y-205870295D01*
X178921131Y-205870295D02*
X178968750Y-205775057D01*
X178968750Y-205775057D02*
X179016369Y-205727438D01*
X179016369Y-205727438D02*
X179111607Y-205679819D01*
X179111607Y-205679819D02*
X179349702Y-205679819D01*
X179349702Y-205679819D02*
X179492559Y-205727438D01*
X179921131Y-206013152D02*
X179921131Y-207013152D01*
X179921131Y-206060771D02*
X180016369Y-206013152D01*
X180016369Y-206013152D02*
X180206845Y-206013152D01*
X180206845Y-206013152D02*
X180302083Y-206060771D01*
X180302083Y-206060771D02*
X180349702Y-206108390D01*
X180349702Y-206108390D02*
X180397321Y-206203628D01*
X180397321Y-206203628D02*
X180397321Y-206489342D01*
X180397321Y-206489342D02*
X180349702Y-206584580D01*
X180349702Y-206584580D02*
X180302083Y-206632200D01*
X180302083Y-206632200D02*
X180206845Y-206679819D01*
X180206845Y-206679819D02*
X180016369Y-206679819D01*
X180016369Y-206679819D02*
X179921131Y-206632200D01*
X181254464Y-206679819D02*
X181254464Y-206156009D01*
X181254464Y-206156009D02*
X181206845Y-206060771D01*
X181206845Y-206060771D02*
X181111607Y-206013152D01*
X181111607Y-206013152D02*
X180921131Y-206013152D01*
X180921131Y-206013152D02*
X180825893Y-206060771D01*
X181254464Y-206632200D02*
X181159226Y-206679819D01*
X181159226Y-206679819D02*
X180921131Y-206679819D01*
X180921131Y-206679819D02*
X180825893Y-206632200D01*
X180825893Y-206632200D02*
X180778274Y-206536961D01*
X180778274Y-206536961D02*
X180778274Y-206441723D01*
X180778274Y-206441723D02*
X180825893Y-206346485D01*
X180825893Y-206346485D02*
X180921131Y-206298866D01*
X180921131Y-206298866D02*
X181159226Y-206298866D01*
X181159226Y-206298866D02*
X181254464Y-206251247D01*
X182159226Y-206632200D02*
X182063988Y-206679819D01*
X182063988Y-206679819D02*
X181873512Y-206679819D01*
X181873512Y-206679819D02*
X181778274Y-206632200D01*
X181778274Y-206632200D02*
X181730655Y-206584580D01*
X181730655Y-206584580D02*
X181683036Y-206489342D01*
X181683036Y-206489342D02*
X181683036Y-206203628D01*
X181683036Y-206203628D02*
X181730655Y-206108390D01*
X181730655Y-206108390D02*
X181778274Y-206060771D01*
X181778274Y-206060771D02*
X181873512Y-206013152D01*
X181873512Y-206013152D02*
X182063988Y-206013152D01*
X182063988Y-206013152D02*
X182159226Y-206060771D01*
X182968750Y-206632200D02*
X182873512Y-206679819D01*
X182873512Y-206679819D02*
X182683036Y-206679819D01*
X182683036Y-206679819D02*
X182587798Y-206632200D01*
X182587798Y-206632200D02*
X182540179Y-206536961D01*
X182540179Y-206536961D02*
X182540179Y-206156009D01*
X182540179Y-206156009D02*
X182587798Y-206060771D01*
X182587798Y-206060771D02*
X182683036Y-206013152D01*
X182683036Y-206013152D02*
X182873512Y-206013152D01*
X182873512Y-206013152D02*
X182968750Y-206060771D01*
X182968750Y-206060771D02*
X183016369Y-206156009D01*
X183016369Y-206156009D02*
X183016369Y-206251247D01*
X183016369Y-206251247D02*
X182540179Y-206346485D01*
X183350000Y-135053628D02*
X183350000Y-135529819D01*
X183016667Y-134529819D02*
X183350000Y-135053628D01*
X183350000Y-135053628D02*
X183683333Y-134529819D01*
X187826786Y-154579819D02*
X187826786Y-153579819D01*
X187826786Y-154056009D02*
X188398214Y-154056009D01*
X188398214Y-154579819D02*
X188398214Y-153579819D01*
X192541667Y-115479819D02*
X193208333Y-115479819D01*
X193208333Y-115479819D02*
X192779762Y-116479819D01*
X197351786Y-173629819D02*
X197351786Y-172629819D01*
X197351786Y-172629819D02*
X197923214Y-173629819D01*
X197923214Y-173629819D02*
X197923214Y-172629819D01*
X202114286Y-134529819D02*
X202114286Y-135339342D01*
X202114286Y-135339342D02*
X202161905Y-135434580D01*
X202161905Y-135434580D02*
X202209524Y-135482200D01*
X202209524Y-135482200D02*
X202304762Y-135529819D01*
X202304762Y-135529819D02*
X202495238Y-135529819D01*
X202495238Y-135529819D02*
X202590476Y-135482200D01*
X202590476Y-135482200D02*
X202638095Y-135434580D01*
X202638095Y-135434580D02*
X202685714Y-135339342D01*
X202685714Y-135339342D02*
X202685714Y-134529819D01*
X207305357Y-153579819D02*
X207305357Y-154294104D01*
X207305357Y-154294104D02*
X207257738Y-154436961D01*
X207257738Y-154436961D02*
X207162500Y-154532200D01*
X207162500Y-154532200D02*
X207019643Y-154579819D01*
X207019643Y-154579819D02*
X206924405Y-154579819D01*
X211829762Y-115908390D02*
X211734524Y-115860771D01*
X211734524Y-115860771D02*
X211686905Y-115813152D01*
X211686905Y-115813152D02*
X211639286Y-115717914D01*
X211639286Y-115717914D02*
X211639286Y-115670295D01*
X211639286Y-115670295D02*
X211686905Y-115575057D01*
X211686905Y-115575057D02*
X211734524Y-115527438D01*
X211734524Y-115527438D02*
X211829762Y-115479819D01*
X211829762Y-115479819D02*
X212020238Y-115479819D01*
X212020238Y-115479819D02*
X212115476Y-115527438D01*
X212115476Y-115527438D02*
X212163095Y-115575057D01*
X212163095Y-115575057D02*
X212210714Y-115670295D01*
X212210714Y-115670295D02*
X212210714Y-115717914D01*
X212210714Y-115717914D02*
X212163095Y-115813152D01*
X212163095Y-115813152D02*
X212115476Y-115860771D01*
X212115476Y-115860771D02*
X212020238Y-115908390D01*
X212020238Y-115908390D02*
X211829762Y-115908390D01*
X211829762Y-115908390D02*
X211734524Y-115956009D01*
X211734524Y-115956009D02*
X211686905Y-116003628D01*
X211686905Y-116003628D02*
X211639286Y-116098866D01*
X211639286Y-116098866D02*
X211639286Y-116289342D01*
X211639286Y-116289342D02*
X211686905Y-116384580D01*
X211686905Y-116384580D02*
X211734524Y-116432200D01*
X211734524Y-116432200D02*
X211829762Y-116479819D01*
X211829762Y-116479819D02*
X212020238Y-116479819D01*
X212020238Y-116479819D02*
X212115476Y-116432200D01*
X212115476Y-116432200D02*
X212163095Y-116384580D01*
X212163095Y-116384580D02*
X212210714Y-116289342D01*
X212210714Y-116289342D02*
X212210714Y-116098866D01*
X212210714Y-116098866D02*
X212163095Y-116003628D01*
X212163095Y-116003628D02*
X212115476Y-115956009D01*
X212115476Y-115956009D02*
X212020238Y-115908390D01*
X216354167Y-173629819D02*
X216354167Y-172629819D01*
X216354167Y-172629819D02*
X216687500Y-173344104D01*
X216687500Y-173344104D02*
X217020833Y-172629819D01*
X217020833Y-172629819D02*
X217020833Y-173629819D01*
X221450000Y-135529819D02*
X221450000Y-134529819D01*
X225950595Y-154579819D02*
X225950595Y-153579819D01*
X226522023Y-154579819D02*
X226093452Y-154008390D01*
X226522023Y-153579819D02*
X225950595Y-154151247D01*
X230784524Y-116479819D02*
X230975000Y-116479819D01*
X230975000Y-116479819D02*
X231070238Y-116432200D01*
X231070238Y-116432200D02*
X231117857Y-116384580D01*
X231117857Y-116384580D02*
X231213095Y-116241723D01*
X231213095Y-116241723D02*
X231260714Y-116051247D01*
X231260714Y-116051247D02*
X231260714Y-115670295D01*
X231260714Y-115670295D02*
X231213095Y-115575057D01*
X231213095Y-115575057D02*
X231165476Y-115527438D01*
X231165476Y-115527438D02*
X231070238Y-115479819D01*
X231070238Y-115479819D02*
X230879762Y-115479819D01*
X230879762Y-115479819D02*
X230784524Y-115527438D01*
X230784524Y-115527438D02*
X230736905Y-115575057D01*
X230736905Y-115575057D02*
X230689286Y-115670295D01*
X230689286Y-115670295D02*
X230689286Y-115908390D01*
X230689286Y-115908390D02*
X230736905Y-116003628D01*
X230736905Y-116003628D02*
X230784524Y-116051247D01*
X230784524Y-116051247D02*
X230879762Y-116098866D01*
X230879762Y-116098866D02*
X231070238Y-116098866D01*
X231070238Y-116098866D02*
X231165476Y-116051247D01*
X231165476Y-116051247D02*
X231213095Y-116003628D01*
X231213095Y-116003628D02*
X231260714Y-115908390D01*
X235785119Y-173582200D02*
X235785119Y-173629819D01*
X235785119Y-173629819D02*
X235737500Y-173725057D01*
X235737500Y-173725057D02*
X235689881Y-173772676D01*
X240404762Y-134529819D02*
X240595238Y-134529819D01*
X240595238Y-134529819D02*
X240690476Y-134577438D01*
X240690476Y-134577438D02*
X240785714Y-134672676D01*
X240785714Y-134672676D02*
X240833333Y-134863152D01*
X240833333Y-134863152D02*
X240833333Y-135196485D01*
X240833333Y-135196485D02*
X240785714Y-135386961D01*
X240785714Y-135386961D02*
X240690476Y-135482200D01*
X240690476Y-135482200D02*
X240595238Y-135529819D01*
X240595238Y-135529819D02*
X240404762Y-135529819D01*
X240404762Y-135529819D02*
X240309524Y-135482200D01*
X240309524Y-135482200D02*
X240214286Y-135386961D01*
X240214286Y-135386961D02*
X240166667Y-135196485D01*
X240166667Y-135196485D02*
X240166667Y-134863152D01*
X240166667Y-134863152D02*
X240214286Y-134672676D01*
X240214286Y-134672676D02*
X240309524Y-134577438D01*
X240309524Y-134577438D02*
X240404762Y-134529819D01*
X245572023Y-154579819D02*
X245095833Y-154579819D01*
X245095833Y-154579819D02*
X245095833Y-153579819D01*
X249977381Y-115479819D02*
X250072619Y-115479819D01*
X250072619Y-115479819D02*
X250167857Y-115527438D01*
X250167857Y-115527438D02*
X250215476Y-115575057D01*
X250215476Y-115575057D02*
X250263095Y-115670295D01*
X250263095Y-115670295D02*
X250310714Y-115860771D01*
X250310714Y-115860771D02*
X250310714Y-116098866D01*
X250310714Y-116098866D02*
X250263095Y-116289342D01*
X250263095Y-116289342D02*
X250215476Y-116384580D01*
X250215476Y-116384580D02*
X250167857Y-116432200D01*
X250167857Y-116432200D02*
X250072619Y-116479819D01*
X250072619Y-116479819D02*
X249977381Y-116479819D01*
X249977381Y-116479819D02*
X249882143Y-116432200D01*
X249882143Y-116432200D02*
X249834524Y-116384580D01*
X249834524Y-116384580D02*
X249786905Y-116289342D01*
X249786905Y-116289342D02*
X249739286Y-116098866D01*
X249739286Y-116098866D02*
X249739286Y-115860771D01*
X249739286Y-115860771D02*
X249786905Y-115670295D01*
X249786905Y-115670295D02*
X249834524Y-115575057D01*
X249834524Y-115575057D02*
X249882143Y-115527438D01*
X249882143Y-115527438D02*
X249977381Y-115479819D01*
X251739582Y-206679819D02*
X251406249Y-206203628D01*
X251168154Y-206679819D02*
X251168154Y-205679819D01*
X251168154Y-205679819D02*
X251549106Y-205679819D01*
X251549106Y-205679819D02*
X251644344Y-205727438D01*
X251644344Y-205727438D02*
X251691963Y-205775057D01*
X251691963Y-205775057D02*
X251739582Y-205870295D01*
X251739582Y-205870295D02*
X251739582Y-206013152D01*
X251739582Y-206013152D02*
X251691963Y-206108390D01*
X251691963Y-206108390D02*
X251644344Y-206156009D01*
X251644344Y-206156009D02*
X251549106Y-206203628D01*
X251549106Y-206203628D02*
X251168154Y-206203628D01*
X252120535Y-206394104D02*
X252596725Y-206394104D01*
X252025297Y-206679819D02*
X252358630Y-205679819D01*
X252358630Y-205679819D02*
X252691963Y-206679819D01*
X253168154Y-206679819D02*
X253072916Y-206632200D01*
X253072916Y-206632200D02*
X253025297Y-206536961D01*
X253025297Y-206536961D02*
X253025297Y-205679819D01*
X253406250Y-206013152D02*
X253787202Y-206013152D01*
X253549107Y-205679819D02*
X253549107Y-206536961D01*
X253549107Y-206536961D02*
X253596726Y-206632200D01*
X253596726Y-206632200D02*
X253691964Y-206679819D01*
X253691964Y-206679819D02*
X253787202Y-206679819D01*
X254787500Y-173534580D02*
X254835119Y-173582200D01*
X254835119Y-173582200D02*
X254787500Y-173629819D01*
X254787500Y-173629819D02*
X254739881Y-173582200D01*
X254739881Y-173582200D02*
X254787500Y-173534580D01*
X254787500Y-173534580D02*
X254787500Y-173629819D01*
X259288095Y-135529819D02*
X259288095Y-134529819D01*
X259288095Y-134529819D02*
X259669047Y-134529819D01*
X259669047Y-134529819D02*
X259764285Y-134577438D01*
X259764285Y-134577438D02*
X259811904Y-134625057D01*
X259811904Y-134625057D02*
X259859523Y-134720295D01*
X259859523Y-134720295D02*
X259859523Y-134863152D01*
X259859523Y-134863152D02*
X259811904Y-134958390D01*
X259811904Y-134958390D02*
X259764285Y-135006009D01*
X259764285Y-135006009D02*
X259669047Y-135053628D01*
X259669047Y-135053628D02*
X259288095Y-135053628D01*
X264360119Y-154532200D02*
X264360119Y-154579819D01*
X264360119Y-154579819D02*
X264312500Y-154675057D01*
X264312500Y-154675057D02*
X264264881Y-154722676D01*
X264312500Y-153960771D02*
X264360119Y-154008390D01*
X264360119Y-154008390D02*
X264312500Y-154056009D01*
X264312500Y-154056009D02*
X264264881Y-154008390D01*
X264264881Y-154008390D02*
X264312500Y-153960771D01*
X264312500Y-153960771D02*
X264312500Y-154056009D01*
X268694048Y-116098866D02*
X269455953Y-116098866D01*
X274266071Y-172582200D02*
X273408929Y-173867914D01*
X275909226Y-206156009D02*
X275575893Y-206156009D01*
X275575893Y-206679819D02*
X275575893Y-205679819D01*
X275575893Y-205679819D02*
X276052083Y-205679819D01*
X276433036Y-206013152D02*
X276433036Y-206679819D01*
X276433036Y-206108390D02*
X276480655Y-206060771D01*
X276480655Y-206060771D02*
X276575893Y-206013152D01*
X276575893Y-206013152D02*
X276718750Y-206013152D01*
X276718750Y-206013152D02*
X276813988Y-206060771D01*
X276813988Y-206060771D02*
X276861607Y-206156009D01*
X276861607Y-206156009D02*
X276861607Y-206679819D01*
X278790476Y-135863152D02*
X278552381Y-135863152D01*
X278552381Y-135863152D02*
X278552381Y-134434580D01*
X278552381Y-134434580D02*
X278790476Y-134434580D01*
X282124404Y-154675057D02*
X282029166Y-154627438D01*
X282029166Y-154627438D02*
X281933928Y-154532200D01*
X281933928Y-154532200D02*
X281791071Y-154389342D01*
X281791071Y-154389342D02*
X281695833Y-154341723D01*
X281695833Y-154341723D02*
X281600595Y-154341723D01*
X281648214Y-154579819D02*
X281552976Y-154532200D01*
X281552976Y-154532200D02*
X281457738Y-154436961D01*
X281457738Y-154436961D02*
X281410119Y-154246485D01*
X281410119Y-154246485D02*
X281410119Y-153913152D01*
X281410119Y-153913152D02*
X281457738Y-153722676D01*
X281457738Y-153722676D02*
X281552976Y-153627438D01*
X281552976Y-153627438D02*
X281648214Y-153579819D01*
X281648214Y-153579819D02*
X281838690Y-153579819D01*
X281838690Y-153579819D02*
X281933928Y-153627438D01*
X281933928Y-153627438D02*
X282029166Y-153722676D01*
X282029166Y-153722676D02*
X282076785Y-153913152D01*
X282076785Y-153913152D02*
X282076785Y-154246485D01*
X282076785Y-154246485D02*
X282029166Y-154436961D01*
X282029166Y-154436961D02*
X281933928Y-154532200D01*
X281933928Y-154532200D02*
X281838690Y-154579819D01*
X281838690Y-154579819D02*
X281648214Y-154579819D01*
X282933928Y-153913152D02*
X282933928Y-154579819D01*
X282505357Y-153913152D02*
X282505357Y-154436961D01*
X282505357Y-154436961D02*
X282552976Y-154532200D01*
X282552976Y-154532200D02*
X282648214Y-154579819D01*
X282648214Y-154579819D02*
X282791071Y-154579819D01*
X282791071Y-154579819D02*
X282886309Y-154532200D01*
X282886309Y-154532200D02*
X282933928Y-154484580D01*
X283552976Y-154579819D02*
X283457738Y-154532200D01*
X283457738Y-154532200D02*
X283410119Y-154484580D01*
X283410119Y-154484580D02*
X283362500Y-154389342D01*
X283362500Y-154389342D02*
X283362500Y-154103628D01*
X283362500Y-154103628D02*
X283410119Y-154008390D01*
X283410119Y-154008390D02*
X283457738Y-153960771D01*
X283457738Y-153960771D02*
X283552976Y-153913152D01*
X283552976Y-153913152D02*
X283695833Y-153913152D01*
X283695833Y-153913152D02*
X283791071Y-153960771D01*
X283791071Y-153960771D02*
X283838690Y-154008390D01*
X283838690Y-154008390D02*
X283886309Y-154103628D01*
X283886309Y-154103628D02*
X283886309Y-154389342D01*
X283886309Y-154389342D02*
X283838690Y-154484580D01*
X283838690Y-154484580D02*
X283791071Y-154532200D01*
X283791071Y-154532200D02*
X283695833Y-154579819D01*
X283695833Y-154579819D02*
X283552976Y-154579819D01*
X284172024Y-153913152D02*
X284552976Y-153913152D01*
X284314881Y-153579819D02*
X284314881Y-154436961D01*
X284314881Y-154436961D02*
X284362500Y-154532200D01*
X284362500Y-154532200D02*
X284457738Y-154579819D01*
X284457738Y-154579819D02*
X284552976Y-154579819D01*
X285267262Y-154532200D02*
X285172024Y-154579819D01*
X285172024Y-154579819D02*
X284981548Y-154579819D01*
X284981548Y-154579819D02*
X284886310Y-154532200D01*
X284886310Y-154532200D02*
X284838691Y-154436961D01*
X284838691Y-154436961D02*
X284838691Y-154056009D01*
X284838691Y-154056009D02*
X284886310Y-153960771D01*
X284886310Y-153960771D02*
X284981548Y-153913152D01*
X284981548Y-153913152D02*
X285172024Y-153913152D01*
X285172024Y-153913152D02*
X285267262Y-153960771D01*
X285267262Y-153960771D02*
X285314881Y-154056009D01*
X285314881Y-154056009D02*
X285314881Y-154151247D01*
X285314881Y-154151247D02*
X284838691Y-154246485D01*
X287744048Y-115956009D02*
X288505953Y-115956009D01*
X288505953Y-116241723D02*
X287744048Y-116241723D01*
X297459524Y-135863152D02*
X297697619Y-135863152D01*
X297697619Y-135863152D02*
X297697619Y-134434580D01*
X297697619Y-134434580D02*
X297459524Y-134434580D01*
X298364583Y-206679819D02*
X298364583Y-205679819D01*
X298364583Y-205679819D02*
X298697916Y-206394104D01*
X298697916Y-206394104D02*
X299031249Y-205679819D01*
X299031249Y-205679819D02*
X299031249Y-206679819D01*
X299888392Y-206632200D02*
X299793154Y-206679819D01*
X299793154Y-206679819D02*
X299602678Y-206679819D01*
X299602678Y-206679819D02*
X299507440Y-206632200D01*
X299507440Y-206632200D02*
X299459821Y-206536961D01*
X299459821Y-206536961D02*
X299459821Y-206156009D01*
X299459821Y-206156009D02*
X299507440Y-206060771D01*
X299507440Y-206060771D02*
X299602678Y-206013152D01*
X299602678Y-206013152D02*
X299793154Y-206013152D01*
X299793154Y-206013152D02*
X299888392Y-206060771D01*
X299888392Y-206060771D02*
X299936011Y-206156009D01*
X299936011Y-206156009D02*
X299936011Y-206251247D01*
X299936011Y-206251247D02*
X299459821Y-206346485D01*
X300364583Y-206013152D02*
X300364583Y-206679819D01*
X300364583Y-206108390D02*
X300412202Y-206060771D01*
X300412202Y-206060771D02*
X300507440Y-206013152D01*
X300507440Y-206013152D02*
X300650297Y-206013152D01*
X300650297Y-206013152D02*
X300745535Y-206060771D01*
X300745535Y-206060771D02*
X300793154Y-206156009D01*
X300793154Y-206156009D02*
X300793154Y-206679819D01*
X301697916Y-206013152D02*
X301697916Y-206679819D01*
X301269345Y-206013152D02*
X301269345Y-206536961D01*
X301269345Y-206536961D02*
X301316964Y-206632200D01*
X301316964Y-206632200D02*
X301412202Y-206679819D01*
X301412202Y-206679819D02*
X301555059Y-206679819D01*
X301555059Y-206679819D02*
X301650297Y-206632200D01*
X301650297Y-206632200D02*
X301697916Y-206584580D01*
X308127678Y-173629819D02*
X307794345Y-173153628D01*
X307556250Y-173629819D02*
X307556250Y-172629819D01*
X307556250Y-172629819D02*
X307937202Y-172629819D01*
X307937202Y-172629819D02*
X308032440Y-172677438D01*
X308032440Y-172677438D02*
X308080059Y-172725057D01*
X308080059Y-172725057D02*
X308127678Y-172820295D01*
X308127678Y-172820295D02*
X308127678Y-172963152D01*
X308127678Y-172963152D02*
X308080059Y-173058390D01*
X308080059Y-173058390D02*
X308032440Y-173106009D01*
X308032440Y-173106009D02*
X307937202Y-173153628D01*
X307937202Y-173153628D02*
X307556250Y-173153628D01*
X308508631Y-173582200D02*
X308651488Y-173629819D01*
X308651488Y-173629819D02*
X308889583Y-173629819D01*
X308889583Y-173629819D02*
X308984821Y-173582200D01*
X308984821Y-173582200D02*
X309032440Y-173534580D01*
X309032440Y-173534580D02*
X309080059Y-173439342D01*
X309080059Y-173439342D02*
X309080059Y-173344104D01*
X309080059Y-173344104D02*
X309032440Y-173248866D01*
X309032440Y-173248866D02*
X308984821Y-173201247D01*
X308984821Y-173201247D02*
X308889583Y-173153628D01*
X308889583Y-173153628D02*
X308699107Y-173106009D01*
X308699107Y-173106009D02*
X308603869Y-173058390D01*
X308603869Y-173058390D02*
X308556250Y-173010771D01*
X308556250Y-173010771D02*
X308508631Y-172915533D01*
X308508631Y-172915533D02*
X308508631Y-172820295D01*
X308508631Y-172820295D02*
X308556250Y-172725057D01*
X308556250Y-172725057D02*
X308603869Y-172677438D01*
X308603869Y-172677438D02*
X308699107Y-172629819D01*
X308699107Y-172629819D02*
X308937202Y-172629819D01*
X308937202Y-172629819D02*
X309080059Y-172677438D01*
X309508631Y-173629819D02*
X309508631Y-172629819D01*
X309937202Y-173629819D02*
X309937202Y-173106009D01*
X309937202Y-173106009D02*
X309889583Y-173010771D01*
X309889583Y-173010771D02*
X309794345Y-172963152D01*
X309794345Y-172963152D02*
X309651488Y-172963152D01*
X309651488Y-172963152D02*
X309556250Y-173010771D01*
X309556250Y-173010771D02*
X309508631Y-173058390D01*
X310413393Y-173629819D02*
X310413393Y-172963152D01*
X310413393Y-172629819D02*
X310365774Y-172677438D01*
X310365774Y-172677438D02*
X310413393Y-172725057D01*
X310413393Y-172725057D02*
X310461012Y-172677438D01*
X310461012Y-172677438D02*
X310413393Y-172629819D01*
X310413393Y-172629819D02*
X310413393Y-172725057D01*
X310746726Y-172963152D02*
X311127678Y-172963152D01*
X310889583Y-173629819D02*
X310889583Y-172772676D01*
X310889583Y-172772676D02*
X310937202Y-172677438D01*
X310937202Y-172677438D02*
X311032440Y-172629819D01*
X311032440Y-172629819D02*
X311127678Y-172629819D01*
X311318155Y-172963152D02*
X311699107Y-172963152D01*
X311461012Y-172629819D02*
X311461012Y-173486961D01*
X311461012Y-173486961D02*
X311508631Y-173582200D01*
X311508631Y-173582200D02*
X311603869Y-173629819D01*
X311603869Y-173629819D02*
X311699107Y-173629819D01*
X312628273Y-154056009D02*
X312961606Y-154056009D01*
X313104463Y-154579819D02*
X312628273Y-154579819D01*
X312628273Y-154579819D02*
X312628273Y-153579819D01*
X312628273Y-153579819D02*
X313104463Y-153579819D01*
X313533035Y-153913152D02*
X313533035Y-154579819D01*
X313533035Y-154008390D02*
X313580654Y-153960771D01*
X313580654Y-153960771D02*
X313675892Y-153913152D01*
X313675892Y-153913152D02*
X313818749Y-153913152D01*
X313818749Y-153913152D02*
X313913987Y-153960771D01*
X313913987Y-153960771D02*
X313961606Y-154056009D01*
X313961606Y-154056009D02*
X313961606Y-154579819D01*
X314294940Y-153913152D02*
X314675892Y-153913152D01*
X314437797Y-153579819D02*
X314437797Y-154436961D01*
X314437797Y-154436961D02*
X314485416Y-154532200D01*
X314485416Y-154532200D02*
X314580654Y-154579819D01*
X314580654Y-154579819D02*
X314675892Y-154579819D01*
X315390178Y-154532200D02*
X315294940Y-154579819D01*
X315294940Y-154579819D02*
X315104464Y-154579819D01*
X315104464Y-154579819D02*
X315009226Y-154532200D01*
X315009226Y-154532200D02*
X314961607Y-154436961D01*
X314961607Y-154436961D02*
X314961607Y-154056009D01*
X314961607Y-154056009D02*
X315009226Y-153960771D01*
X315009226Y-153960771D02*
X315104464Y-153913152D01*
X315104464Y-153913152D02*
X315294940Y-153913152D01*
X315294940Y-153913152D02*
X315390178Y-153960771D01*
X315390178Y-153960771D02*
X315437797Y-154056009D01*
X315437797Y-154056009D02*
X315437797Y-154151247D01*
X315437797Y-154151247D02*
X314961607Y-154246485D01*
X315866369Y-154579819D02*
X315866369Y-153913152D01*
X315866369Y-154103628D02*
X315913988Y-154008390D01*
X315913988Y-154008390D02*
X315961607Y-153960771D01*
X315961607Y-153960771D02*
X316056845Y-153913152D01*
X316056845Y-153913152D02*
X316152083Y-153913152D01*
X313319047Y-115956009D02*
X313461904Y-116003628D01*
X313461904Y-116003628D02*
X313509523Y-116051247D01*
X313509523Y-116051247D02*
X313557142Y-116146485D01*
X313557142Y-116146485D02*
X313557142Y-116289342D01*
X313557142Y-116289342D02*
X313509523Y-116384580D01*
X313509523Y-116384580D02*
X313461904Y-116432200D01*
X313461904Y-116432200D02*
X313366666Y-116479819D01*
X313366666Y-116479819D02*
X312985714Y-116479819D01*
X312985714Y-116479819D02*
X312985714Y-115479819D01*
X312985714Y-115479819D02*
X313319047Y-115479819D01*
X313319047Y-115479819D02*
X313414285Y-115527438D01*
X313414285Y-115527438D02*
X313461904Y-115575057D01*
X313461904Y-115575057D02*
X313509523Y-115670295D01*
X313509523Y-115670295D02*
X313509523Y-115765533D01*
X313509523Y-115765533D02*
X313461904Y-115860771D01*
X313461904Y-115860771D02*
X313414285Y-115908390D01*
X313414285Y-115908390D02*
X313319047Y-115956009D01*
X313319047Y-115956009D02*
X312985714Y-115956009D01*
X314414285Y-116479819D02*
X314414285Y-115956009D01*
X314414285Y-115956009D02*
X314366666Y-115860771D01*
X314366666Y-115860771D02*
X314271428Y-115813152D01*
X314271428Y-115813152D02*
X314080952Y-115813152D01*
X314080952Y-115813152D02*
X313985714Y-115860771D01*
X314414285Y-116432200D02*
X314319047Y-116479819D01*
X314319047Y-116479819D02*
X314080952Y-116479819D01*
X314080952Y-116479819D02*
X313985714Y-116432200D01*
X313985714Y-116432200D02*
X313938095Y-116336961D01*
X313938095Y-116336961D02*
X313938095Y-116241723D01*
X313938095Y-116241723D02*
X313985714Y-116146485D01*
X313985714Y-116146485D02*
X314080952Y-116098866D01*
X314080952Y-116098866D02*
X314319047Y-116098866D01*
X314319047Y-116098866D02*
X314414285Y-116051247D01*
X315319047Y-116432200D02*
X315223809Y-116479819D01*
X315223809Y-116479819D02*
X315033333Y-116479819D01*
X315033333Y-116479819D02*
X314938095Y-116432200D01*
X314938095Y-116432200D02*
X314890476Y-116384580D01*
X314890476Y-116384580D02*
X314842857Y-116289342D01*
X314842857Y-116289342D02*
X314842857Y-116003628D01*
X314842857Y-116003628D02*
X314890476Y-115908390D01*
X314890476Y-115908390D02*
X314938095Y-115860771D01*
X314938095Y-115860771D02*
X315033333Y-115813152D01*
X315033333Y-115813152D02*
X315223809Y-115813152D01*
X315223809Y-115813152D02*
X315319047Y-115860771D01*
X315747619Y-116479819D02*
X315747619Y-115479819D01*
X315842857Y-116098866D02*
X316128571Y-116479819D01*
X316128571Y-115813152D02*
X315747619Y-116194104D01*
X316509524Y-116432200D02*
X316604762Y-116479819D01*
X316604762Y-116479819D02*
X316795238Y-116479819D01*
X316795238Y-116479819D02*
X316890476Y-116432200D01*
X316890476Y-116432200D02*
X316938095Y-116336961D01*
X316938095Y-116336961D02*
X316938095Y-116289342D01*
X316938095Y-116289342D02*
X316890476Y-116194104D01*
X316890476Y-116194104D02*
X316795238Y-116146485D01*
X316795238Y-116146485D02*
X316652381Y-116146485D01*
X316652381Y-116146485D02*
X316557143Y-116098866D01*
X316557143Y-116098866D02*
X316509524Y-116003628D01*
X316509524Y-116003628D02*
X316509524Y-115956009D01*
X316509524Y-115956009D02*
X316557143Y-115860771D01*
X316557143Y-115860771D02*
X316652381Y-115813152D01*
X316652381Y-115813152D02*
X316795238Y-115813152D01*
X316795238Y-115813152D02*
X316890476Y-115860771D01*
X317366667Y-115813152D02*
X317366667Y-116813152D01*
X317366667Y-115860771D02*
X317461905Y-115813152D01*
X317461905Y-115813152D02*
X317652381Y-115813152D01*
X317652381Y-115813152D02*
X317747619Y-115860771D01*
X317747619Y-115860771D02*
X317795238Y-115908390D01*
X317795238Y-115908390D02*
X317842857Y-116003628D01*
X317842857Y-116003628D02*
X317842857Y-116289342D01*
X317842857Y-116289342D02*
X317795238Y-116384580D01*
X317795238Y-116384580D02*
X317747619Y-116432200D01*
X317747619Y-116432200D02*
X317652381Y-116479819D01*
X317652381Y-116479819D02*
X317461905Y-116479819D01*
X317461905Y-116479819D02*
X317366667Y-116432200D01*
X318700000Y-116479819D02*
X318700000Y-115956009D01*
X318700000Y-115956009D02*
X318652381Y-115860771D01*
X318652381Y-115860771D02*
X318557143Y-115813152D01*
X318557143Y-115813152D02*
X318366667Y-115813152D01*
X318366667Y-115813152D02*
X318271429Y-115860771D01*
X318700000Y-116432200D02*
X318604762Y-116479819D01*
X318604762Y-116479819D02*
X318366667Y-116479819D01*
X318366667Y-116479819D02*
X318271429Y-116432200D01*
X318271429Y-116432200D02*
X318223810Y-116336961D01*
X318223810Y-116336961D02*
X318223810Y-116241723D01*
X318223810Y-116241723D02*
X318271429Y-116146485D01*
X318271429Y-116146485D02*
X318366667Y-116098866D01*
X318366667Y-116098866D02*
X318604762Y-116098866D01*
X318604762Y-116098866D02*
X318700000Y-116051247D01*
X319604762Y-116432200D02*
X319509524Y-116479819D01*
X319509524Y-116479819D02*
X319319048Y-116479819D01*
X319319048Y-116479819D02*
X319223810Y-116432200D01*
X319223810Y-116432200D02*
X319176191Y-116384580D01*
X319176191Y-116384580D02*
X319128572Y-116289342D01*
X319128572Y-116289342D02*
X319128572Y-116003628D01*
X319128572Y-116003628D02*
X319176191Y-115908390D01*
X319176191Y-115908390D02*
X319223810Y-115860771D01*
X319223810Y-115860771D02*
X319319048Y-115813152D01*
X319319048Y-115813152D02*
X319509524Y-115813152D01*
X319509524Y-115813152D02*
X319604762Y-115860771D01*
X320414286Y-116432200D02*
X320319048Y-116479819D01*
X320319048Y-116479819D02*
X320128572Y-116479819D01*
X320128572Y-116479819D02*
X320033334Y-116432200D01*
X320033334Y-116432200D02*
X319985715Y-116336961D01*
X319985715Y-116336961D02*
X319985715Y-115956009D01*
X319985715Y-115956009D02*
X320033334Y-115860771D01*
X320033334Y-115860771D02*
X320128572Y-115813152D01*
X320128572Y-115813152D02*
X320319048Y-115813152D01*
X320319048Y-115813152D02*
X320414286Y-115860771D01*
X320414286Y-115860771D02*
X320461905Y-115956009D01*
X320461905Y-115956009D02*
X320461905Y-116051247D01*
X320461905Y-116051247D02*
X319985715Y-116146485D01*
X318272023Y-135006009D02*
X318414880Y-135053628D01*
X318414880Y-135053628D02*
X318462499Y-135101247D01*
X318462499Y-135101247D02*
X318510118Y-135196485D01*
X318510118Y-135196485D02*
X318510118Y-135339342D01*
X318510118Y-135339342D02*
X318462499Y-135434580D01*
X318462499Y-135434580D02*
X318414880Y-135482200D01*
X318414880Y-135482200D02*
X318319642Y-135529819D01*
X318319642Y-135529819D02*
X317938690Y-135529819D01*
X317938690Y-135529819D02*
X317938690Y-134529819D01*
X317938690Y-134529819D02*
X318272023Y-134529819D01*
X318272023Y-134529819D02*
X318367261Y-134577438D01*
X318367261Y-134577438D02*
X318414880Y-134625057D01*
X318414880Y-134625057D02*
X318462499Y-134720295D01*
X318462499Y-134720295D02*
X318462499Y-134815533D01*
X318462499Y-134815533D02*
X318414880Y-134910771D01*
X318414880Y-134910771D02*
X318367261Y-134958390D01*
X318367261Y-134958390D02*
X318272023Y-135006009D01*
X318272023Y-135006009D02*
X317938690Y-135006009D01*
X319367261Y-135529819D02*
X319367261Y-135006009D01*
X319367261Y-135006009D02*
X319319642Y-134910771D01*
X319319642Y-134910771D02*
X319224404Y-134863152D01*
X319224404Y-134863152D02*
X319033928Y-134863152D01*
X319033928Y-134863152D02*
X318938690Y-134910771D01*
X319367261Y-135482200D02*
X319272023Y-135529819D01*
X319272023Y-135529819D02*
X319033928Y-135529819D01*
X319033928Y-135529819D02*
X318938690Y-135482200D01*
X318938690Y-135482200D02*
X318891071Y-135386961D01*
X318891071Y-135386961D02*
X318891071Y-135291723D01*
X318891071Y-135291723D02*
X318938690Y-135196485D01*
X318938690Y-135196485D02*
X319033928Y-135148866D01*
X319033928Y-135148866D02*
X319272023Y-135148866D01*
X319272023Y-135148866D02*
X319367261Y-135101247D01*
X320272023Y-135482200D02*
X320176785Y-135529819D01*
X320176785Y-135529819D02*
X319986309Y-135529819D01*
X319986309Y-135529819D02*
X319891071Y-135482200D01*
X319891071Y-135482200D02*
X319843452Y-135434580D01*
X319843452Y-135434580D02*
X319795833Y-135339342D01*
X319795833Y-135339342D02*
X319795833Y-135053628D01*
X319795833Y-135053628D02*
X319843452Y-134958390D01*
X319843452Y-134958390D02*
X319891071Y-134910771D01*
X319891071Y-134910771D02*
X319986309Y-134863152D01*
X319986309Y-134863152D02*
X320176785Y-134863152D01*
X320176785Y-134863152D02*
X320272023Y-134910771D01*
X320700595Y-135529819D02*
X320700595Y-134529819D01*
X320795833Y-135148866D02*
X321081547Y-135529819D01*
X321081547Y-134863152D02*
X320700595Y-135244104D01*
X321462500Y-135482200D02*
X321557738Y-135529819D01*
X321557738Y-135529819D02*
X321748214Y-135529819D01*
X321748214Y-135529819D02*
X321843452Y-135482200D01*
X321843452Y-135482200D02*
X321891071Y-135386961D01*
X321891071Y-135386961D02*
X321891071Y-135339342D01*
X321891071Y-135339342D02*
X321843452Y-135244104D01*
X321843452Y-135244104D02*
X321748214Y-135196485D01*
X321748214Y-135196485D02*
X321605357Y-135196485D01*
X321605357Y-135196485D02*
X321510119Y-135148866D01*
X321510119Y-135148866D02*
X321462500Y-135053628D01*
X321462500Y-135053628D02*
X321462500Y-135006009D01*
X321462500Y-135006009D02*
X321510119Y-134910771D01*
X321510119Y-134910771D02*
X321605357Y-134863152D01*
X321605357Y-134863152D02*
X321748214Y-134863152D01*
X321748214Y-134863152D02*
X321843452Y-134910771D01*
X322462500Y-135529819D02*
X322367262Y-135482200D01*
X322367262Y-135482200D02*
X322319643Y-135386961D01*
X322319643Y-135386961D02*
X322319643Y-134529819D01*
X323272024Y-135529819D02*
X323272024Y-135006009D01*
X323272024Y-135006009D02*
X323224405Y-134910771D01*
X323224405Y-134910771D02*
X323129167Y-134863152D01*
X323129167Y-134863152D02*
X322938691Y-134863152D01*
X322938691Y-134863152D02*
X322843453Y-134910771D01*
X323272024Y-135482200D02*
X323176786Y-135529819D01*
X323176786Y-135529819D02*
X322938691Y-135529819D01*
X322938691Y-135529819D02*
X322843453Y-135482200D01*
X322843453Y-135482200D02*
X322795834Y-135386961D01*
X322795834Y-135386961D02*
X322795834Y-135291723D01*
X322795834Y-135291723D02*
X322843453Y-135196485D01*
X322843453Y-135196485D02*
X322938691Y-135148866D01*
X322938691Y-135148866D02*
X323176786Y-135148866D01*
X323176786Y-135148866D02*
X323272024Y-135101247D01*
X323700596Y-135482200D02*
X323795834Y-135529819D01*
X323795834Y-135529819D02*
X323986310Y-135529819D01*
X323986310Y-135529819D02*
X324081548Y-135482200D01*
X324081548Y-135482200D02*
X324129167Y-135386961D01*
X324129167Y-135386961D02*
X324129167Y-135339342D01*
X324129167Y-135339342D02*
X324081548Y-135244104D01*
X324081548Y-135244104D02*
X323986310Y-135196485D01*
X323986310Y-135196485D02*
X323843453Y-135196485D01*
X323843453Y-135196485D02*
X323748215Y-135148866D01*
X323748215Y-135148866D02*
X323700596Y-135053628D01*
X323700596Y-135053628D02*
X323700596Y-135006009D01*
X323700596Y-135006009D02*
X323748215Y-134910771D01*
X323748215Y-134910771D02*
X323843453Y-134863152D01*
X323843453Y-134863152D02*
X323986310Y-134863152D01*
X323986310Y-134863152D02*
X324081548Y-134910771D01*
X324557739Y-135529819D02*
X324557739Y-134529819D01*
X324986310Y-135529819D02*
X324986310Y-135006009D01*
X324986310Y-135006009D02*
X324938691Y-134910771D01*
X324938691Y-134910771D02*
X324843453Y-134863152D01*
X324843453Y-134863152D02*
X324700596Y-134863152D01*
X324700596Y-134863152D02*
X324605358Y-134910771D01*
X324605358Y-134910771D02*
X324557739Y-134958390D01*
X322796130Y-206679819D02*
X322462797Y-206203628D01*
X322224702Y-206679819D02*
X322224702Y-205679819D01*
X322224702Y-205679819D02*
X322605654Y-205679819D01*
X322605654Y-205679819D02*
X322700892Y-205727438D01*
X322700892Y-205727438D02*
X322748511Y-205775057D01*
X322748511Y-205775057D02*
X322796130Y-205870295D01*
X322796130Y-205870295D02*
X322796130Y-206013152D01*
X322796130Y-206013152D02*
X322748511Y-206108390D01*
X322748511Y-206108390D02*
X322700892Y-206156009D01*
X322700892Y-206156009D02*
X322605654Y-206203628D01*
X322605654Y-206203628D02*
X322224702Y-206203628D01*
X323796130Y-206584580D02*
X323748511Y-206632200D01*
X323748511Y-206632200D02*
X323605654Y-206679819D01*
X323605654Y-206679819D02*
X323510416Y-206679819D01*
X323510416Y-206679819D02*
X323367559Y-206632200D01*
X323367559Y-206632200D02*
X323272321Y-206536961D01*
X323272321Y-206536961D02*
X323224702Y-206441723D01*
X323224702Y-206441723D02*
X323177083Y-206251247D01*
X323177083Y-206251247D02*
X323177083Y-206108390D01*
X323177083Y-206108390D02*
X323224702Y-205917914D01*
X323224702Y-205917914D02*
X323272321Y-205822676D01*
X323272321Y-205822676D02*
X323367559Y-205727438D01*
X323367559Y-205727438D02*
X323510416Y-205679819D01*
X323510416Y-205679819D02*
X323605654Y-205679819D01*
X323605654Y-205679819D02*
X323748511Y-205727438D01*
X323748511Y-205727438D02*
X323796130Y-205775057D01*
X324081845Y-206013152D02*
X324462797Y-206013152D01*
X324224702Y-205679819D02*
X324224702Y-206536961D01*
X324224702Y-206536961D02*
X324272321Y-206632200D01*
X324272321Y-206632200D02*
X324367559Y-206679819D01*
X324367559Y-206679819D02*
X324462797Y-206679819D01*
X324796131Y-206679819D02*
X324796131Y-206013152D01*
X324796131Y-206203628D02*
X324843750Y-206108390D01*
X324843750Y-206108390D02*
X324891369Y-206060771D01*
X324891369Y-206060771D02*
X324986607Y-206013152D01*
X324986607Y-206013152D02*
X325081845Y-206013152D01*
X325558036Y-206679819D02*
X325462798Y-206632200D01*
X325462798Y-206632200D02*
X325415179Y-206536961D01*
X325415179Y-206536961D02*
X325415179Y-205679819D01*
%TO.C,SW39*%
D11*
X257327500Y-155640000D02*
X271297500Y-155640000D01*
X257327500Y-169610000D02*
X257327500Y-155640000D01*
X271297500Y-155640000D02*
X271297500Y-169610000D01*
X271297500Y-169610000D02*
X257327500Y-169610000D01*
%TO.C,SW60*%
X293046300Y-193740000D02*
X307016300Y-193740000D01*
X293046300Y-207710000D02*
X293046300Y-193740000D01*
X307016300Y-193740000D02*
X307016300Y-207710000D01*
X307016300Y-207710000D02*
X293046300Y-207710000D01*
%TO.C,SW3*%
X90640000Y-117540000D02*
X104610000Y-117540000D01*
X90640000Y-131510000D02*
X90640000Y-117540000D01*
X104610000Y-117540000D02*
X104610000Y-131510000D01*
X104610000Y-131510000D02*
X90640000Y-131510000D01*
%TO.C,SW28*%
X314477500Y-136590000D02*
X328447500Y-136590000D01*
X314477500Y-150560000D02*
X314477500Y-136590000D01*
X328447500Y-136590000D02*
X328447500Y-150560000D01*
X328447500Y-150560000D02*
X314477500Y-150560000D01*
%TO.C,SW1*%
X52540000Y-117540000D02*
X66510000Y-117540000D01*
X52540000Y-131510000D02*
X52540000Y-117540000D01*
X66510000Y-117540000D02*
X66510000Y-131510000D01*
X66510000Y-131510000D02*
X52540000Y-131510000D01*
%TO.C,SW29*%
X59683800Y-155640000D02*
X73653800Y-155640000D01*
X59683800Y-169610000D02*
X59683800Y-155640000D01*
X73653800Y-155640000D02*
X73653800Y-169610000D01*
X73653800Y-169610000D02*
X59683800Y-169610000D01*
%TO.C,SW6*%
X147790000Y-117540000D02*
X161760000Y-117540000D01*
X147790000Y-131510000D02*
X147790000Y-117540000D01*
X161760000Y-117540000D02*
X161760000Y-131510000D01*
X161760000Y-131510000D02*
X147790000Y-131510000D01*
%TO.C,SW33*%
X143027500Y-155640000D02*
X156997500Y-155640000D01*
X143027500Y-169610000D02*
X143027500Y-155640000D01*
X156997500Y-155640000D02*
X156997500Y-169610000D01*
X156997500Y-169610000D02*
X143027500Y-169610000D01*
%TO.C,SW41*%
X307333800Y-155640000D02*
X321303800Y-155640000D01*
X307333800Y-169610000D02*
X307333800Y-155640000D01*
X321303800Y-155640000D02*
X321303800Y-169610000D01*
X321303800Y-169610000D02*
X307333800Y-169610000D01*
%TO.C,SW42*%
X64446300Y-174690000D02*
X78416300Y-174690000D01*
X64446300Y-188660000D02*
X64446300Y-174690000D01*
X78416300Y-174690000D02*
X78416300Y-188660000D01*
X78416300Y-188660000D02*
X64446300Y-188660000D01*
%TO.C,SW16*%
X81115000Y-136590000D02*
X95085000Y-136590000D01*
X95085000Y-136590000D02*
X95085000Y-150560000D01*
%TO.C,SW47*%
X171602500Y-174690000D02*
X185572500Y-174690000D01*
X171602500Y-188660000D02*
X171602500Y-174690000D01*
X185572500Y-174690000D02*
X185572500Y-188660000D01*
X185572500Y-188660000D02*
X171602500Y-188660000D01*
%TO.C,SW26*%
X271615000Y-136590000D02*
X285585000Y-136590000D01*
X271615000Y-150560000D02*
X271615000Y-136590000D01*
X285585000Y-136590000D02*
X285585000Y-150560000D01*
X285585000Y-150560000D02*
X271615000Y-150560000D01*
%TO.C,SW17*%
X100165000Y-136590000D02*
X114135000Y-136590000D01*
X100165000Y-150560000D02*
X100165000Y-136590000D01*
X114135000Y-136590000D02*
X114135000Y-150560000D01*
X114135000Y-150560000D02*
X100165000Y-150560000D01*
%TO.C,SW56*%
X102546300Y-193740000D02*
X116516300Y-193740000D01*
X102546300Y-207710000D02*
X102546300Y-193740000D01*
X116516300Y-193740000D02*
X116516300Y-207710000D01*
X116516300Y-207710000D02*
X102546300Y-207710000D01*
%TO.C,SW55*%
X78733800Y-193740000D02*
X92703800Y-193740000D01*
X78733800Y-207710000D02*
X78733800Y-193740000D01*
X92703800Y-193740000D02*
X92703800Y-207710000D01*
X92703800Y-207710000D02*
X78733800Y-207710000D01*
%TO.C,SW49*%
X209702500Y-174690000D02*
X223672500Y-174690000D01*
X209702500Y-188660000D02*
X209702500Y-174690000D01*
X223672500Y-174690000D02*
X223672500Y-188660000D01*
X223672500Y-188660000D02*
X209702500Y-188660000D01*
%TO.C,SW20*%
X157315000Y-136590000D02*
X171285000Y-136590000D01*
X157315000Y-150560000D02*
X157315000Y-136590000D01*
X171285000Y-136590000D02*
X171285000Y-150560000D01*
X171285000Y-150560000D02*
X157315000Y-150560000D01*
%TO.C,SW48*%
X190652500Y-174690000D02*
X204622500Y-174690000D01*
X190652500Y-188660000D02*
X190652500Y-174690000D01*
X204622500Y-174690000D02*
X204622500Y-188660000D01*
X204622500Y-188660000D02*
X190652500Y-188660000D01*
%TO.C,SW5*%
X128740000Y-117540000D02*
X142710000Y-117540000D01*
X128740000Y-131510000D02*
X128740000Y-117540000D01*
X142710000Y-117540000D02*
X142710000Y-131510000D01*
X142710000Y-131510000D02*
X128740000Y-131510000D01*
%TO.C,SW14*%
X309715000Y-117540000D02*
X323685000Y-117540000D01*
X309715000Y-131510000D02*
X309715000Y-117540000D01*
X323685000Y-117540000D02*
X323685000Y-131510000D01*
X323685000Y-131510000D02*
X309715000Y-131510000D01*
%TO.C,SW27*%
X290665000Y-136590000D02*
X304635000Y-136590000D01*
X290665000Y-150560000D02*
X290665000Y-136590000D01*
X304635000Y-136590000D02*
X304635000Y-150560000D01*
X304635000Y-150560000D02*
X290665000Y-150560000D01*
%TO.C,SW8*%
X185890000Y-117540000D02*
X199860000Y-117540000D01*
X185890000Y-131510000D02*
X185890000Y-117540000D01*
X199860000Y-117540000D02*
X199860000Y-131510000D01*
X199860000Y-131510000D02*
X185890000Y-131510000D01*
%TO.C,SW15*%
X57302500Y-136590000D02*
X71272500Y-136590000D01*
X57302500Y-150560000D02*
X57302500Y-136590000D01*
%TO.C,SW58*%
X245421300Y-193740000D02*
X259391300Y-193740000D01*
X245421300Y-207710000D02*
X245421300Y-193740000D01*
X259391300Y-193740000D02*
X259391300Y-207710000D01*
X259391300Y-207710000D02*
X245421300Y-207710000D01*
%TO.C,SW53*%
X302571300Y-174690000D02*
X316541300Y-174690000D01*
X302571300Y-188660000D02*
X302571300Y-174690000D01*
X316541300Y-174690000D02*
X316541300Y-188660000D01*
X316541300Y-188660000D02*
X302571300Y-188660000D01*
%TO.C,SW40*%
X276377500Y-155640000D02*
X290347500Y-155640000D01*
X276377500Y-169610000D02*
X276377500Y-155640000D01*
X290347500Y-155640000D02*
X290347500Y-169610000D01*
X290347500Y-169610000D02*
X276377500Y-169610000D01*
%TO.C,SW34*%
X162077500Y-155640000D02*
X176047500Y-155640000D01*
X162077500Y-169610000D02*
X162077500Y-155640000D01*
X176047500Y-155640000D02*
X176047500Y-169610000D01*
X176047500Y-169610000D02*
X162077500Y-169610000D01*
%TO.C,SW13*%
X281140000Y-117540000D02*
X295110000Y-117540000D01*
X281140000Y-131510000D02*
X281140000Y-117540000D01*
X295110000Y-117540000D02*
X295110000Y-131510000D01*
X295110000Y-131510000D02*
X281140000Y-131510000D01*
%TO.C,SW7*%
X166840000Y-117540000D02*
X180810000Y-117540000D01*
X166840000Y-131510000D02*
X166840000Y-117540000D01*
X180810000Y-117540000D02*
X180810000Y-131510000D01*
X180810000Y-131510000D02*
X166840000Y-131510000D01*
%TO.C,SW54*%
X54921300Y-193740000D02*
X68891300Y-193740000D01*
X54921300Y-207710000D02*
X54921300Y-193740000D01*
X68891300Y-193740000D02*
X68891300Y-207710000D01*
X68891300Y-207710000D02*
X54921300Y-207710000D01*
%TO.C,SW45*%
X133502500Y-174690000D02*
X147472500Y-174690000D01*
X133502500Y-188660000D02*
X133502500Y-174690000D01*
X147472500Y-174690000D02*
X147472500Y-188660000D01*
X147472500Y-188660000D02*
X133502500Y-188660000D01*
%TO.C,SW51*%
X247802500Y-174690000D02*
X261772500Y-174690000D01*
X247802500Y-188660000D02*
X247802500Y-174690000D01*
X261772500Y-174690000D02*
X261772500Y-188660000D01*
X261772500Y-188660000D02*
X247802500Y-188660000D01*
%TO.C,SW44*%
X114452500Y-174690000D02*
X128422500Y-174690000D01*
X114452500Y-188660000D02*
X114452500Y-174690000D01*
X128422500Y-174690000D02*
X128422500Y-188660000D01*
X128422500Y-188660000D02*
X114452500Y-188660000D01*
%TO.C,SW46*%
X152552500Y-174690000D02*
X166522500Y-174690000D01*
X152552500Y-188660000D02*
X152552500Y-174690000D01*
X166522500Y-174690000D02*
X166522500Y-188660000D01*
X166522500Y-188660000D02*
X152552500Y-188660000D01*
%TO.C,SW61*%
X316858800Y-193740000D02*
X330828800Y-193740000D01*
X316858800Y-207710000D02*
X316858800Y-193740000D01*
X330828800Y-193740000D02*
X330828800Y-207710000D01*
X330828800Y-207710000D02*
X316858800Y-207710000D01*
%TO.C,SW23*%
X214465000Y-136590000D02*
X228435000Y-136590000D01*
X214465000Y-150560000D02*
X214465000Y-136590000D01*
X228435000Y-136590000D02*
X228435000Y-150560000D01*
X228435000Y-150560000D02*
X214465000Y-150560000D01*
%TO.C,SW21*%
X176365000Y-136590000D02*
X190335000Y-136590000D01*
X176365000Y-150560000D02*
X176365000Y-136590000D01*
X190335000Y-136590000D02*
X190335000Y-150560000D01*
X190335000Y-150560000D02*
X176365000Y-150560000D01*
%TO.C,SW24*%
X233515000Y-136590000D02*
X247485000Y-136590000D01*
X233515000Y-150560000D02*
X233515000Y-136590000D01*
X247485000Y-136590000D02*
X247485000Y-150560000D01*
X247485000Y-150560000D02*
X233515000Y-150560000D01*
%TO.C,SW4*%
X109690000Y-117540000D02*
X123660000Y-117540000D01*
X109690000Y-131510000D02*
X109690000Y-117540000D01*
X123660000Y-117540000D02*
X123660000Y-131510000D01*
X123660000Y-131510000D02*
X109690000Y-131510000D01*
%TO.C,SW12*%
X262090000Y-117540000D02*
X276060000Y-117540000D01*
X262090000Y-131510000D02*
X262090000Y-117540000D01*
X276060000Y-117540000D02*
X276060000Y-131510000D01*
X276060000Y-131510000D02*
X262090000Y-131510000D01*
%TO.C,SW11*%
X243040000Y-117540000D02*
X257010000Y-117540000D01*
X243040000Y-131510000D02*
X243040000Y-117540000D01*
X257010000Y-117540000D02*
X257010000Y-131510000D01*
X257010000Y-131510000D02*
X243040000Y-131510000D01*
%TO.C,SW35*%
X181127500Y-155640000D02*
X195097500Y-155640000D01*
X181127500Y-169610000D02*
X181127500Y-155640000D01*
X195097500Y-155640000D02*
X195097500Y-169610000D01*
X195097500Y-169610000D02*
X181127500Y-169610000D01*
%TO.C,SW19*%
X138265000Y-136590000D02*
X152235000Y-136590000D01*
X138265000Y-150560000D02*
X138265000Y-136590000D01*
X152235000Y-136590000D02*
X152235000Y-150560000D01*
X152235000Y-150560000D02*
X138265000Y-150560000D01*
%TO.C,SW57*%
X173983800Y-193740000D02*
X187953800Y-193740000D01*
X173983800Y-207710000D02*
X173983800Y-193740000D01*
X187953800Y-193740000D02*
X187953800Y-207710000D01*
X187953800Y-207710000D02*
X173983800Y-207710000D01*
%TO.C,SW30*%
X85877500Y-155640000D02*
X99847500Y-155640000D01*
X85877500Y-169610000D02*
X85877500Y-155640000D01*
X99847500Y-155640000D02*
X99847500Y-169610000D01*
X99847500Y-169610000D02*
X85877500Y-169610000D01*
%TO.C,SW32*%
X123977500Y-155640000D02*
X137947500Y-155640000D01*
X123977500Y-169610000D02*
X123977500Y-155640000D01*
X137947500Y-155640000D02*
X137947500Y-169610000D01*
X137947500Y-169610000D02*
X123977500Y-169610000D01*
%TO.C,SW59*%
X269233800Y-193740000D02*
X283203800Y-193740000D01*
X269233800Y-207710000D02*
X269233800Y-193740000D01*
X283203800Y-193740000D02*
X283203800Y-207710000D01*
X283203800Y-207710000D02*
X269233800Y-207710000D01*
%TO.C,SW38*%
X238277500Y-155640000D02*
X252247500Y-155640000D01*
X238277500Y-169610000D02*
X238277500Y-155640000D01*
X252247500Y-155640000D02*
X252247500Y-169610000D01*
X252247500Y-169610000D02*
X238277500Y-169610000D01*
%TO.C,SW9*%
X204940000Y-117540000D02*
X218910000Y-117540000D01*
X204940000Y-131510000D02*
X204940000Y-117540000D01*
X218910000Y-117540000D02*
X218910000Y-131510000D01*
X218910000Y-131510000D02*
X204940000Y-131510000D01*
%TO.C,SW10*%
X223990000Y-117540000D02*
X237960000Y-117540000D01*
X223990000Y-131510000D02*
X223990000Y-117540000D01*
X237960000Y-117540000D02*
X237960000Y-131510000D01*
X237960000Y-131510000D02*
X223990000Y-131510000D01*
%TO.C,SW50*%
X228752500Y-174690000D02*
X242722500Y-174690000D01*
X228752500Y-188660000D02*
X228752500Y-174690000D01*
X242722500Y-174690000D02*
X242722500Y-188660000D01*
X242722500Y-188660000D02*
X228752500Y-188660000D01*
%TO.C,SW31*%
X104927500Y-155640000D02*
X118897500Y-155640000D01*
X104927500Y-169610000D02*
X104927500Y-155640000D01*
X118897500Y-155640000D02*
X118897500Y-169610000D01*
X118897500Y-169610000D02*
X104927500Y-169610000D01*
%TO.C,SW52*%
X266852500Y-174690000D02*
X280822500Y-174690000D01*
X266852500Y-188660000D02*
X266852500Y-174690000D01*
X280822500Y-174690000D02*
X280822500Y-188660000D01*
X280822500Y-188660000D02*
X266852500Y-188660000D01*
%TO.C,SW2*%
X71590000Y-117540000D02*
X85560000Y-117540000D01*
X71590000Y-131510000D02*
X71590000Y-117540000D01*
X85560000Y-117540000D02*
X85560000Y-131510000D01*
X85560000Y-131510000D02*
X71590000Y-131510000D01*
%TO.C,SW25*%
X252565000Y-136590000D02*
X266535000Y-136590000D01*
X252565000Y-150560000D02*
X252565000Y-136590000D01*
X266535000Y-136590000D02*
X266535000Y-150560000D01*
X266535000Y-150560000D02*
X252565000Y-150560000D01*
%TO.C,SW22*%
X195415000Y-136590000D02*
X209385000Y-136590000D01*
X195415000Y-150560000D02*
X195415000Y-136590000D01*
X209385000Y-136590000D02*
X209385000Y-150560000D01*
X209385000Y-150560000D02*
X195415000Y-150560000D01*
%TO.C,SW37*%
X219227500Y-155640000D02*
X233197500Y-155640000D01*
X219227500Y-169610000D02*
X219227500Y-155640000D01*
X233197500Y-155640000D02*
X233197500Y-169610000D01*
X233197500Y-169610000D02*
X219227500Y-169610000D01*
%TO.C,SW18*%
X119215000Y-136590000D02*
X133185000Y-136590000D01*
X119215000Y-150560000D02*
X119215000Y-136590000D01*
X133185000Y-136590000D02*
X133185000Y-150560000D01*
X133185000Y-150560000D02*
X119215000Y-150560000D01*
%TO.C,SW43*%
X95402500Y-174690000D02*
X109372500Y-174690000D01*
X95402500Y-188660000D02*
X95402500Y-174690000D01*
X109372500Y-174690000D02*
X109372500Y-188660000D01*
X109372500Y-188660000D02*
X95402500Y-188660000D01*
%TO.C,SW36*%
X200177500Y-155640000D02*
X214147500Y-155640000D01*
X200177500Y-169610000D02*
X200177500Y-155640000D01*
X214147500Y-155640000D02*
X214147500Y-169610000D01*
X214147500Y-169610000D02*
X200177500Y-169610000D01*
%TD*%
%LPC*%
D12*
%TO.C,H4*%
X336000000Y-209000000D03*
%TD*%
D13*
%TO.C,SW39*%
X259232500Y-162625000D03*
D14*
X264312500Y-162625000D03*
D13*
X269392500Y-162625000D03*
D15*
X266852500Y-157545000D03*
X260502500Y-160085000D03*
%TD*%
D13*
%TO.C,SW60*%
X294951300Y-200725000D03*
D14*
X300031300Y-200725000D03*
D13*
X305111300Y-200725000D03*
D15*
X302571300Y-195645000D03*
X296221300Y-198185000D03*
%TD*%
D13*
%TO.C,SW3*%
X92545000Y-124525000D03*
D14*
X97625000Y-124525000D03*
D13*
X102705000Y-124525000D03*
D15*
X100165000Y-119445000D03*
X93815000Y-121985000D03*
%TD*%
D13*
%TO.C,SW28*%
X316382500Y-143575000D03*
D14*
X321462500Y-143575000D03*
D13*
X326542500Y-143575000D03*
D15*
X324002500Y-138495000D03*
X317652500Y-141035000D03*
%TD*%
D13*
%TO.C,SW1*%
X54445000Y-124525000D03*
D14*
X59525000Y-124525000D03*
D13*
X64605000Y-124525000D03*
D15*
X62065000Y-119445000D03*
X55715000Y-121985000D03*
%TD*%
D13*
%TO.C,SW29*%
X61588800Y-162625000D03*
D14*
X66668800Y-162625000D03*
D13*
X71748800Y-162625000D03*
D15*
X69208800Y-157545000D03*
X62858800Y-160085000D03*
%TD*%
D13*
%TO.C,SW6*%
X149695000Y-124525000D03*
D14*
X154775000Y-124525000D03*
D13*
X159855000Y-124525000D03*
D15*
X157315000Y-119445000D03*
X150965000Y-121985000D03*
%TD*%
D13*
%TO.C,SW33*%
X144932500Y-162625000D03*
D14*
X150012500Y-162625000D03*
D13*
X155092500Y-162625000D03*
D15*
X152552500Y-157545000D03*
X146202500Y-160085000D03*
%TD*%
D16*
%TO.C,SW41*%
X302418800Y-155625000D03*
D14*
X302418800Y-170865000D03*
D13*
X309238800Y-162625000D03*
D14*
X314318800Y-162625000D03*
D13*
X319398800Y-162625000D03*
D16*
X326218800Y-155625000D03*
D14*
X326218800Y-170865000D03*
D15*
X316858800Y-157545000D03*
X310508800Y-160085000D03*
%TD*%
D16*
%TO.C,SW42*%
X59531300Y-174675000D03*
D14*
X59531300Y-189915000D03*
D13*
X66351300Y-181675000D03*
D14*
X71431300Y-181675000D03*
D13*
X76511300Y-181675000D03*
D16*
X83331300Y-174675000D03*
D14*
X83331300Y-189915000D03*
D15*
X73971300Y-176595000D03*
X67621300Y-179135000D03*
%TD*%
D13*
%TO.C,SW16*%
X83020000Y-143575000D03*
D14*
X88100000Y-143575000D03*
D13*
X93180000Y-143575000D03*
D15*
X90640000Y-138495000D03*
X84290000Y-141035000D03*
%TD*%
D13*
%TO.C,SW47*%
X173507500Y-181675000D03*
D14*
X178587500Y-181675000D03*
D13*
X183667500Y-181675000D03*
D15*
X181127500Y-176595000D03*
X174777500Y-179135000D03*
%TD*%
D13*
%TO.C,SW26*%
X273520000Y-143575000D03*
D14*
X278600000Y-143575000D03*
D13*
X283680000Y-143575000D03*
D15*
X281140000Y-138495000D03*
X274790000Y-141035000D03*
%TD*%
D13*
%TO.C,SW17*%
X102070000Y-143575000D03*
D14*
X107150000Y-143575000D03*
D13*
X112230000Y-143575000D03*
D15*
X109690000Y-138495000D03*
X103340000Y-141035000D03*
%TD*%
D13*
%TO.C,SW56*%
X104451300Y-200725000D03*
D14*
X109531300Y-200725000D03*
D13*
X114611300Y-200725000D03*
D15*
X112071300Y-195645000D03*
X105721300Y-198185000D03*
%TD*%
D13*
%TO.C,SW55*%
X80638800Y-200725000D03*
D14*
X85718800Y-200725000D03*
D13*
X90798800Y-200725000D03*
D15*
X88258800Y-195645000D03*
X81908800Y-198185000D03*
%TD*%
D13*
%TO.C,SW49*%
X211607500Y-181675000D03*
D14*
X216687500Y-181675000D03*
D13*
X221767500Y-181675000D03*
D15*
X219227500Y-176595000D03*
X212877500Y-179135000D03*
%TD*%
D13*
%TO.C,SW20*%
X159220000Y-143575000D03*
D14*
X164300000Y-143575000D03*
D13*
X169380000Y-143575000D03*
D15*
X166840000Y-138495000D03*
X160490000Y-141035000D03*
%TD*%
D13*
%TO.C,SW48*%
X192557500Y-181675000D03*
D14*
X197637500Y-181675000D03*
D13*
X202717500Y-181675000D03*
D15*
X200177500Y-176595000D03*
X193827500Y-179135000D03*
%TD*%
D13*
%TO.C,SW5*%
X130645000Y-124525000D03*
D14*
X135725000Y-124525000D03*
D13*
X140805000Y-124525000D03*
D15*
X138265000Y-119445000D03*
X131915000Y-121985000D03*
%TD*%
D16*
%TO.C,SW14*%
X304800000Y-117525000D03*
D14*
X304800000Y-132765000D03*
D13*
X311620000Y-124525000D03*
D14*
X316700000Y-124525000D03*
D13*
X321780000Y-124525000D03*
D16*
X328600000Y-117525000D03*
D14*
X328600000Y-132765000D03*
D15*
X319240000Y-119445000D03*
X312890000Y-121985000D03*
%TD*%
D13*
%TO.C,SW27*%
X292570000Y-143575000D03*
D14*
X297650000Y-143575000D03*
D13*
X302730000Y-143575000D03*
D15*
X300190000Y-138495000D03*
X293840000Y-141035000D03*
%TD*%
D13*
%TO.C,SW8*%
X187795000Y-124525000D03*
D14*
X192875000Y-124525000D03*
D13*
X197955000Y-124525000D03*
D15*
X195415000Y-119445000D03*
X189065000Y-121985000D03*
%TD*%
D13*
%TO.C,SW15*%
X59207500Y-143575000D03*
D14*
X64287500Y-143575000D03*
D13*
X69367500Y-143575000D03*
D15*
X66827500Y-138495000D03*
X60477500Y-141035000D03*
%TD*%
D12*
%TO.C,H2*%
X336000000Y-117000000D03*
%TD*%
D13*
%TO.C,SW58*%
X247326300Y-200725000D03*
D14*
X252406300Y-200725000D03*
D13*
X257486300Y-200725000D03*
D15*
X254946300Y-195645000D03*
X248596300Y-198185000D03*
%TD*%
D16*
%TO.C,SW53*%
X297656300Y-174675000D03*
D14*
X297656300Y-189915000D03*
D13*
X304476300Y-181675000D03*
D14*
X309556300Y-181675000D03*
D13*
X314636300Y-181675000D03*
D16*
X321456300Y-174675000D03*
D14*
X321456300Y-189915000D03*
D15*
X312096300Y-176595000D03*
X305746300Y-179135000D03*
%TD*%
D13*
%TO.C,SW40*%
X278282500Y-162625000D03*
D14*
X283362500Y-162625000D03*
D13*
X288442500Y-162625000D03*
D15*
X285902500Y-157545000D03*
X279552500Y-160085000D03*
%TD*%
D13*
%TO.C,SW34*%
X163982500Y-162625000D03*
D14*
X169062500Y-162625000D03*
D13*
X174142500Y-162625000D03*
D15*
X171602500Y-157545000D03*
X165252500Y-160085000D03*
%TD*%
D13*
%TO.C,SW13*%
X283045000Y-124525000D03*
D14*
X288125000Y-124525000D03*
D13*
X293205000Y-124525000D03*
D15*
X290665000Y-119445000D03*
X284315000Y-121985000D03*
%TD*%
D13*
%TO.C,SW7*%
X168745000Y-124525000D03*
D14*
X173825000Y-124525000D03*
D13*
X178905000Y-124525000D03*
D15*
X176365000Y-119445000D03*
X170015000Y-121985000D03*
%TD*%
D13*
%TO.C,SW54*%
X56826300Y-200725000D03*
D14*
X61906300Y-200725000D03*
D13*
X66986300Y-200725000D03*
D15*
X64446300Y-195645000D03*
X58096300Y-198185000D03*
%TD*%
D13*
%TO.C,SW45*%
X135407500Y-181675000D03*
D14*
X140487500Y-181675000D03*
D13*
X145567500Y-181675000D03*
D15*
X143027500Y-176595000D03*
X136677500Y-179135000D03*
%TD*%
D13*
%TO.C,SW51*%
X249707500Y-181675000D03*
D14*
X254787500Y-181675000D03*
D13*
X259867500Y-181675000D03*
D15*
X257327500Y-176595000D03*
X250977500Y-179135000D03*
%TD*%
D13*
%TO.C,SW44*%
X116357500Y-181675000D03*
D14*
X121437500Y-181675000D03*
D13*
X126517500Y-181675000D03*
D15*
X123977500Y-176595000D03*
X117627500Y-179135000D03*
%TD*%
D13*
%TO.C,SW46*%
X154457500Y-181675000D03*
D14*
X159537500Y-181675000D03*
D13*
X164617500Y-181675000D03*
D15*
X162077500Y-176595000D03*
X155727500Y-179135000D03*
%TD*%
D13*
%TO.C,SW61*%
X318763800Y-200725000D03*
D14*
X323843800Y-200725000D03*
D13*
X328923800Y-200725000D03*
D15*
X326383800Y-195645000D03*
X320033800Y-198185000D03*
%TD*%
D13*
%TO.C,SW23*%
X216370000Y-143575000D03*
D14*
X221450000Y-143575000D03*
D13*
X226530000Y-143575000D03*
D15*
X223990000Y-138495000D03*
X217640000Y-141035000D03*
%TD*%
D13*
%TO.C,SW21*%
X178270000Y-143575000D03*
D14*
X183350000Y-143575000D03*
D13*
X188430000Y-143575000D03*
D15*
X185890000Y-138495000D03*
X179540000Y-141035000D03*
%TD*%
D13*
%TO.C,SW24*%
X235420000Y-143575000D03*
D14*
X240500000Y-143575000D03*
D13*
X245580000Y-143575000D03*
D15*
X243040000Y-138495000D03*
X236690000Y-141035000D03*
%TD*%
D13*
%TO.C,SW4*%
X111595000Y-124525000D03*
D14*
X116675000Y-124525000D03*
D13*
X121755000Y-124525000D03*
D15*
X119215000Y-119445000D03*
X112865000Y-121985000D03*
%TD*%
D13*
%TO.C,SW12*%
X263995000Y-124525000D03*
D14*
X269075000Y-124525000D03*
D13*
X274155000Y-124525000D03*
D15*
X271615000Y-119445000D03*
X265265000Y-121985000D03*
%TD*%
D13*
%TO.C,SW11*%
X244945000Y-124525000D03*
D14*
X250025000Y-124525000D03*
D13*
X255105000Y-124525000D03*
D15*
X252565000Y-119445000D03*
X246215000Y-121985000D03*
%TD*%
D13*
%TO.C,SW35*%
X183032500Y-162625000D03*
D14*
X188112500Y-162625000D03*
D13*
X193192500Y-162625000D03*
D15*
X190652500Y-157545000D03*
X184302500Y-160085000D03*
%TD*%
D13*
%TO.C,SW19*%
X140170000Y-143575000D03*
D14*
X145250000Y-143575000D03*
D13*
X150330000Y-143575000D03*
D15*
X147790000Y-138495000D03*
X141440000Y-141035000D03*
%TD*%
D16*
%TO.C,SW57*%
X130968800Y-193725000D03*
D14*
X130968800Y-208965000D03*
D13*
X175888800Y-200725000D03*
D14*
X180968800Y-200725000D03*
D13*
X186048800Y-200725000D03*
D16*
X230968800Y-193725000D03*
D14*
X230968800Y-208965000D03*
D15*
X183508800Y-195645000D03*
X177158800Y-198185000D03*
%TD*%
D12*
%TO.C,H1*%
X49000000Y-117000000D03*
%TD*%
D13*
%TO.C,SW30*%
X87782500Y-162625000D03*
D14*
X92862500Y-162625000D03*
D13*
X97942500Y-162625000D03*
D15*
X95402500Y-157545000D03*
X89052500Y-160085000D03*
%TD*%
D13*
%TO.C,SW32*%
X125882500Y-162625000D03*
D14*
X130962500Y-162625000D03*
D13*
X136042500Y-162625000D03*
D15*
X133502500Y-157545000D03*
X127152500Y-160085000D03*
%TD*%
D12*
%TO.C,H3*%
X49000000Y-209000000D03*
%TD*%
D13*
%TO.C,SW59*%
X271138800Y-200725000D03*
D14*
X276218800Y-200725000D03*
D13*
X281298800Y-200725000D03*
D15*
X278758800Y-195645000D03*
X272408800Y-198185000D03*
%TD*%
D13*
%TO.C,SW38*%
X240182500Y-162625000D03*
D14*
X245262500Y-162625000D03*
D13*
X250342500Y-162625000D03*
D15*
X247802500Y-157545000D03*
X241452500Y-160085000D03*
%TD*%
D13*
%TO.C,SW9*%
X206845000Y-124525000D03*
D14*
X211925000Y-124525000D03*
D13*
X217005000Y-124525000D03*
D15*
X214465000Y-119445000D03*
X208115000Y-121985000D03*
%TD*%
D13*
%TO.C,SW10*%
X225895000Y-124525000D03*
D14*
X230975000Y-124525000D03*
D13*
X236055000Y-124525000D03*
D15*
X233515000Y-119445000D03*
X227165000Y-121985000D03*
%TD*%
D13*
%TO.C,SW50*%
X230657500Y-181675000D03*
D14*
X235737500Y-181675000D03*
D13*
X240817500Y-181675000D03*
D15*
X238277500Y-176595000D03*
X231927500Y-179135000D03*
%TD*%
D13*
%TO.C,SW31*%
X106832500Y-162625000D03*
D14*
X111912500Y-162625000D03*
D13*
X116992500Y-162625000D03*
D15*
X114452500Y-157545000D03*
X108102500Y-160085000D03*
%TD*%
D13*
%TO.C,SW52*%
X268757500Y-181675000D03*
D14*
X273837500Y-181675000D03*
D13*
X278917500Y-181675000D03*
D15*
X276377500Y-176595000D03*
X270027500Y-179135000D03*
%TD*%
D13*
%TO.C,SW2*%
X73495000Y-124525000D03*
D14*
X78575000Y-124525000D03*
D13*
X83655000Y-124525000D03*
D15*
X81115000Y-119445000D03*
X74765000Y-121985000D03*
%TD*%
D13*
%TO.C,SW25*%
X254470000Y-143575000D03*
D14*
X259550000Y-143575000D03*
D13*
X264630000Y-143575000D03*
D15*
X262090000Y-138495000D03*
X255740000Y-141035000D03*
%TD*%
D13*
%TO.C,SW22*%
X197320000Y-143575000D03*
D14*
X202400000Y-143575000D03*
D13*
X207480000Y-143575000D03*
D15*
X204940000Y-138495000D03*
X198590000Y-141035000D03*
%TD*%
D13*
%TO.C,SW37*%
X221132500Y-162625000D03*
D14*
X226212500Y-162625000D03*
D13*
X231292500Y-162625000D03*
D15*
X228752500Y-157545000D03*
X222402500Y-160085000D03*
%TD*%
D13*
%TO.C,SW18*%
X121120000Y-143575000D03*
D14*
X126200000Y-143575000D03*
D13*
X131280000Y-143575000D03*
D15*
X128740000Y-138495000D03*
X122390000Y-141035000D03*
%TD*%
D13*
%TO.C,SW43*%
X97307500Y-181675000D03*
D14*
X102387500Y-181675000D03*
D13*
X107467500Y-181675000D03*
D15*
X104927500Y-176595000D03*
X98577500Y-179135000D03*
%TD*%
D13*
%TO.C,SW36*%
X202082500Y-162625000D03*
D14*
X207162500Y-162625000D03*
D13*
X212242500Y-162625000D03*
D15*
X209702500Y-157545000D03*
X203352500Y-160085000D03*
%TD*%
D17*
%TO.C,D6*%
X158585000Y-133025000D03*
D18*
X150965000Y-133025000D03*
%TD*%
D17*
%TO.C,D13*%
X291935000Y-133025000D03*
D18*
X284315000Y-133025000D03*
%TD*%
D19*
%TO.C,U1*%
X96560000Y-151180000D03*
D18*
X94020000Y-151180000D03*
D20*
X91480000Y-151180000D03*
D18*
X88940000Y-151180000D03*
X86400000Y-151180000D03*
X83860000Y-151180000D03*
X81320000Y-151180000D03*
D20*
X78780000Y-151180000D03*
D18*
X76240000Y-151180000D03*
X73700000Y-151180000D03*
X71160000Y-151180000D03*
X68620000Y-151180000D03*
D20*
X66080000Y-151180000D03*
D18*
X63540000Y-151180000D03*
X61000000Y-151180000D03*
X58460000Y-151180000D03*
X55920000Y-151180000D03*
D20*
X53380000Y-151180000D03*
D18*
X50840000Y-151180000D03*
X48300000Y-151180000D03*
X48300000Y-133400000D03*
X50840000Y-133400000D03*
D21*
X53380000Y-133400000D03*
D18*
X55920000Y-133400000D03*
X58460000Y-133400000D03*
X61000000Y-133400000D03*
X63540000Y-133400000D03*
D21*
X66080000Y-133400000D03*
D18*
X68620000Y-133400000D03*
X71160000Y-133400000D03*
X73700000Y-133400000D03*
X76240000Y-133400000D03*
D21*
X78780000Y-133400000D03*
D18*
X81320000Y-133400000D03*
X83860000Y-133400000D03*
X86400000Y-133400000D03*
X88940000Y-133400000D03*
D21*
X91480000Y-133400000D03*
D18*
X94020000Y-133400000D03*
X96560000Y-133400000D03*
%TD*%
D17*
%TO.C,D55*%
X89528800Y-209225000D03*
D18*
X81908800Y-209225000D03*
%TD*%
D17*
%TO.C,D2*%
X155000000Y-211500000D03*
D18*
X147380000Y-211500000D03*
%TD*%
D17*
%TO.C,D24*%
X244310000Y-152075000D03*
D18*
X236690000Y-152075000D03*
%TD*%
D17*
%TO.C,D30*%
X96672500Y-171125000D03*
D18*
X89052500Y-171125000D03*
%TD*%
D17*
%TO.C,D5*%
X139535000Y-133025000D03*
D18*
X131915000Y-133025000D03*
%TD*%
D17*
%TO.C,D57*%
X184778800Y-209225000D03*
D18*
X177158800Y-209225000D03*
%TD*%
D17*
%TO.C,D9*%
X215735000Y-133025000D03*
D18*
X208115000Y-133025000D03*
%TD*%
D17*
%TO.C,D56*%
X113341300Y-209225000D03*
D18*
X105721300Y-209225000D03*
%TD*%
D17*
%TO.C,D53*%
X313366300Y-190175000D03*
D18*
X305746300Y-190175000D03*
%TD*%
D17*
%TO.C,D61*%
X327653800Y-209225000D03*
D18*
X320033800Y-209225000D03*
%TD*%
D17*
%TO.C,D11*%
X253835000Y-133025000D03*
D18*
X246215000Y-133025000D03*
%TD*%
D17*
%TO.C,D60*%
X303841300Y-209225000D03*
D18*
X296221300Y-209225000D03*
%TD*%
D17*
%TO.C,D35*%
X191922500Y-171125000D03*
D18*
X184302500Y-171125000D03*
%TD*%
D17*
%TO.C,D51*%
X258597500Y-190175000D03*
D18*
X250977500Y-190175000D03*
%TD*%
D17*
%TO.C,D28*%
X325272500Y-152075000D03*
D18*
X317652500Y-152075000D03*
%TD*%
D17*
%TO.C,D17*%
X226000000Y-211500000D03*
D18*
X218380000Y-211500000D03*
%TD*%
D17*
%TO.C,D33*%
X153822500Y-171125000D03*
D18*
X146202500Y-171125000D03*
%TD*%
D17*
%TO.C,D39*%
X268122500Y-171125000D03*
D18*
X260502500Y-171125000D03*
%TD*%
D17*
%TO.C,D18*%
X130010000Y-152075000D03*
D18*
X122390000Y-152075000D03*
%TD*%
D17*
%TO.C,D46*%
X163347500Y-190175000D03*
D18*
X155727500Y-190175000D03*
%TD*%
D17*
%TO.C,D58*%
X256216300Y-209225000D03*
D18*
X248596300Y-209225000D03*
%TD*%
D17*
%TO.C,D41*%
X318128800Y-171125000D03*
D18*
X310508800Y-171125000D03*
%TD*%
D17*
%TO.C,D15*%
X200000000Y-211500000D03*
D18*
X192380000Y-211500000D03*
%TD*%
D17*
%TO.C,D54*%
X65716300Y-209225000D03*
D18*
X58096300Y-209225000D03*
%TD*%
D17*
%TO.C,D8*%
X196685000Y-133025000D03*
D18*
X189065000Y-133025000D03*
%TD*%
D17*
%TO.C,D4*%
X120485000Y-133025000D03*
D18*
X112865000Y-133025000D03*
%TD*%
D17*
%TO.C,D23*%
X225260000Y-152075000D03*
D18*
X217640000Y-152075000D03*
%TD*%
D17*
%TO.C,D12*%
X272885000Y-133025000D03*
D18*
X265265000Y-133025000D03*
%TD*%
D17*
%TO.C,D36*%
X210972500Y-171125000D03*
D18*
X203352500Y-171125000D03*
%TD*%
D17*
%TO.C,D38*%
X249072500Y-171125000D03*
D18*
X241452500Y-171125000D03*
%TD*%
D17*
%TO.C,D22*%
X206210000Y-152075000D03*
D18*
X198590000Y-152075000D03*
%TD*%
D17*
%TO.C,D47*%
X182397500Y-190175000D03*
D18*
X174777500Y-190175000D03*
%TD*%
D17*
%TO.C,D44*%
X125247500Y-190175000D03*
D18*
X117627500Y-190175000D03*
%TD*%
D17*
%TO.C,D50*%
X239547500Y-190175000D03*
D18*
X231927500Y-190175000D03*
%TD*%
D17*
%TO.C,D40*%
X287172500Y-171125000D03*
D18*
X279552500Y-171125000D03*
%TD*%
D17*
%TO.C,D26*%
X282410000Y-152075000D03*
D18*
X274790000Y-152075000D03*
%TD*%
D17*
%TO.C,D37*%
X230022500Y-171125000D03*
D18*
X222402500Y-171125000D03*
%TD*%
D17*
%TO.C,D10*%
X234785000Y-133025000D03*
D18*
X227165000Y-133025000D03*
%TD*%
D17*
%TO.C,D45*%
X144297500Y-190175000D03*
D18*
X136677500Y-190175000D03*
%TD*%
D17*
%TO.C,D42*%
X75241300Y-190175000D03*
D18*
X67621300Y-190175000D03*
%TD*%
D17*
%TO.C,D43*%
X106197500Y-190175000D03*
D18*
X98577500Y-190175000D03*
%TD*%
D17*
%TO.C,D34*%
X172872500Y-171125000D03*
D18*
X165252500Y-171125000D03*
%TD*%
D17*
%TO.C,D49*%
X220497500Y-190175000D03*
D18*
X212877500Y-190175000D03*
%TD*%
D17*
%TO.C,D48*%
X201447500Y-190175000D03*
D18*
X193827500Y-190175000D03*
%TD*%
D17*
%TO.C,D16*%
X213000000Y-211500000D03*
D18*
X205380000Y-211500000D03*
%TD*%
D17*
%TO.C,D3*%
X168000000Y-211500000D03*
D18*
X160380000Y-211500000D03*
%TD*%
D22*
%TO.C,SW62*%
X335000000Y-180000000D03*
X328500000Y-180000000D03*
X335000000Y-184500000D03*
X328500000Y-184500000D03*
%TD*%
D17*
%TO.C,D20*%
X168110000Y-152075000D03*
D18*
X160490000Y-152075000D03*
%TD*%
D17*
%TO.C,D32*%
X134772500Y-171125000D03*
D18*
X127152500Y-171125000D03*
%TD*%
D17*
%TO.C,D29*%
X70478800Y-171125000D03*
D18*
X62858800Y-171125000D03*
%TD*%
D17*
%TO.C,D25*%
X263360000Y-152075000D03*
D18*
X255740000Y-152075000D03*
%TD*%
D17*
%TO.C,D19*%
X149060000Y-152075000D03*
D18*
X141440000Y-152075000D03*
%TD*%
D17*
%TO.C,D1*%
X142000000Y-211500000D03*
D18*
X134380000Y-211500000D03*
%TD*%
D17*
%TO.C,D21*%
X187160000Y-152075000D03*
D18*
X179540000Y-152075000D03*
%TD*%
D17*
%TO.C,D14*%
X320510000Y-133025000D03*
D18*
X312890000Y-133025000D03*
%TD*%
D17*
%TO.C,D27*%
X301460000Y-152075000D03*
D18*
X293840000Y-152075000D03*
%TD*%
D17*
%TO.C,D59*%
X280028800Y-209225000D03*
D18*
X272408800Y-209225000D03*
%TD*%
D17*
%TO.C,D7*%
X177635000Y-133025000D03*
D18*
X170015000Y-133025000D03*
%TD*%
D17*
%TO.C,D31*%
X115722500Y-171125000D03*
D18*
X108102500Y-171125000D03*
%TD*%
D17*
%TO.C,D52*%
X277647500Y-190175000D03*
D18*
X270027500Y-190175000D03*
%TD*%
%LPD*%
M02*
