M48
; DRILL file KiCad 10.0.6 date 2026-10-06T21:04:08
; FORMAT={-:-/ absolute / metric / decimal}
; #@! TF.CreationDate,2026-10-06T21:04:08-07:00
; #@! TF.GenerationSoftware,Kicad,Pcbnew,10.0.6
; #@! TF.FileFunction,NonPlated,1,2,NPTH
FMAT,2
METRIC
; #@! TA.AperFunction,NonPlated,NPTH,ComponentDrill
T1C1.700
; #@! TA.AperFunction,NonPlated,NPTH,ComponentDrill
T2C3.050
; #@! TA.AperFunction,NonPlated,NPTH,ComponentDrill
T3C3.200
; #@! TA.AperFunction,NonPlated,NPTH,ComponentDrill
T4C4.000
%
G90
G05
T1
X54.445Y-124.525
X56.826Y-200.725
X59.207Y-143.575
X61.589Y-162.625
X64.605Y-124.525
X66.351Y-181.675
X66.986Y-200.725
X69.367Y-143.575
X71.749Y-162.625
X73.495Y-124.525
X76.511Y-181.675
X80.639Y-200.725
X83.02Y-143.575
X83.655Y-124.525
X87.782Y-162.625
X90.799Y-200.725
X92.545Y-124.525
X93.18Y-143.575
X97.307Y-181.675
X97.942Y-162.625
X102.07Y-143.575
X102.705Y-124.525
X104.451Y-200.725
X106.832Y-162.625
X107.468Y-181.675
X111.595Y-124.525
X112.23Y-143.575
X114.611Y-200.725
X116.358Y-181.675
X116.992Y-162.625
X121.12Y-143.575
X121.755Y-124.525
X125.882Y-162.625
X126.517Y-181.675
X130.645Y-124.525
X131.28Y-143.575
X135.407Y-181.675
X136.042Y-162.625
X140.17Y-143.575
X140.805Y-124.525
X144.933Y-162.625
X145.567Y-181.675
X149.695Y-124.525
X150.33Y-143.575
X154.457Y-181.675
X155.093Y-162.625
X159.22Y-143.575
X159.855Y-124.525
X163.982Y-162.625
X164.617Y-181.675
X168.745Y-124.525
X169.38Y-143.575
X173.507Y-181.675
X174.142Y-162.625
X175.889Y-200.725
X178.27Y-143.575
X178.905Y-124.525
X183.032Y-162.625
X183.667Y-181.675
X186.049Y-200.725
X187.795Y-124.525
X188.43Y-143.575
X192.558Y-181.675
X193.192Y-162.625
X197.32Y-143.575
X197.955Y-124.525
X202.082Y-162.625
X202.718Y-181.675
X206.845Y-124.525
X207.48Y-143.575
X211.607Y-181.675
X212.242Y-162.625
X216.37Y-143.575
X217.005Y-124.525
X221.132Y-162.625
X221.767Y-181.675
X225.895Y-124.525
X226.53Y-143.575
X230.657Y-181.675
X231.292Y-162.625
X235.42Y-143.575
X236.055Y-124.525
X240.182Y-162.625
X240.817Y-181.675
X244.945Y-124.525
X245.58Y-143.575
X247.326Y-200.725
X249.707Y-181.675
X250.343Y-162.625
X254.47Y-143.575
X255.105Y-124.525
X257.486Y-200.725
X259.233Y-162.625
X259.868Y-181.675
X263.995Y-124.525
X264.63Y-143.575
X268.757Y-181.675
X269.392Y-162.625
X271.139Y-200.725
X273.52Y-143.575
X274.155Y-124.525
X278.282Y-162.625
X278.917Y-181.675
X281.299Y-200.725
X283.045Y-124.525
X283.68Y-143.575
X288.442Y-162.625
X292.57Y-143.575
X293.205Y-124.525
X294.951Y-200.725
X302.73Y-143.575
X304.476Y-181.675
X305.111Y-200.725
X309.239Y-162.625
X311.62Y-124.525
X314.636Y-181.675
X316.382Y-143.575
X318.764Y-200.725
X319.399Y-162.625
X321.78Y-124.525
X326.542Y-143.575
X328.924Y-200.725
T2
X59.531Y-174.675
X83.331Y-174.675
X130.969Y-193.725
X230.969Y-193.725
X297.656Y-174.675
X302.419Y-155.625
X304.8Y-117.525
X321.456Y-174.675
X326.219Y-155.625
X328.6Y-117.525
T3
X49.0Y-49.0
X49.0Y-209.0
X336.0Y-49.0
X336.0Y-209.0
T4
X59.525Y-124.525
X59.531Y-189.915
X61.906Y-200.725
X64.287Y-143.575
X66.669Y-162.625
X71.431Y-181.675
X78.575Y-124.525
X83.331Y-189.915
X85.719Y-200.725
X88.1Y-143.575
X92.862Y-162.625
X97.625Y-124.525
X102.387Y-181.675
X107.15Y-143.575
X109.531Y-200.725
X111.912Y-162.625
X116.675Y-124.525
X121.438Y-181.675
X126.2Y-143.575
X130.963Y-162.625
X130.969Y-208.965
X135.725Y-124.525
X140.487Y-181.675
X145.25Y-143.575
X150.012Y-162.625
X154.775Y-124.525
X159.537Y-181.675
X164.3Y-143.575
X169.062Y-162.625
X173.825Y-124.525
X178.588Y-181.675
X180.969Y-200.725
X183.35Y-143.575
X188.112Y-162.625
X192.875Y-124.525
X197.637Y-181.675
X202.4Y-143.575
X207.162Y-162.625
X211.925Y-124.525
X216.688Y-181.675
X221.45Y-143.575
X226.212Y-162.625
X230.969Y-208.965
X230.975Y-124.525
X235.737Y-181.675
X240.5Y-143.575
X245.262Y-162.625
X250.025Y-124.525
X252.406Y-200.725
X254.787Y-181.675
X259.55Y-143.575
X264.312Y-162.625
X269.075Y-124.525
X273.837Y-181.675
X276.219Y-200.725
X278.6Y-143.575
X283.363Y-162.625
X288.125Y-124.525
X297.65Y-143.575
X297.656Y-189.915
X300.031Y-200.725
X302.419Y-170.865
X304.8Y-132.765
X309.556Y-181.675
X314.319Y-162.625
X316.7Y-124.525
X321.456Y-189.915
X321.462Y-143.575
X323.844Y-200.725
X326.219Y-170.865
X328.6Y-132.765
M30
