M48
; DRILL file KiCad 10.0.6 date 2026-10-07T20:56:50
; FORMAT={-:-/ absolute / metric / decimal}
; #@! TF.CreationDate,2026-10-07T20:56:50-07:00
; #@! TF.GenerationSoftware,Kicad,Pcbnew,10.0.6
; #@! TF.FileFunction,MixedPlating,1,2
FMAT,2
METRIC
; #@! TA.AperFunction,Plated,PTH,ViaDrill
T1C0.400
; #@! TA.AperFunction,Plated,PTH,ComponentDrill
T2C0.800
; #@! TA.AperFunction,Plated,PTH,ComponentDrill
T3C1.000
; #@! TA.AperFunction,Plated,PTH,ComponentDrill
T4C1.100
; #@! TA.AperFunction,Plated,PTH,ComponentDrill
T5C1.500
; #@! TA.AperFunction,NonPlated,NPTH,ComponentDrill
T6C1.700
; #@! TA.AperFunction,NonPlated,NPTH,ComponentDrill
T7C3.050
; #@! TA.AperFunction,NonPlated,NPTH,ComponentDrill
T8C3.200
; #@! TA.AperFunction,NonPlated,NPTH,ComponentDrill
T9C4.000
%
G90
G05
T1
X69.681Y-134.509
X86.836Y-139.822
X109.28Y-193.973
X117.687Y-153.328
X120.0Y-155.243
X122.503Y-150.556
X138.596Y-149.863
X139.543Y-140.305
X159.185Y-149.766
X161.091Y-198.185
X167.092Y-208.437
X168.433Y-203.465
X197.363Y-150.087
X206.35Y-147.506
X208.458Y-153.328
X290.744Y-131.759
T2
X58.096Y-209.225
X62.859Y-171.125
X65.716Y-209.225
X67.621Y-190.175
X70.479Y-171.125
X75.241Y-190.175
X81.909Y-209.225
X89.052Y-171.125
X89.529Y-209.225
X96.672Y-171.125
X98.578Y-190.175
X105.721Y-209.225
X106.197Y-190.175
X108.102Y-171.125
X112.865Y-133.025
X113.341Y-209.225
X115.722Y-171.125
X117.627Y-190.175
X120.485Y-133.025
X122.39Y-152.075
X125.247Y-190.175
X127.152Y-171.125
X130.01Y-152.075
X131.915Y-133.025
X134.38Y-211.5
X134.773Y-171.125
X136.677Y-190.175
X139.535Y-133.025
X141.44Y-152.075
X142.0Y-211.5
X144.297Y-190.175
X146.202Y-171.125
X147.38Y-211.5
X149.06Y-152.075
X150.965Y-133.025
X153.822Y-171.125
X155.0Y-211.5
X155.727Y-190.175
X158.585Y-133.025
X160.38Y-211.5
X160.49Y-152.075
X163.347Y-190.175
X165.252Y-171.125
X168.0Y-211.5
X168.11Y-152.075
X170.015Y-133.025
X172.873Y-171.125
X174.778Y-190.175
X177.159Y-209.225
X177.635Y-133.025
X179.54Y-152.075
X182.397Y-190.175
X184.302Y-171.125
X184.779Y-209.225
X187.16Y-152.075
X189.065Y-133.025
X191.922Y-171.125
X192.38Y-211.5
X193.827Y-190.175
X196.685Y-133.025
X198.59Y-152.075
X200.0Y-211.5
X201.447Y-190.175
X203.352Y-171.125
X205.38Y-211.5
X206.21Y-152.075
X208.115Y-133.025
X210.972Y-171.125
X212.877Y-190.175
X213.0Y-211.5
X215.735Y-133.025
X217.64Y-152.075
X218.38Y-211.5
X220.498Y-190.175
X222.403Y-171.125
X225.26Y-152.075
X226.0Y-211.5
X227.165Y-133.025
X230.022Y-171.125
X231.927Y-190.175
X234.785Y-133.025
X236.69Y-152.075
X239.547Y-190.175
X241.452Y-171.125
X244.31Y-152.075
X246.215Y-133.025
X248.596Y-209.225
X249.072Y-171.125
X250.977Y-190.175
X253.835Y-133.025
X255.74Y-152.075
X256.216Y-209.225
X258.597Y-190.175
X260.502Y-171.125
X263.36Y-152.075
X265.265Y-133.025
X268.123Y-171.125
X270.027Y-190.175
X272.409Y-209.225
X272.885Y-133.025
X274.79Y-152.075
X277.647Y-190.175
X279.553Y-171.125
X280.029Y-209.225
X282.41Y-152.075
X284.315Y-133.025
X287.173Y-171.125
X291.935Y-133.025
X293.84Y-152.075
X296.221Y-209.225
X301.46Y-152.075
X303.841Y-209.225
X305.746Y-190.175
X310.509Y-171.125
X312.89Y-133.025
X313.366Y-190.175
X317.652Y-152.075
X318.129Y-171.125
X320.034Y-209.225
X320.51Y-133.025
X325.272Y-152.075
X327.654Y-209.225
T3
X48.3Y-133.4
X48.3Y-151.18
X50.84Y-133.4
X50.84Y-151.18
X53.38Y-133.4
X53.38Y-151.18
X55.92Y-133.4
X55.92Y-151.18
X58.46Y-133.4
X58.46Y-151.18
X61.0Y-133.4
X61.0Y-151.18
X63.54Y-133.4
X63.54Y-151.18
X66.08Y-133.4
X66.08Y-151.18
X68.62Y-133.4
X68.62Y-151.18
X71.16Y-133.4
X71.16Y-151.18
X73.7Y-133.4
X73.7Y-151.18
X76.24Y-133.4
X76.24Y-151.18
X78.78Y-133.4
X78.78Y-151.18
X81.32Y-133.4
X81.32Y-151.18
X83.86Y-133.4
X83.86Y-151.18
X86.4Y-133.4
X86.4Y-151.18
X88.94Y-133.4
X88.94Y-151.18
X91.48Y-133.4
X91.48Y-151.18
X94.02Y-133.4
X94.02Y-151.18
X96.56Y-133.4
X96.56Y-151.18
T4
X328.5Y-180.0
X328.5Y-184.5
X335.0Y-180.0
X335.0Y-184.5
T5
X55.715Y-121.985
X58.096Y-198.185
X60.477Y-141.035
X62.065Y-119.445
X62.859Y-160.085
X64.446Y-195.645
X66.828Y-138.495
X67.621Y-179.135
X69.209Y-157.545
X73.971Y-176.595
X74.765Y-121.985
X81.115Y-119.445
X81.909Y-198.185
X84.29Y-141.035
X88.259Y-195.645
X89.052Y-160.085
X90.64Y-138.495
X93.815Y-121.985
X95.402Y-157.545
X98.578Y-179.135
X100.165Y-119.445
X103.34Y-141.035
X104.927Y-176.595
X105.721Y-198.185
X108.102Y-160.085
X109.69Y-138.495
X112.071Y-195.645
X112.865Y-121.985
X114.453Y-157.545
X117.627Y-179.135
X119.215Y-119.445
X122.39Y-141.035
X123.977Y-176.595
X127.152Y-160.085
X128.74Y-138.495
X131.915Y-121.985
X133.502Y-157.545
X136.677Y-179.135
X138.265Y-119.445
X141.44Y-141.035
X143.028Y-176.595
X146.202Y-160.085
X147.79Y-138.495
X150.965Y-121.985
X152.552Y-157.545
X155.727Y-179.135
X157.315Y-119.445
X160.49Y-141.035
X162.077Y-176.595
X165.252Y-160.085
X166.84Y-138.495
X170.015Y-121.985
X171.602Y-157.545
X174.778Y-179.135
X176.365Y-119.445
X177.159Y-198.185
X179.54Y-141.035
X181.127Y-176.595
X183.509Y-195.645
X184.302Y-160.085
X185.89Y-138.495
X189.065Y-121.985
X190.653Y-157.545
X193.827Y-179.135
X195.415Y-119.445
X198.59Y-141.035
X200.177Y-176.595
X203.352Y-160.085
X204.94Y-138.495
X208.115Y-121.985
X209.702Y-157.545
X212.877Y-179.135
X214.465Y-119.445
X217.64Y-141.035
X219.227Y-176.595
X222.403Y-160.085
X223.99Y-138.495
X227.165Y-121.985
X228.752Y-157.545
X231.927Y-179.135
X233.515Y-119.445
X236.69Y-141.035
X238.278Y-176.595
X241.452Y-160.085
X243.04Y-138.495
X246.215Y-121.985
X247.802Y-157.545
X248.596Y-198.185
X250.977Y-179.135
X252.565Y-119.445
X254.946Y-195.645
X255.74Y-141.035
X257.327Y-176.595
X260.502Y-160.085
X262.09Y-138.495
X265.265Y-121.985
X266.852Y-157.545
X270.027Y-179.135
X271.615Y-119.445
X272.409Y-198.185
X274.79Y-141.035
X276.377Y-176.595
X278.759Y-195.645
X279.553Y-160.085
X281.14Y-138.495
X284.315Y-121.985
X285.902Y-157.545
X290.665Y-119.445
X293.84Y-141.035
X296.221Y-198.185
X300.19Y-138.495
X302.571Y-195.645
X305.746Y-179.135
X310.509Y-160.085
X312.096Y-176.595
X312.89Y-121.985
X316.859Y-157.545
X317.652Y-141.035
X319.24Y-119.445
X320.034Y-198.185
X324.002Y-138.495
X326.384Y-195.645
T6
X54.445Y-124.525
X56.826Y-200.725
X59.207Y-143.575
X61.589Y-162.625
X64.605Y-124.525
X66.351Y-181.675
X66.986Y-200.725
X69.367Y-143.575
X71.749Y-162.625
X73.495Y-124.525
X76.511Y-181.675
X80.639Y-200.725
X83.02Y-143.575
X83.655Y-124.525
X87.782Y-162.625
X90.799Y-200.725
X92.545Y-124.525
X93.18Y-143.575
X97.307Y-181.675
X97.942Y-162.625
X102.07Y-143.575
X102.705Y-124.525
X104.451Y-200.725
X106.832Y-162.625
X107.468Y-181.675
X111.595Y-124.525
X112.23Y-143.575
X114.611Y-200.725
X116.358Y-181.675
X116.992Y-162.625
X121.12Y-143.575
X121.755Y-124.525
X125.882Y-162.625
X126.517Y-181.675
X130.645Y-124.525
X131.28Y-143.575
X135.407Y-181.675
X136.042Y-162.625
X140.17Y-143.575
X140.805Y-124.525
X144.933Y-162.625
X145.567Y-181.675
X149.695Y-124.525
X150.33Y-143.575
X154.457Y-181.675
X155.093Y-162.625
X159.22Y-143.575
X159.855Y-124.525
X163.982Y-162.625
X164.617Y-181.675
X168.745Y-124.525
X169.38Y-143.575
X173.507Y-181.675
X174.142Y-162.625
X175.889Y-200.725
X178.27Y-143.575
X178.905Y-124.525
X183.032Y-162.625
X183.667Y-181.675
X186.049Y-200.725
X187.795Y-124.525
X188.43Y-143.575
X192.558Y-181.675
X193.192Y-162.625
X197.32Y-143.575
X197.955Y-124.525
X202.082Y-162.625
X202.718Y-181.675
X206.845Y-124.525
X207.48Y-143.575
X211.607Y-181.675
X212.242Y-162.625
X216.37Y-143.575
X217.005Y-124.525
X221.132Y-162.625
X221.767Y-181.675
X225.895Y-124.525
X226.53Y-143.575
X230.657Y-181.675
X231.292Y-162.625
X235.42Y-143.575
X236.055Y-124.525
X240.182Y-162.625
X240.817Y-181.675
X244.945Y-124.525
X245.58Y-143.575
X247.326Y-200.725
X249.707Y-181.675
X250.343Y-162.625
X254.47Y-143.575
X255.105Y-124.525
X257.486Y-200.725
X259.233Y-162.625
X259.868Y-181.675
X263.995Y-124.525
X264.63Y-143.575
X268.757Y-181.675
X269.392Y-162.625
X271.139Y-200.725
X273.52Y-143.575
X274.155Y-124.525
X278.282Y-162.625
X278.917Y-181.675
X281.299Y-200.725
X283.045Y-124.525
X283.68Y-143.575
X288.442Y-162.625
X292.57Y-143.575
X293.205Y-124.525
X294.951Y-200.725
X302.73Y-143.575
X304.476Y-181.675
X305.111Y-200.725
X309.239Y-162.625
X311.62Y-124.525
X314.636Y-181.675
X316.382Y-143.575
X318.764Y-200.725
X319.399Y-162.625
X321.78Y-124.525
X326.542Y-143.575
X328.924Y-200.725
T7
X59.531Y-174.675
X83.331Y-174.675
X130.969Y-193.725
X230.969Y-193.725
X297.656Y-174.675
X302.419Y-155.625
X304.8Y-117.525
X321.456Y-174.675
X326.219Y-155.625
X328.6Y-117.525
T8
X49.0Y-117.0
X49.0Y-209.0
X336.0Y-117.0
X336.0Y-209.0
T9
X59.525Y-124.525
X59.531Y-189.915
X61.906Y-200.725
X64.287Y-143.575
X66.669Y-162.625
X71.431Y-181.675
X78.575Y-124.525
X83.331Y-189.915
X85.719Y-200.725
X88.1Y-143.575
X92.862Y-162.625
X97.625Y-124.525
X102.387Y-181.675
X107.15Y-143.575
X109.531Y-200.725
X111.912Y-162.625
X116.675Y-124.525
X121.438Y-181.675
X126.2Y-143.575
X130.963Y-162.625
X130.969Y-208.965
X135.725Y-124.525
X140.487Y-181.675
X145.25Y-143.575
X150.012Y-162.625
X154.775Y-124.525
X159.537Y-181.675
X164.3Y-143.575
X169.062Y-162.625
X173.825Y-124.525
X178.588Y-181.675
X180.969Y-200.725
X183.35Y-143.575
X188.112Y-162.625
X192.875Y-124.525
X197.637Y-181.675
X202.4Y-143.575
X207.162Y-162.625
X211.925Y-124.525
X216.688Y-181.675
X221.45Y-143.575
X226.212Y-162.625
X230.969Y-208.965
X230.975Y-124.525
X235.737Y-181.675
X240.5Y-143.575
X245.262Y-162.625
X250.025Y-124.525
X252.406Y-200.725
X254.787Y-181.675
X259.55Y-143.575
X264.312Y-162.625
X269.075Y-124.525
X273.837Y-181.675
X276.219Y-200.725
X278.6Y-143.575
X283.363Y-162.625
X288.125Y-124.525
X297.65Y-143.575
X297.656Y-189.915
X300.031Y-200.725
X302.419Y-170.865
X304.8Y-132.765
X309.556Y-181.675
X314.319Y-162.625
X316.7Y-124.525
X321.456Y-189.915
X321.462Y-143.575
X323.844Y-200.725
X326.219Y-170.865
X328.6Y-132.765
M30
