%TF.GenerationSoftware,KiCad,Pcbnew,10.0.6*%
%TF.CreationDate,2026-10-07T20:56:50-07:00*%
%TF.ProjectId,finished,66696e69-7368-4656-942e-6b696361645f,rev?*%
%TF.SameCoordinates,Original*%
%TF.FileFunction,Legend,Bot*%
%TF.FilePolarity,Positive*%
%FSLAX46Y46*%
G04 Gerber Fmt 4.6, Leading zero omitted, Abs format (unit mm)*
G04 Created by KiCad (PCBNEW 10.0.6) date 2026-10-07 20:56:50*
%MOMM*%
%LPD*%
G01*
G04 APERTURE LIST*
G04 Aperture macros list*
%AMRoundRect*
0 Rectangle with rounded corners*
0 $1 Rounding radius*
0 $2 $3 $4 $5 $6 $7 $8 $9 X,Y pos of 4 corners*
0 Add a 4 corners polygon primitive as box body*
4,1,4,$2,$3,$4,$5,$6,$7,$8,$9,$2,$3,0*
0 Add four circle primitives for the rounded corners*
1,1,$1+$1,$2,$3*
1,1,$1+$1,$4,$5*
1,1,$1+$1,$6,$7*
1,1,$1+$1,$8,$9*
0 Add four rect primitives between the rounded corners*
20,1,$1+$1,$2,$3,$4,$5,0*
20,1,$1+$1,$4,$5,$6,$7,0*
20,1,$1+$1,$6,$7,$8,$9,0*
20,1,$1+$1,$8,$9,$2,$3,0*%
%AMFreePoly0*
4,1,37,0.603843,0.796157,0.639018,0.796157,0.711114,0.766294,0.766294,0.711114,0.796157,0.639018,0.796157,0.603843,0.800000,0.600000,0.800000,-0.600000,0.796157,-0.603843,0.796157,-0.639018,0.766294,-0.711114,0.711114,-0.766294,0.639018,-0.796157,0.603843,-0.796157,0.600000,-0.800000,0.000000,-0.800000,0.000000,-0.796148,-0.078414,-0.796148,-0.232228,-0.765552,-0.377117,-0.705537,
-0.507515,-0.618408,-0.618408,-0.507515,-0.705537,-0.377117,-0.765552,-0.232228,-0.796148,-0.078414,-0.796148,0.078414,-0.765552,0.232228,-0.705537,0.377117,-0.618408,0.507515,-0.507515,0.618408,-0.377117,0.705537,-0.232228,0.765552,-0.078414,0.796148,0.000000,0.796148,0.000000,0.800000,0.600000,0.800000,0.603843,0.796157,0.603843,0.796157,$1*%
%AMFreePoly1*
4,1,37,0.000000,0.796148,0.078414,0.796148,0.232228,0.765552,0.377117,0.705537,0.507515,0.618408,0.618408,0.507515,0.705537,0.377117,0.765552,0.232228,0.796148,0.078414,0.796148,-0.078414,0.765552,-0.232228,0.705537,-0.377117,0.618408,-0.507515,0.507515,-0.618408,0.377117,-0.705537,0.232228,-0.765552,0.078414,-0.796148,0.000000,-0.796148,0.000000,-0.800000,-0.600000,-0.800000,
-0.603843,-0.796157,-0.639018,-0.796157,-0.711114,-0.766294,-0.766294,-0.711114,-0.796157,-0.639018,-0.796157,-0.603843,-0.800000,-0.600000,-0.800000,0.600000,-0.796157,0.603843,-0.796157,0.639018,-0.766294,0.711114,-0.711114,0.766294,-0.639018,0.796157,-0.603843,0.796157,-0.600000,0.800000,0.000000,0.800000,0.000000,0.796148,0.000000,0.796148,$1*%
G04 Aperture macros list end*
%ADD10C,0.120000*%
%ADD11C,0.150000*%
%ADD12C,3.200000*%
%ADD13C,1.700000*%
%ADD14C,4.000000*%
%ADD15C,2.200000*%
%ADD16C,3.050000*%
%ADD17RoundRect,0.250000X0.550000X0.550000X-0.550000X0.550000X-0.550000X-0.550000X0.550000X-0.550000X0*%
%ADD18C,1.600000*%
%ADD19RoundRect,0.200000X0.600000X-0.600000X0.600000X0.600000X-0.600000X0.600000X-0.600000X-0.600000X0*%
%ADD20FreePoly0,90.000000*%
%ADD21FreePoly1,90.000000*%
%ADD22C,2.000000*%
G04 APERTURE END LIST*
D10*
X139028571Y-115363855D02*
X139028571Y-114563855D01*
X139028571Y-114563855D02*
X138723809Y-114563855D01*
X138723809Y-114563855D02*
X138647619Y-114601950D01*
X138647619Y-114601950D02*
X138609524Y-114640045D01*
X138609524Y-114640045D02*
X138571428Y-114716236D01*
X138571428Y-114716236D02*
X138571428Y-114830521D01*
X138571428Y-114830521D02*
X138609524Y-114906712D01*
X138609524Y-114906712D02*
X138647619Y-114944807D01*
X138647619Y-114944807D02*
X138723809Y-114982902D01*
X138723809Y-114982902D02*
X139028571Y-114982902D01*
X138228571Y-115363855D02*
X138228571Y-114563855D01*
X137390476Y-115287664D02*
X137428572Y-115325760D01*
X137428572Y-115325760D02*
X137542857Y-115363855D01*
X137542857Y-115363855D02*
X137619048Y-115363855D01*
X137619048Y-115363855D02*
X137733334Y-115325760D01*
X137733334Y-115325760D02*
X137809524Y-115249569D01*
X137809524Y-115249569D02*
X137847619Y-115173379D01*
X137847619Y-115173379D02*
X137885715Y-115020998D01*
X137885715Y-115020998D02*
X137885715Y-114906712D01*
X137885715Y-114906712D02*
X137847619Y-114754331D01*
X137847619Y-114754331D02*
X137809524Y-114678140D01*
X137809524Y-114678140D02*
X137733334Y-114601950D01*
X137733334Y-114601950D02*
X137619048Y-114563855D01*
X137619048Y-114563855D02*
X137542857Y-114563855D01*
X137542857Y-114563855D02*
X137428572Y-114601950D01*
X137428572Y-114601950D02*
X137390476Y-114640045D01*
X136895238Y-114563855D02*
X136742857Y-114563855D01*
X136742857Y-114563855D02*
X136666667Y-114601950D01*
X136666667Y-114601950D02*
X136590476Y-114678140D01*
X136590476Y-114678140D02*
X136552381Y-114830521D01*
X136552381Y-114830521D02*
X136552381Y-115097188D01*
X136552381Y-115097188D02*
X136590476Y-115249569D01*
X136590476Y-115249569D02*
X136666667Y-115325760D01*
X136666667Y-115325760D02*
X136742857Y-115363855D01*
X136742857Y-115363855D02*
X136895238Y-115363855D01*
X136895238Y-115363855D02*
X136971429Y-115325760D01*
X136971429Y-115325760D02*
X137047619Y-115249569D01*
X137047619Y-115249569D02*
X137085715Y-115097188D01*
X137085715Y-115097188D02*
X137085715Y-114830521D01*
X137085715Y-114830521D02*
X137047619Y-114678140D01*
X137047619Y-114678140D02*
X136971429Y-114601950D01*
X136971429Y-114601950D02*
X136895238Y-114563855D01*
X135600000Y-114563855D02*
X135600000Y-115211474D01*
X135600000Y-115211474D02*
X135561905Y-115287664D01*
X135561905Y-115287664D02*
X135523810Y-115325760D01*
X135523810Y-115325760D02*
X135447619Y-115363855D01*
X135447619Y-115363855D02*
X135295238Y-115363855D01*
X135295238Y-115363855D02*
X135219048Y-115325760D01*
X135219048Y-115325760D02*
X135180953Y-115287664D01*
X135180953Y-115287664D02*
X135142857Y-115211474D01*
X135142857Y-115211474D02*
X135142857Y-114563855D01*
X134761905Y-115363855D02*
X134761905Y-114563855D01*
X134761905Y-114563855D02*
X134304762Y-115363855D01*
X134304762Y-115363855D02*
X134304762Y-114563855D01*
X133923810Y-115363855D02*
X133923810Y-114563855D01*
X133923810Y-114563855D02*
X133733334Y-114563855D01*
X133733334Y-114563855D02*
X133619048Y-114601950D01*
X133619048Y-114601950D02*
X133542858Y-114678140D01*
X133542858Y-114678140D02*
X133504763Y-114754331D01*
X133504763Y-114754331D02*
X133466667Y-114906712D01*
X133466667Y-114906712D02*
X133466667Y-115020998D01*
X133466667Y-115020998D02*
X133504763Y-115173379D01*
X133504763Y-115173379D02*
X133542858Y-115249569D01*
X133542858Y-115249569D02*
X133619048Y-115325760D01*
X133619048Y-115325760D02*
X133733334Y-115363855D01*
X133733334Y-115363855D02*
X133923810Y-115363855D01*
X133123810Y-114944807D02*
X132857144Y-114944807D01*
X132742858Y-115363855D02*
X133123810Y-115363855D01*
X133123810Y-115363855D02*
X133123810Y-114563855D01*
X133123810Y-114563855D02*
X132742858Y-114563855D01*
X131942857Y-115363855D02*
X132209524Y-114982902D01*
X132400000Y-115363855D02*
X132400000Y-114563855D01*
X132400000Y-114563855D02*
X132095238Y-114563855D01*
X132095238Y-114563855D02*
X132019048Y-114601950D01*
X132019048Y-114601950D02*
X131980953Y-114640045D01*
X131980953Y-114640045D02*
X131942857Y-114716236D01*
X131942857Y-114716236D02*
X131942857Y-114830521D01*
X131942857Y-114830521D02*
X131980953Y-114906712D01*
X131980953Y-114906712D02*
X132019048Y-114944807D01*
X132019048Y-114944807D02*
X132095238Y-114982902D01*
X132095238Y-114982902D02*
X132400000Y-114982902D01*
X130990476Y-115363855D02*
X130990476Y-114563855D01*
X130990476Y-114563855D02*
X130685714Y-114563855D01*
X130685714Y-114563855D02*
X130609524Y-114601950D01*
X130609524Y-114601950D02*
X130571429Y-114640045D01*
X130571429Y-114640045D02*
X130533333Y-114716236D01*
X130533333Y-114716236D02*
X130533333Y-114830521D01*
X130533333Y-114830521D02*
X130571429Y-114906712D01*
X130571429Y-114906712D02*
X130609524Y-114944807D01*
X130609524Y-114944807D02*
X130685714Y-114982902D01*
X130685714Y-114982902D02*
X130990476Y-114982902D01*
X129733333Y-115287664D02*
X129771429Y-115325760D01*
X129771429Y-115325760D02*
X129885714Y-115363855D01*
X129885714Y-115363855D02*
X129961905Y-115363855D01*
X129961905Y-115363855D02*
X130076191Y-115325760D01*
X130076191Y-115325760D02*
X130152381Y-115249569D01*
X130152381Y-115249569D02*
X130190476Y-115173379D01*
X130190476Y-115173379D02*
X130228572Y-115020998D01*
X130228572Y-115020998D02*
X130228572Y-114906712D01*
X130228572Y-114906712D02*
X130190476Y-114754331D01*
X130190476Y-114754331D02*
X130152381Y-114678140D01*
X130152381Y-114678140D02*
X130076191Y-114601950D01*
X130076191Y-114601950D02*
X129961905Y-114563855D01*
X129961905Y-114563855D02*
X129885714Y-114563855D01*
X129885714Y-114563855D02*
X129771429Y-114601950D01*
X129771429Y-114601950D02*
X129733333Y-114640045D01*
X129123810Y-114944807D02*
X129009524Y-114982902D01*
X129009524Y-114982902D02*
X128971429Y-115020998D01*
X128971429Y-115020998D02*
X128933333Y-115097188D01*
X128933333Y-115097188D02*
X128933333Y-115211474D01*
X128933333Y-115211474D02*
X128971429Y-115287664D01*
X128971429Y-115287664D02*
X129009524Y-115325760D01*
X129009524Y-115325760D02*
X129085714Y-115363855D01*
X129085714Y-115363855D02*
X129390476Y-115363855D01*
X129390476Y-115363855D02*
X129390476Y-114563855D01*
X129390476Y-114563855D02*
X129123810Y-114563855D01*
X129123810Y-114563855D02*
X129047619Y-114601950D01*
X129047619Y-114601950D02*
X129009524Y-114640045D01*
X129009524Y-114640045D02*
X128971429Y-114716236D01*
X128971429Y-114716236D02*
X128971429Y-114792426D01*
X128971429Y-114792426D02*
X129009524Y-114868617D01*
X129009524Y-114868617D02*
X129047619Y-114906712D01*
X129047619Y-114906712D02*
X129123810Y-114944807D01*
X129123810Y-114944807D02*
X129390476Y-114944807D01*
X127409524Y-114525760D02*
X128095238Y-115554331D01*
X126419048Y-114906712D02*
X126495238Y-114868617D01*
X126495238Y-114868617D02*
X126533333Y-114830521D01*
X126533333Y-114830521D02*
X126571429Y-114754331D01*
X126571429Y-114754331D02*
X126571429Y-114716236D01*
X126571429Y-114716236D02*
X126533333Y-114640045D01*
X126533333Y-114640045D02*
X126495238Y-114601950D01*
X126495238Y-114601950D02*
X126419048Y-114563855D01*
X126419048Y-114563855D02*
X126266667Y-114563855D01*
X126266667Y-114563855D02*
X126190476Y-114601950D01*
X126190476Y-114601950D02*
X126152381Y-114640045D01*
X126152381Y-114640045D02*
X126114286Y-114716236D01*
X126114286Y-114716236D02*
X126114286Y-114754331D01*
X126114286Y-114754331D02*
X126152381Y-114830521D01*
X126152381Y-114830521D02*
X126190476Y-114868617D01*
X126190476Y-114868617D02*
X126266667Y-114906712D01*
X126266667Y-114906712D02*
X126419048Y-114906712D01*
X126419048Y-114906712D02*
X126495238Y-114944807D01*
X126495238Y-114944807D02*
X126533333Y-114982902D01*
X126533333Y-114982902D02*
X126571429Y-115059093D01*
X126571429Y-115059093D02*
X126571429Y-115211474D01*
X126571429Y-115211474D02*
X126533333Y-115287664D01*
X126533333Y-115287664D02*
X126495238Y-115325760D01*
X126495238Y-115325760D02*
X126419048Y-115363855D01*
X126419048Y-115363855D02*
X126266667Y-115363855D01*
X126266667Y-115363855D02*
X126190476Y-115325760D01*
X126190476Y-115325760D02*
X126152381Y-115287664D01*
X126152381Y-115287664D02*
X126114286Y-115211474D01*
X126114286Y-115211474D02*
X126114286Y-115059093D01*
X126114286Y-115059093D02*
X126152381Y-114982902D01*
X126152381Y-114982902D02*
X126190476Y-114944807D01*
X126190476Y-114944807D02*
X126266667Y-114906712D01*
X125771428Y-115287664D02*
X125733333Y-115325760D01*
X125733333Y-115325760D02*
X125771428Y-115363855D01*
X125771428Y-115363855D02*
X125809524Y-115325760D01*
X125809524Y-115325760D02*
X125771428Y-115287664D01*
X125771428Y-115287664D02*
X125771428Y-115363855D01*
X125009524Y-114563855D02*
X125390476Y-114563855D01*
X125390476Y-114563855D02*
X125428572Y-114944807D01*
X125428572Y-114944807D02*
X125390476Y-114906712D01*
X125390476Y-114906712D02*
X125314286Y-114868617D01*
X125314286Y-114868617D02*
X125123810Y-114868617D01*
X125123810Y-114868617D02*
X125047619Y-114906712D01*
X125047619Y-114906712D02*
X125009524Y-114944807D01*
X125009524Y-114944807D02*
X124971429Y-115020998D01*
X124971429Y-115020998D02*
X124971429Y-115211474D01*
X124971429Y-115211474D02*
X125009524Y-115287664D01*
X125009524Y-115287664D02*
X125047619Y-115325760D01*
X125047619Y-115325760D02*
X125123810Y-115363855D01*
X125123810Y-115363855D02*
X125314286Y-115363855D01*
X125314286Y-115363855D02*
X125390476Y-115325760D01*
X125390476Y-115325760D02*
X125428572Y-115287664D01*
X124628571Y-115363855D02*
X124628571Y-114830521D01*
X124628571Y-114906712D02*
X124590476Y-114868617D01*
X124590476Y-114868617D02*
X124514286Y-114830521D01*
X124514286Y-114830521D02*
X124400000Y-114830521D01*
X124400000Y-114830521D02*
X124323809Y-114868617D01*
X124323809Y-114868617D02*
X124285714Y-114944807D01*
X124285714Y-114944807D02*
X124285714Y-115363855D01*
X124285714Y-114944807D02*
X124247619Y-114868617D01*
X124247619Y-114868617D02*
X124171428Y-114830521D01*
X124171428Y-114830521D02*
X124057143Y-114830521D01*
X124057143Y-114830521D02*
X123980952Y-114868617D01*
X123980952Y-114868617D02*
X123942857Y-114944807D01*
X123942857Y-114944807D02*
X123942857Y-115363855D01*
X123561904Y-115363855D02*
X123561904Y-114830521D01*
X123561904Y-114906712D02*
X123523809Y-114868617D01*
X123523809Y-114868617D02*
X123447619Y-114830521D01*
X123447619Y-114830521D02*
X123333333Y-114830521D01*
X123333333Y-114830521D02*
X123257142Y-114868617D01*
X123257142Y-114868617D02*
X123219047Y-114944807D01*
X123219047Y-114944807D02*
X123219047Y-115363855D01*
X123219047Y-114944807D02*
X123180952Y-114868617D01*
X123180952Y-114868617D02*
X123104761Y-114830521D01*
X123104761Y-114830521D02*
X122990476Y-114830521D01*
X122990476Y-114830521D02*
X122914285Y-114868617D01*
X122914285Y-114868617D02*
X122876190Y-114944807D01*
X122876190Y-114944807D02*
X122876190Y-115363855D01*
X121923809Y-115325760D02*
X121809523Y-115363855D01*
X121809523Y-115363855D02*
X121619047Y-115363855D01*
X121619047Y-115363855D02*
X121542856Y-115325760D01*
X121542856Y-115325760D02*
X121504761Y-115287664D01*
X121504761Y-115287664D02*
X121466666Y-115211474D01*
X121466666Y-115211474D02*
X121466666Y-115135283D01*
X121466666Y-115135283D02*
X121504761Y-115059093D01*
X121504761Y-115059093D02*
X121542856Y-115020998D01*
X121542856Y-115020998D02*
X121619047Y-114982902D01*
X121619047Y-114982902D02*
X121771428Y-114944807D01*
X121771428Y-114944807D02*
X121847618Y-114906712D01*
X121847618Y-114906712D02*
X121885713Y-114868617D01*
X121885713Y-114868617D02*
X121923809Y-114792426D01*
X121923809Y-114792426D02*
X121923809Y-114716236D01*
X121923809Y-114716236D02*
X121885713Y-114640045D01*
X121885713Y-114640045D02*
X121847618Y-114601950D01*
X121847618Y-114601950D02*
X121771428Y-114563855D01*
X121771428Y-114563855D02*
X121580951Y-114563855D01*
X121580951Y-114563855D02*
X121466666Y-114601950D01*
X120971427Y-114563855D02*
X120819046Y-114563855D01*
X120819046Y-114563855D02*
X120742856Y-114601950D01*
X120742856Y-114601950D02*
X120666665Y-114678140D01*
X120666665Y-114678140D02*
X120628570Y-114830521D01*
X120628570Y-114830521D02*
X120628570Y-115097188D01*
X120628570Y-115097188D02*
X120666665Y-115249569D01*
X120666665Y-115249569D02*
X120742856Y-115325760D01*
X120742856Y-115325760D02*
X120819046Y-115363855D01*
X120819046Y-115363855D02*
X120971427Y-115363855D01*
X120971427Y-115363855D02*
X121047618Y-115325760D01*
X121047618Y-115325760D02*
X121123808Y-115249569D01*
X121123808Y-115249569D02*
X121161904Y-115097188D01*
X121161904Y-115097188D02*
X121161904Y-114830521D01*
X121161904Y-114830521D02*
X121123808Y-114678140D01*
X121123808Y-114678140D02*
X121047618Y-114601950D01*
X121047618Y-114601950D02*
X120971427Y-114563855D01*
X119828570Y-115287664D02*
X119866666Y-115325760D01*
X119866666Y-115325760D02*
X119980951Y-115363855D01*
X119980951Y-115363855D02*
X120057142Y-115363855D01*
X120057142Y-115363855D02*
X120171428Y-115325760D01*
X120171428Y-115325760D02*
X120247618Y-115249569D01*
X120247618Y-115249569D02*
X120285713Y-115173379D01*
X120285713Y-115173379D02*
X120323809Y-115020998D01*
X120323809Y-115020998D02*
X120323809Y-114906712D01*
X120323809Y-114906712D02*
X120285713Y-114754331D01*
X120285713Y-114754331D02*
X120247618Y-114678140D01*
X120247618Y-114678140D02*
X120171428Y-114601950D01*
X120171428Y-114601950D02*
X120057142Y-114563855D01*
X120057142Y-114563855D02*
X119980951Y-114563855D01*
X119980951Y-114563855D02*
X119866666Y-114601950D01*
X119866666Y-114601950D02*
X119828570Y-114640045D01*
X119485713Y-115363855D02*
X119485713Y-114563855D01*
X119028570Y-115363855D02*
X119371428Y-114906712D01*
X119028570Y-114563855D02*
X119485713Y-115020998D01*
X118685713Y-114944807D02*
X118419047Y-114944807D01*
X118304761Y-115363855D02*
X118685713Y-115363855D01*
X118685713Y-115363855D02*
X118685713Y-114563855D01*
X118685713Y-114563855D02*
X118304761Y-114563855D01*
X118076189Y-114563855D02*
X117619046Y-114563855D01*
X117847618Y-115363855D02*
X117847618Y-114563855D01*
X117390475Y-115325760D02*
X117276189Y-115363855D01*
X117276189Y-115363855D02*
X117085713Y-115363855D01*
X117085713Y-115363855D02*
X117009522Y-115325760D01*
X117009522Y-115325760D02*
X116971427Y-115287664D01*
X116971427Y-115287664D02*
X116933332Y-115211474D01*
X116933332Y-115211474D02*
X116933332Y-115135283D01*
X116933332Y-115135283D02*
X116971427Y-115059093D01*
X116971427Y-115059093D02*
X117009522Y-115020998D01*
X117009522Y-115020998D02*
X117085713Y-114982902D01*
X117085713Y-114982902D02*
X117238094Y-114944807D01*
X117238094Y-114944807D02*
X117314284Y-114906712D01*
X117314284Y-114906712D02*
X117352379Y-114868617D01*
X117352379Y-114868617D02*
X117390475Y-114792426D01*
X117390475Y-114792426D02*
X117390475Y-114716236D01*
X117390475Y-114716236D02*
X117352379Y-114640045D01*
X117352379Y-114640045D02*
X117314284Y-114601950D01*
X117314284Y-114601950D02*
X117238094Y-114563855D01*
X117238094Y-114563855D02*
X117047617Y-114563855D01*
X117047617Y-114563855D02*
X116933332Y-114601950D01*
X332161904Y-187363855D02*
X332428571Y-186982902D01*
X332619047Y-187363855D02*
X332619047Y-186563855D01*
X332619047Y-186563855D02*
X332314285Y-186563855D01*
X332314285Y-186563855D02*
X332238095Y-186601950D01*
X332238095Y-186601950D02*
X332200000Y-186640045D01*
X332200000Y-186640045D02*
X332161904Y-186716236D01*
X332161904Y-186716236D02*
X332161904Y-186830521D01*
X332161904Y-186830521D02*
X332200000Y-186906712D01*
X332200000Y-186906712D02*
X332238095Y-186944807D01*
X332238095Y-186944807D02*
X332314285Y-186982902D01*
X332314285Y-186982902D02*
X332619047Y-186982902D01*
X331819047Y-186944807D02*
X331552381Y-186944807D01*
X331438095Y-187363855D02*
X331819047Y-187363855D01*
X331819047Y-187363855D02*
X331819047Y-186563855D01*
X331819047Y-186563855D02*
X331438095Y-186563855D01*
X331133333Y-187325760D02*
X331019047Y-187363855D01*
X331019047Y-187363855D02*
X330828571Y-187363855D01*
X330828571Y-187363855D02*
X330752380Y-187325760D01*
X330752380Y-187325760D02*
X330714285Y-187287664D01*
X330714285Y-187287664D02*
X330676190Y-187211474D01*
X330676190Y-187211474D02*
X330676190Y-187135283D01*
X330676190Y-187135283D02*
X330714285Y-187059093D01*
X330714285Y-187059093D02*
X330752380Y-187020998D01*
X330752380Y-187020998D02*
X330828571Y-186982902D01*
X330828571Y-186982902D02*
X330980952Y-186944807D01*
X330980952Y-186944807D02*
X331057142Y-186906712D01*
X331057142Y-186906712D02*
X331095237Y-186868617D01*
X331095237Y-186868617D02*
X331133333Y-186792426D01*
X331133333Y-186792426D02*
X331133333Y-186716236D01*
X331133333Y-186716236D02*
X331095237Y-186640045D01*
X331095237Y-186640045D02*
X331057142Y-186601950D01*
X331057142Y-186601950D02*
X330980952Y-186563855D01*
X330980952Y-186563855D02*
X330790475Y-186563855D01*
X330790475Y-186563855D02*
X330676190Y-186601950D01*
X330333332Y-186944807D02*
X330066666Y-186944807D01*
X329952380Y-187363855D02*
X330333332Y-187363855D01*
X330333332Y-187363855D02*
X330333332Y-186563855D01*
X330333332Y-186563855D02*
X329952380Y-186563855D01*
X329723808Y-186563855D02*
X329266665Y-186563855D01*
X329495237Y-187363855D02*
X329495237Y-186563855D01*
D11*
X63582440Y-212087295D02*
X63582440Y-211287295D01*
X63582440Y-211287295D02*
X63391964Y-211287295D01*
X63391964Y-211287295D02*
X63277678Y-211325390D01*
X63277678Y-211325390D02*
X63201488Y-211401580D01*
X63201488Y-211401580D02*
X63163393Y-211477771D01*
X63163393Y-211477771D02*
X63125297Y-211630152D01*
X63125297Y-211630152D02*
X63125297Y-211744438D01*
X63125297Y-211744438D02*
X63163393Y-211896819D01*
X63163393Y-211896819D02*
X63201488Y-211973009D01*
X63201488Y-211973009D02*
X63277678Y-212049200D01*
X63277678Y-212049200D02*
X63391964Y-212087295D01*
X63391964Y-212087295D02*
X63582440Y-212087295D01*
X62401488Y-211287295D02*
X62782440Y-211287295D01*
X62782440Y-211287295D02*
X62820536Y-211668247D01*
X62820536Y-211668247D02*
X62782440Y-211630152D01*
X62782440Y-211630152D02*
X62706250Y-211592057D01*
X62706250Y-211592057D02*
X62515774Y-211592057D01*
X62515774Y-211592057D02*
X62439583Y-211630152D01*
X62439583Y-211630152D02*
X62401488Y-211668247D01*
X62401488Y-211668247D02*
X62363393Y-211744438D01*
X62363393Y-211744438D02*
X62363393Y-211934914D01*
X62363393Y-211934914D02*
X62401488Y-212011104D01*
X62401488Y-212011104D02*
X62439583Y-212049200D01*
X62439583Y-212049200D02*
X62515774Y-212087295D01*
X62515774Y-212087295D02*
X62706250Y-212087295D01*
X62706250Y-212087295D02*
X62782440Y-212049200D01*
X62782440Y-212049200D02*
X62820536Y-212011104D01*
X61677678Y-211553961D02*
X61677678Y-212087295D01*
X61868154Y-211249200D02*
X62058631Y-211820628D01*
X62058631Y-211820628D02*
X61563392Y-211820628D01*
X60649106Y-212087295D02*
X60649106Y-211287295D01*
X60191963Y-212087295D02*
X60534821Y-211630152D01*
X60191963Y-211287295D02*
X60649106Y-211744438D01*
X68344940Y-173987295D02*
X68344940Y-173187295D01*
X68344940Y-173187295D02*
X68154464Y-173187295D01*
X68154464Y-173187295D02*
X68040178Y-173225390D01*
X68040178Y-173225390D02*
X67963988Y-173301580D01*
X67963988Y-173301580D02*
X67925893Y-173377771D01*
X67925893Y-173377771D02*
X67887797Y-173530152D01*
X67887797Y-173530152D02*
X67887797Y-173644438D01*
X67887797Y-173644438D02*
X67925893Y-173796819D01*
X67925893Y-173796819D02*
X67963988Y-173873009D01*
X67963988Y-173873009D02*
X68040178Y-173949200D01*
X68040178Y-173949200D02*
X68154464Y-173987295D01*
X68154464Y-173987295D02*
X68344940Y-173987295D01*
X67583036Y-173263485D02*
X67544940Y-173225390D01*
X67544940Y-173225390D02*
X67468750Y-173187295D01*
X67468750Y-173187295D02*
X67278274Y-173187295D01*
X67278274Y-173187295D02*
X67202083Y-173225390D01*
X67202083Y-173225390D02*
X67163988Y-173263485D01*
X67163988Y-173263485D02*
X67125893Y-173339676D01*
X67125893Y-173339676D02*
X67125893Y-173415866D01*
X67125893Y-173415866D02*
X67163988Y-173530152D01*
X67163988Y-173530152D02*
X67621131Y-173987295D01*
X67621131Y-173987295D02*
X67125893Y-173987295D01*
X66744940Y-173987295D02*
X66592559Y-173987295D01*
X66592559Y-173987295D02*
X66516369Y-173949200D01*
X66516369Y-173949200D02*
X66478273Y-173911104D01*
X66478273Y-173911104D02*
X66402083Y-173796819D01*
X66402083Y-173796819D02*
X66363988Y-173644438D01*
X66363988Y-173644438D02*
X66363988Y-173339676D01*
X66363988Y-173339676D02*
X66402083Y-173263485D01*
X66402083Y-173263485D02*
X66440178Y-173225390D01*
X66440178Y-173225390D02*
X66516369Y-173187295D01*
X66516369Y-173187295D02*
X66668750Y-173187295D01*
X66668750Y-173187295D02*
X66744940Y-173225390D01*
X66744940Y-173225390D02*
X66783035Y-173263485D01*
X66783035Y-173263485D02*
X66821131Y-173339676D01*
X66821131Y-173339676D02*
X66821131Y-173530152D01*
X66821131Y-173530152D02*
X66783035Y-173606342D01*
X66783035Y-173606342D02*
X66744940Y-173644438D01*
X66744940Y-173644438D02*
X66668750Y-173682533D01*
X66668750Y-173682533D02*
X66516369Y-173682533D01*
X66516369Y-173682533D02*
X66440178Y-173644438D01*
X66440178Y-173644438D02*
X66402083Y-173606342D01*
X66402083Y-173606342D02*
X66363988Y-173530152D01*
X65411606Y-173987295D02*
X65411606Y-173187295D01*
X64954463Y-173987295D02*
X65297321Y-173530152D01*
X64954463Y-173187295D02*
X65411606Y-173644438D01*
X73107440Y-193037295D02*
X73107440Y-192237295D01*
X73107440Y-192237295D02*
X72916964Y-192237295D01*
X72916964Y-192237295D02*
X72802678Y-192275390D01*
X72802678Y-192275390D02*
X72726488Y-192351580D01*
X72726488Y-192351580D02*
X72688393Y-192427771D01*
X72688393Y-192427771D02*
X72650297Y-192580152D01*
X72650297Y-192580152D02*
X72650297Y-192694438D01*
X72650297Y-192694438D02*
X72688393Y-192846819D01*
X72688393Y-192846819D02*
X72726488Y-192923009D01*
X72726488Y-192923009D02*
X72802678Y-192999200D01*
X72802678Y-192999200D02*
X72916964Y-193037295D01*
X72916964Y-193037295D02*
X73107440Y-193037295D01*
X71964583Y-192503961D02*
X71964583Y-193037295D01*
X72155059Y-192199200D02*
X72345536Y-192770628D01*
X72345536Y-192770628D02*
X71850297Y-192770628D01*
X71583631Y-192313485D02*
X71545535Y-192275390D01*
X71545535Y-192275390D02*
X71469345Y-192237295D01*
X71469345Y-192237295D02*
X71278869Y-192237295D01*
X71278869Y-192237295D02*
X71202678Y-192275390D01*
X71202678Y-192275390D02*
X71164583Y-192313485D01*
X71164583Y-192313485D02*
X71126488Y-192389676D01*
X71126488Y-192389676D02*
X71126488Y-192465866D01*
X71126488Y-192465866D02*
X71164583Y-192580152D01*
X71164583Y-192580152D02*
X71621726Y-193037295D01*
X71621726Y-193037295D02*
X71126488Y-193037295D01*
X70174106Y-193037295D02*
X70174106Y-192237295D01*
X69716963Y-193037295D02*
X70059821Y-192580152D01*
X69716963Y-192237295D02*
X70174106Y-192694438D01*
X87394940Y-212087295D02*
X87394940Y-211287295D01*
X87394940Y-211287295D02*
X87204464Y-211287295D01*
X87204464Y-211287295D02*
X87090178Y-211325390D01*
X87090178Y-211325390D02*
X87013988Y-211401580D01*
X87013988Y-211401580D02*
X86975893Y-211477771D01*
X86975893Y-211477771D02*
X86937797Y-211630152D01*
X86937797Y-211630152D02*
X86937797Y-211744438D01*
X86937797Y-211744438D02*
X86975893Y-211896819D01*
X86975893Y-211896819D02*
X87013988Y-211973009D01*
X87013988Y-211973009D02*
X87090178Y-212049200D01*
X87090178Y-212049200D02*
X87204464Y-212087295D01*
X87204464Y-212087295D02*
X87394940Y-212087295D01*
X86213988Y-211287295D02*
X86594940Y-211287295D01*
X86594940Y-211287295D02*
X86633036Y-211668247D01*
X86633036Y-211668247D02*
X86594940Y-211630152D01*
X86594940Y-211630152D02*
X86518750Y-211592057D01*
X86518750Y-211592057D02*
X86328274Y-211592057D01*
X86328274Y-211592057D02*
X86252083Y-211630152D01*
X86252083Y-211630152D02*
X86213988Y-211668247D01*
X86213988Y-211668247D02*
X86175893Y-211744438D01*
X86175893Y-211744438D02*
X86175893Y-211934914D01*
X86175893Y-211934914D02*
X86213988Y-212011104D01*
X86213988Y-212011104D02*
X86252083Y-212049200D01*
X86252083Y-212049200D02*
X86328274Y-212087295D01*
X86328274Y-212087295D02*
X86518750Y-212087295D01*
X86518750Y-212087295D02*
X86594940Y-212049200D01*
X86594940Y-212049200D02*
X86633036Y-212011104D01*
X85452083Y-211287295D02*
X85833035Y-211287295D01*
X85833035Y-211287295D02*
X85871131Y-211668247D01*
X85871131Y-211668247D02*
X85833035Y-211630152D01*
X85833035Y-211630152D02*
X85756845Y-211592057D01*
X85756845Y-211592057D02*
X85566369Y-211592057D01*
X85566369Y-211592057D02*
X85490178Y-211630152D01*
X85490178Y-211630152D02*
X85452083Y-211668247D01*
X85452083Y-211668247D02*
X85413988Y-211744438D01*
X85413988Y-211744438D02*
X85413988Y-211934914D01*
X85413988Y-211934914D02*
X85452083Y-212011104D01*
X85452083Y-212011104D02*
X85490178Y-212049200D01*
X85490178Y-212049200D02*
X85566369Y-212087295D01*
X85566369Y-212087295D02*
X85756845Y-212087295D01*
X85756845Y-212087295D02*
X85833035Y-212049200D01*
X85833035Y-212049200D02*
X85871131Y-212011104D01*
X84461606Y-212087295D02*
X84461606Y-211287295D01*
X84004463Y-212087295D02*
X84347321Y-211630152D01*
X84004463Y-211287295D02*
X84461606Y-211744438D01*
X94538690Y-173987295D02*
X94538690Y-173187295D01*
X94538690Y-173187295D02*
X94348214Y-173187295D01*
X94348214Y-173187295D02*
X94233928Y-173225390D01*
X94233928Y-173225390D02*
X94157738Y-173301580D01*
X94157738Y-173301580D02*
X94119643Y-173377771D01*
X94119643Y-173377771D02*
X94081547Y-173530152D01*
X94081547Y-173530152D02*
X94081547Y-173644438D01*
X94081547Y-173644438D02*
X94119643Y-173796819D01*
X94119643Y-173796819D02*
X94157738Y-173873009D01*
X94157738Y-173873009D02*
X94233928Y-173949200D01*
X94233928Y-173949200D02*
X94348214Y-173987295D01*
X94348214Y-173987295D02*
X94538690Y-173987295D01*
X93814881Y-173187295D02*
X93319643Y-173187295D01*
X93319643Y-173187295D02*
X93586309Y-173492057D01*
X93586309Y-173492057D02*
X93472024Y-173492057D01*
X93472024Y-173492057D02*
X93395833Y-173530152D01*
X93395833Y-173530152D02*
X93357738Y-173568247D01*
X93357738Y-173568247D02*
X93319643Y-173644438D01*
X93319643Y-173644438D02*
X93319643Y-173834914D01*
X93319643Y-173834914D02*
X93357738Y-173911104D01*
X93357738Y-173911104D02*
X93395833Y-173949200D01*
X93395833Y-173949200D02*
X93472024Y-173987295D01*
X93472024Y-173987295D02*
X93700595Y-173987295D01*
X93700595Y-173987295D02*
X93776786Y-173949200D01*
X93776786Y-173949200D02*
X93814881Y-173911104D01*
X92824404Y-173187295D02*
X92748214Y-173187295D01*
X92748214Y-173187295D02*
X92672023Y-173225390D01*
X92672023Y-173225390D02*
X92633928Y-173263485D01*
X92633928Y-173263485D02*
X92595833Y-173339676D01*
X92595833Y-173339676D02*
X92557738Y-173492057D01*
X92557738Y-173492057D02*
X92557738Y-173682533D01*
X92557738Y-173682533D02*
X92595833Y-173834914D01*
X92595833Y-173834914D02*
X92633928Y-173911104D01*
X92633928Y-173911104D02*
X92672023Y-173949200D01*
X92672023Y-173949200D02*
X92748214Y-173987295D01*
X92748214Y-173987295D02*
X92824404Y-173987295D01*
X92824404Y-173987295D02*
X92900595Y-173949200D01*
X92900595Y-173949200D02*
X92938690Y-173911104D01*
X92938690Y-173911104D02*
X92976785Y-173834914D01*
X92976785Y-173834914D02*
X93014881Y-173682533D01*
X93014881Y-173682533D02*
X93014881Y-173492057D01*
X93014881Y-173492057D02*
X92976785Y-173339676D01*
X92976785Y-173339676D02*
X92938690Y-173263485D01*
X92938690Y-173263485D02*
X92900595Y-173225390D01*
X92900595Y-173225390D02*
X92824404Y-173187295D01*
X91605356Y-173987295D02*
X91605356Y-173187295D01*
X91148213Y-173987295D02*
X91491071Y-173530152D01*
X91148213Y-173187295D02*
X91605356Y-173644438D01*
X104063690Y-193037295D02*
X104063690Y-192237295D01*
X104063690Y-192237295D02*
X103873214Y-192237295D01*
X103873214Y-192237295D02*
X103758928Y-192275390D01*
X103758928Y-192275390D02*
X103682738Y-192351580D01*
X103682738Y-192351580D02*
X103644643Y-192427771D01*
X103644643Y-192427771D02*
X103606547Y-192580152D01*
X103606547Y-192580152D02*
X103606547Y-192694438D01*
X103606547Y-192694438D02*
X103644643Y-192846819D01*
X103644643Y-192846819D02*
X103682738Y-192923009D01*
X103682738Y-192923009D02*
X103758928Y-192999200D01*
X103758928Y-192999200D02*
X103873214Y-193037295D01*
X103873214Y-193037295D02*
X104063690Y-193037295D01*
X102920833Y-192503961D02*
X102920833Y-193037295D01*
X103111309Y-192199200D02*
X103301786Y-192770628D01*
X103301786Y-192770628D02*
X102806547Y-192770628D01*
X102577976Y-192237295D02*
X102082738Y-192237295D01*
X102082738Y-192237295D02*
X102349404Y-192542057D01*
X102349404Y-192542057D02*
X102235119Y-192542057D01*
X102235119Y-192542057D02*
X102158928Y-192580152D01*
X102158928Y-192580152D02*
X102120833Y-192618247D01*
X102120833Y-192618247D02*
X102082738Y-192694438D01*
X102082738Y-192694438D02*
X102082738Y-192884914D01*
X102082738Y-192884914D02*
X102120833Y-192961104D01*
X102120833Y-192961104D02*
X102158928Y-192999200D01*
X102158928Y-192999200D02*
X102235119Y-193037295D01*
X102235119Y-193037295D02*
X102463690Y-193037295D01*
X102463690Y-193037295D02*
X102539881Y-192999200D01*
X102539881Y-192999200D02*
X102577976Y-192961104D01*
X101130356Y-193037295D02*
X101130356Y-192237295D01*
X100673213Y-193037295D02*
X101016071Y-192580152D01*
X100673213Y-192237295D02*
X101130356Y-192694438D01*
X111207440Y-212087295D02*
X111207440Y-211287295D01*
X111207440Y-211287295D02*
X111016964Y-211287295D01*
X111016964Y-211287295D02*
X110902678Y-211325390D01*
X110902678Y-211325390D02*
X110826488Y-211401580D01*
X110826488Y-211401580D02*
X110788393Y-211477771D01*
X110788393Y-211477771D02*
X110750297Y-211630152D01*
X110750297Y-211630152D02*
X110750297Y-211744438D01*
X110750297Y-211744438D02*
X110788393Y-211896819D01*
X110788393Y-211896819D02*
X110826488Y-211973009D01*
X110826488Y-211973009D02*
X110902678Y-212049200D01*
X110902678Y-212049200D02*
X111016964Y-212087295D01*
X111016964Y-212087295D02*
X111207440Y-212087295D01*
X110026488Y-211287295D02*
X110407440Y-211287295D01*
X110407440Y-211287295D02*
X110445536Y-211668247D01*
X110445536Y-211668247D02*
X110407440Y-211630152D01*
X110407440Y-211630152D02*
X110331250Y-211592057D01*
X110331250Y-211592057D02*
X110140774Y-211592057D01*
X110140774Y-211592057D02*
X110064583Y-211630152D01*
X110064583Y-211630152D02*
X110026488Y-211668247D01*
X110026488Y-211668247D02*
X109988393Y-211744438D01*
X109988393Y-211744438D02*
X109988393Y-211934914D01*
X109988393Y-211934914D02*
X110026488Y-212011104D01*
X110026488Y-212011104D02*
X110064583Y-212049200D01*
X110064583Y-212049200D02*
X110140774Y-212087295D01*
X110140774Y-212087295D02*
X110331250Y-212087295D01*
X110331250Y-212087295D02*
X110407440Y-212049200D01*
X110407440Y-212049200D02*
X110445536Y-212011104D01*
X109302678Y-211287295D02*
X109455059Y-211287295D01*
X109455059Y-211287295D02*
X109531250Y-211325390D01*
X109531250Y-211325390D02*
X109569345Y-211363485D01*
X109569345Y-211363485D02*
X109645535Y-211477771D01*
X109645535Y-211477771D02*
X109683631Y-211630152D01*
X109683631Y-211630152D02*
X109683631Y-211934914D01*
X109683631Y-211934914D02*
X109645535Y-212011104D01*
X109645535Y-212011104D02*
X109607440Y-212049200D01*
X109607440Y-212049200D02*
X109531250Y-212087295D01*
X109531250Y-212087295D02*
X109378869Y-212087295D01*
X109378869Y-212087295D02*
X109302678Y-212049200D01*
X109302678Y-212049200D02*
X109264583Y-212011104D01*
X109264583Y-212011104D02*
X109226488Y-211934914D01*
X109226488Y-211934914D02*
X109226488Y-211744438D01*
X109226488Y-211744438D02*
X109264583Y-211668247D01*
X109264583Y-211668247D02*
X109302678Y-211630152D01*
X109302678Y-211630152D02*
X109378869Y-211592057D01*
X109378869Y-211592057D02*
X109531250Y-211592057D01*
X109531250Y-211592057D02*
X109607440Y-211630152D01*
X109607440Y-211630152D02*
X109645535Y-211668247D01*
X109645535Y-211668247D02*
X109683631Y-211744438D01*
X108274106Y-212087295D02*
X108274106Y-211287295D01*
X107816963Y-212087295D02*
X108159821Y-211630152D01*
X107816963Y-211287295D02*
X108274106Y-211744438D01*
X113588690Y-173987295D02*
X113588690Y-173187295D01*
X113588690Y-173187295D02*
X113398214Y-173187295D01*
X113398214Y-173187295D02*
X113283928Y-173225390D01*
X113283928Y-173225390D02*
X113207738Y-173301580D01*
X113207738Y-173301580D02*
X113169643Y-173377771D01*
X113169643Y-173377771D02*
X113131547Y-173530152D01*
X113131547Y-173530152D02*
X113131547Y-173644438D01*
X113131547Y-173644438D02*
X113169643Y-173796819D01*
X113169643Y-173796819D02*
X113207738Y-173873009D01*
X113207738Y-173873009D02*
X113283928Y-173949200D01*
X113283928Y-173949200D02*
X113398214Y-173987295D01*
X113398214Y-173987295D02*
X113588690Y-173987295D01*
X112864881Y-173187295D02*
X112369643Y-173187295D01*
X112369643Y-173187295D02*
X112636309Y-173492057D01*
X112636309Y-173492057D02*
X112522024Y-173492057D01*
X112522024Y-173492057D02*
X112445833Y-173530152D01*
X112445833Y-173530152D02*
X112407738Y-173568247D01*
X112407738Y-173568247D02*
X112369643Y-173644438D01*
X112369643Y-173644438D02*
X112369643Y-173834914D01*
X112369643Y-173834914D02*
X112407738Y-173911104D01*
X112407738Y-173911104D02*
X112445833Y-173949200D01*
X112445833Y-173949200D02*
X112522024Y-173987295D01*
X112522024Y-173987295D02*
X112750595Y-173987295D01*
X112750595Y-173987295D02*
X112826786Y-173949200D01*
X112826786Y-173949200D02*
X112864881Y-173911104D01*
X111607738Y-173987295D02*
X112064881Y-173987295D01*
X111836309Y-173987295D02*
X111836309Y-173187295D01*
X111836309Y-173187295D02*
X111912500Y-173301580D01*
X111912500Y-173301580D02*
X111988690Y-173377771D01*
X111988690Y-173377771D02*
X112064881Y-173415866D01*
X110655356Y-173987295D02*
X110655356Y-173187295D01*
X110198213Y-173987295D02*
X110541071Y-173530152D01*
X110198213Y-173187295D02*
X110655356Y-173644438D01*
X117970237Y-135887295D02*
X117970237Y-135087295D01*
X117970237Y-135087295D02*
X117779761Y-135087295D01*
X117779761Y-135087295D02*
X117665475Y-135125390D01*
X117665475Y-135125390D02*
X117589285Y-135201580D01*
X117589285Y-135201580D02*
X117551190Y-135277771D01*
X117551190Y-135277771D02*
X117513094Y-135430152D01*
X117513094Y-135430152D02*
X117513094Y-135544438D01*
X117513094Y-135544438D02*
X117551190Y-135696819D01*
X117551190Y-135696819D02*
X117589285Y-135773009D01*
X117589285Y-135773009D02*
X117665475Y-135849200D01*
X117665475Y-135849200D02*
X117779761Y-135887295D01*
X117779761Y-135887295D02*
X117970237Y-135887295D01*
X116827380Y-135353961D02*
X116827380Y-135887295D01*
X117017856Y-135049200D02*
X117208333Y-135620628D01*
X117208333Y-135620628D02*
X116713094Y-135620628D01*
X115798808Y-135887295D02*
X115798808Y-135087295D01*
X115341665Y-135887295D02*
X115684523Y-135430152D01*
X115341665Y-135087295D02*
X115798808Y-135544438D01*
X123113690Y-193037295D02*
X123113690Y-192237295D01*
X123113690Y-192237295D02*
X122923214Y-192237295D01*
X122923214Y-192237295D02*
X122808928Y-192275390D01*
X122808928Y-192275390D02*
X122732738Y-192351580D01*
X122732738Y-192351580D02*
X122694643Y-192427771D01*
X122694643Y-192427771D02*
X122656547Y-192580152D01*
X122656547Y-192580152D02*
X122656547Y-192694438D01*
X122656547Y-192694438D02*
X122694643Y-192846819D01*
X122694643Y-192846819D02*
X122732738Y-192923009D01*
X122732738Y-192923009D02*
X122808928Y-192999200D01*
X122808928Y-192999200D02*
X122923214Y-193037295D01*
X122923214Y-193037295D02*
X123113690Y-193037295D01*
X121970833Y-192503961D02*
X121970833Y-193037295D01*
X122161309Y-192199200D02*
X122351786Y-192770628D01*
X122351786Y-192770628D02*
X121856547Y-192770628D01*
X121208928Y-192503961D02*
X121208928Y-193037295D01*
X121399404Y-192199200D02*
X121589881Y-192770628D01*
X121589881Y-192770628D02*
X121094642Y-192770628D01*
X120180356Y-193037295D02*
X120180356Y-192237295D01*
X119723213Y-193037295D02*
X120066071Y-192580152D01*
X119723213Y-192237295D02*
X120180356Y-192694438D01*
X127876190Y-154937295D02*
X127876190Y-154137295D01*
X127876190Y-154137295D02*
X127685714Y-154137295D01*
X127685714Y-154137295D02*
X127571428Y-154175390D01*
X127571428Y-154175390D02*
X127495238Y-154251580D01*
X127495238Y-154251580D02*
X127457143Y-154327771D01*
X127457143Y-154327771D02*
X127419047Y-154480152D01*
X127419047Y-154480152D02*
X127419047Y-154594438D01*
X127419047Y-154594438D02*
X127457143Y-154746819D01*
X127457143Y-154746819D02*
X127495238Y-154823009D01*
X127495238Y-154823009D02*
X127571428Y-154899200D01*
X127571428Y-154899200D02*
X127685714Y-154937295D01*
X127685714Y-154937295D02*
X127876190Y-154937295D01*
X126657143Y-154937295D02*
X127114286Y-154937295D01*
X126885714Y-154937295D02*
X126885714Y-154137295D01*
X126885714Y-154137295D02*
X126961905Y-154251580D01*
X126961905Y-154251580D02*
X127038095Y-154327771D01*
X127038095Y-154327771D02*
X127114286Y-154365866D01*
X126200000Y-154480152D02*
X126276190Y-154442057D01*
X126276190Y-154442057D02*
X126314285Y-154403961D01*
X126314285Y-154403961D02*
X126352381Y-154327771D01*
X126352381Y-154327771D02*
X126352381Y-154289676D01*
X126352381Y-154289676D02*
X126314285Y-154213485D01*
X126314285Y-154213485D02*
X126276190Y-154175390D01*
X126276190Y-154175390D02*
X126200000Y-154137295D01*
X126200000Y-154137295D02*
X126047619Y-154137295D01*
X126047619Y-154137295D02*
X125971428Y-154175390D01*
X125971428Y-154175390D02*
X125933333Y-154213485D01*
X125933333Y-154213485D02*
X125895238Y-154289676D01*
X125895238Y-154289676D02*
X125895238Y-154327771D01*
X125895238Y-154327771D02*
X125933333Y-154403961D01*
X125933333Y-154403961D02*
X125971428Y-154442057D01*
X125971428Y-154442057D02*
X126047619Y-154480152D01*
X126047619Y-154480152D02*
X126200000Y-154480152D01*
X126200000Y-154480152D02*
X126276190Y-154518247D01*
X126276190Y-154518247D02*
X126314285Y-154556342D01*
X126314285Y-154556342D02*
X126352381Y-154632533D01*
X126352381Y-154632533D02*
X126352381Y-154784914D01*
X126352381Y-154784914D02*
X126314285Y-154861104D01*
X126314285Y-154861104D02*
X126276190Y-154899200D01*
X126276190Y-154899200D02*
X126200000Y-154937295D01*
X126200000Y-154937295D02*
X126047619Y-154937295D01*
X126047619Y-154937295D02*
X125971428Y-154899200D01*
X125971428Y-154899200D02*
X125933333Y-154861104D01*
X125933333Y-154861104D02*
X125895238Y-154784914D01*
X125895238Y-154784914D02*
X125895238Y-154632533D01*
X125895238Y-154632533D02*
X125933333Y-154556342D01*
X125933333Y-154556342D02*
X125971428Y-154518247D01*
X125971428Y-154518247D02*
X126047619Y-154480152D01*
X124942856Y-154937295D02*
X124942856Y-154137295D01*
X124485713Y-154937295D02*
X124828571Y-154480152D01*
X124485713Y-154137295D02*
X124942856Y-154594438D01*
X132638690Y-173987295D02*
X132638690Y-173187295D01*
X132638690Y-173187295D02*
X132448214Y-173187295D01*
X132448214Y-173187295D02*
X132333928Y-173225390D01*
X132333928Y-173225390D02*
X132257738Y-173301580D01*
X132257738Y-173301580D02*
X132219643Y-173377771D01*
X132219643Y-173377771D02*
X132181547Y-173530152D01*
X132181547Y-173530152D02*
X132181547Y-173644438D01*
X132181547Y-173644438D02*
X132219643Y-173796819D01*
X132219643Y-173796819D02*
X132257738Y-173873009D01*
X132257738Y-173873009D02*
X132333928Y-173949200D01*
X132333928Y-173949200D02*
X132448214Y-173987295D01*
X132448214Y-173987295D02*
X132638690Y-173987295D01*
X131914881Y-173187295D02*
X131419643Y-173187295D01*
X131419643Y-173187295D02*
X131686309Y-173492057D01*
X131686309Y-173492057D02*
X131572024Y-173492057D01*
X131572024Y-173492057D02*
X131495833Y-173530152D01*
X131495833Y-173530152D02*
X131457738Y-173568247D01*
X131457738Y-173568247D02*
X131419643Y-173644438D01*
X131419643Y-173644438D02*
X131419643Y-173834914D01*
X131419643Y-173834914D02*
X131457738Y-173911104D01*
X131457738Y-173911104D02*
X131495833Y-173949200D01*
X131495833Y-173949200D02*
X131572024Y-173987295D01*
X131572024Y-173987295D02*
X131800595Y-173987295D01*
X131800595Y-173987295D02*
X131876786Y-173949200D01*
X131876786Y-173949200D02*
X131914881Y-173911104D01*
X131114881Y-173263485D02*
X131076785Y-173225390D01*
X131076785Y-173225390D02*
X131000595Y-173187295D01*
X131000595Y-173187295D02*
X130810119Y-173187295D01*
X130810119Y-173187295D02*
X130733928Y-173225390D01*
X130733928Y-173225390D02*
X130695833Y-173263485D01*
X130695833Y-173263485D02*
X130657738Y-173339676D01*
X130657738Y-173339676D02*
X130657738Y-173415866D01*
X130657738Y-173415866D02*
X130695833Y-173530152D01*
X130695833Y-173530152D02*
X131152976Y-173987295D01*
X131152976Y-173987295D02*
X130657738Y-173987295D01*
X129705356Y-173987295D02*
X129705356Y-173187295D01*
X129248213Y-173987295D02*
X129591071Y-173530152D01*
X129248213Y-173187295D02*
X129705356Y-173644438D01*
X137020237Y-135887295D02*
X137020237Y-135087295D01*
X137020237Y-135087295D02*
X136829761Y-135087295D01*
X136829761Y-135087295D02*
X136715475Y-135125390D01*
X136715475Y-135125390D02*
X136639285Y-135201580D01*
X136639285Y-135201580D02*
X136601190Y-135277771D01*
X136601190Y-135277771D02*
X136563094Y-135430152D01*
X136563094Y-135430152D02*
X136563094Y-135544438D01*
X136563094Y-135544438D02*
X136601190Y-135696819D01*
X136601190Y-135696819D02*
X136639285Y-135773009D01*
X136639285Y-135773009D02*
X136715475Y-135849200D01*
X136715475Y-135849200D02*
X136829761Y-135887295D01*
X136829761Y-135887295D02*
X137020237Y-135887295D01*
X135839285Y-135087295D02*
X136220237Y-135087295D01*
X136220237Y-135087295D02*
X136258333Y-135468247D01*
X136258333Y-135468247D02*
X136220237Y-135430152D01*
X136220237Y-135430152D02*
X136144047Y-135392057D01*
X136144047Y-135392057D02*
X135953571Y-135392057D01*
X135953571Y-135392057D02*
X135877380Y-135430152D01*
X135877380Y-135430152D02*
X135839285Y-135468247D01*
X135839285Y-135468247D02*
X135801190Y-135544438D01*
X135801190Y-135544438D02*
X135801190Y-135734914D01*
X135801190Y-135734914D02*
X135839285Y-135811104D01*
X135839285Y-135811104D02*
X135877380Y-135849200D01*
X135877380Y-135849200D02*
X135953571Y-135887295D01*
X135953571Y-135887295D02*
X136144047Y-135887295D01*
X136144047Y-135887295D02*
X136220237Y-135849200D01*
X136220237Y-135849200D02*
X136258333Y-135811104D01*
X134848808Y-135887295D02*
X134848808Y-135087295D01*
X134391665Y-135887295D02*
X134734523Y-135430152D01*
X134391665Y-135087295D02*
X134848808Y-135544438D01*
X139485237Y-209062295D02*
X139485237Y-208262295D01*
X139485237Y-208262295D02*
X139294761Y-208262295D01*
X139294761Y-208262295D02*
X139180475Y-208300390D01*
X139180475Y-208300390D02*
X139104285Y-208376580D01*
X139104285Y-208376580D02*
X139066190Y-208452771D01*
X139066190Y-208452771D02*
X139028094Y-208605152D01*
X139028094Y-208605152D02*
X139028094Y-208719438D01*
X139028094Y-208719438D02*
X139066190Y-208871819D01*
X139066190Y-208871819D02*
X139104285Y-208948009D01*
X139104285Y-208948009D02*
X139180475Y-209024200D01*
X139180475Y-209024200D02*
X139294761Y-209062295D01*
X139294761Y-209062295D02*
X139485237Y-209062295D01*
X138266190Y-209062295D02*
X138723333Y-209062295D01*
X138494761Y-209062295D02*
X138494761Y-208262295D01*
X138494761Y-208262295D02*
X138570952Y-208376580D01*
X138570952Y-208376580D02*
X138647142Y-208452771D01*
X138647142Y-208452771D02*
X138723333Y-208490866D01*
X137313808Y-209062295D02*
X137313808Y-208262295D01*
X136856665Y-209062295D02*
X137199523Y-208605152D01*
X136856665Y-208262295D02*
X137313808Y-208719438D01*
X142163690Y-193037295D02*
X142163690Y-192237295D01*
X142163690Y-192237295D02*
X141973214Y-192237295D01*
X141973214Y-192237295D02*
X141858928Y-192275390D01*
X141858928Y-192275390D02*
X141782738Y-192351580D01*
X141782738Y-192351580D02*
X141744643Y-192427771D01*
X141744643Y-192427771D02*
X141706547Y-192580152D01*
X141706547Y-192580152D02*
X141706547Y-192694438D01*
X141706547Y-192694438D02*
X141744643Y-192846819D01*
X141744643Y-192846819D02*
X141782738Y-192923009D01*
X141782738Y-192923009D02*
X141858928Y-192999200D01*
X141858928Y-192999200D02*
X141973214Y-193037295D01*
X141973214Y-193037295D02*
X142163690Y-193037295D01*
X141020833Y-192503961D02*
X141020833Y-193037295D01*
X141211309Y-192199200D02*
X141401786Y-192770628D01*
X141401786Y-192770628D02*
X140906547Y-192770628D01*
X140220833Y-192237295D02*
X140601785Y-192237295D01*
X140601785Y-192237295D02*
X140639881Y-192618247D01*
X140639881Y-192618247D02*
X140601785Y-192580152D01*
X140601785Y-192580152D02*
X140525595Y-192542057D01*
X140525595Y-192542057D02*
X140335119Y-192542057D01*
X140335119Y-192542057D02*
X140258928Y-192580152D01*
X140258928Y-192580152D02*
X140220833Y-192618247D01*
X140220833Y-192618247D02*
X140182738Y-192694438D01*
X140182738Y-192694438D02*
X140182738Y-192884914D01*
X140182738Y-192884914D02*
X140220833Y-192961104D01*
X140220833Y-192961104D02*
X140258928Y-192999200D01*
X140258928Y-192999200D02*
X140335119Y-193037295D01*
X140335119Y-193037295D02*
X140525595Y-193037295D01*
X140525595Y-193037295D02*
X140601785Y-192999200D01*
X140601785Y-192999200D02*
X140639881Y-192961104D01*
X139230356Y-193037295D02*
X139230356Y-192237295D01*
X138773213Y-193037295D02*
X139116071Y-192580152D01*
X138773213Y-192237295D02*
X139230356Y-192694438D01*
X146926190Y-154937295D02*
X146926190Y-154137295D01*
X146926190Y-154137295D02*
X146735714Y-154137295D01*
X146735714Y-154137295D02*
X146621428Y-154175390D01*
X146621428Y-154175390D02*
X146545238Y-154251580D01*
X146545238Y-154251580D02*
X146507143Y-154327771D01*
X146507143Y-154327771D02*
X146469047Y-154480152D01*
X146469047Y-154480152D02*
X146469047Y-154594438D01*
X146469047Y-154594438D02*
X146507143Y-154746819D01*
X146507143Y-154746819D02*
X146545238Y-154823009D01*
X146545238Y-154823009D02*
X146621428Y-154899200D01*
X146621428Y-154899200D02*
X146735714Y-154937295D01*
X146735714Y-154937295D02*
X146926190Y-154937295D01*
X145707143Y-154937295D02*
X146164286Y-154937295D01*
X145935714Y-154937295D02*
X145935714Y-154137295D01*
X145935714Y-154137295D02*
X146011905Y-154251580D01*
X146011905Y-154251580D02*
X146088095Y-154327771D01*
X146088095Y-154327771D02*
X146164286Y-154365866D01*
X145326190Y-154937295D02*
X145173809Y-154937295D01*
X145173809Y-154937295D02*
X145097619Y-154899200D01*
X145097619Y-154899200D02*
X145059523Y-154861104D01*
X145059523Y-154861104D02*
X144983333Y-154746819D01*
X144983333Y-154746819D02*
X144945238Y-154594438D01*
X144945238Y-154594438D02*
X144945238Y-154289676D01*
X144945238Y-154289676D02*
X144983333Y-154213485D01*
X144983333Y-154213485D02*
X145021428Y-154175390D01*
X145021428Y-154175390D02*
X145097619Y-154137295D01*
X145097619Y-154137295D02*
X145250000Y-154137295D01*
X145250000Y-154137295D02*
X145326190Y-154175390D01*
X145326190Y-154175390D02*
X145364285Y-154213485D01*
X145364285Y-154213485D02*
X145402381Y-154289676D01*
X145402381Y-154289676D02*
X145402381Y-154480152D01*
X145402381Y-154480152D02*
X145364285Y-154556342D01*
X145364285Y-154556342D02*
X145326190Y-154594438D01*
X145326190Y-154594438D02*
X145250000Y-154632533D01*
X145250000Y-154632533D02*
X145097619Y-154632533D01*
X145097619Y-154632533D02*
X145021428Y-154594438D01*
X145021428Y-154594438D02*
X144983333Y-154556342D01*
X144983333Y-154556342D02*
X144945238Y-154480152D01*
X143992856Y-154937295D02*
X143992856Y-154137295D01*
X143535713Y-154937295D02*
X143878571Y-154480152D01*
X143535713Y-154137295D02*
X143992856Y-154594438D01*
X151688690Y-173987295D02*
X151688690Y-173187295D01*
X151688690Y-173187295D02*
X151498214Y-173187295D01*
X151498214Y-173187295D02*
X151383928Y-173225390D01*
X151383928Y-173225390D02*
X151307738Y-173301580D01*
X151307738Y-173301580D02*
X151269643Y-173377771D01*
X151269643Y-173377771D02*
X151231547Y-173530152D01*
X151231547Y-173530152D02*
X151231547Y-173644438D01*
X151231547Y-173644438D02*
X151269643Y-173796819D01*
X151269643Y-173796819D02*
X151307738Y-173873009D01*
X151307738Y-173873009D02*
X151383928Y-173949200D01*
X151383928Y-173949200D02*
X151498214Y-173987295D01*
X151498214Y-173987295D02*
X151688690Y-173987295D01*
X150964881Y-173187295D02*
X150469643Y-173187295D01*
X150469643Y-173187295D02*
X150736309Y-173492057D01*
X150736309Y-173492057D02*
X150622024Y-173492057D01*
X150622024Y-173492057D02*
X150545833Y-173530152D01*
X150545833Y-173530152D02*
X150507738Y-173568247D01*
X150507738Y-173568247D02*
X150469643Y-173644438D01*
X150469643Y-173644438D02*
X150469643Y-173834914D01*
X150469643Y-173834914D02*
X150507738Y-173911104D01*
X150507738Y-173911104D02*
X150545833Y-173949200D01*
X150545833Y-173949200D02*
X150622024Y-173987295D01*
X150622024Y-173987295D02*
X150850595Y-173987295D01*
X150850595Y-173987295D02*
X150926786Y-173949200D01*
X150926786Y-173949200D02*
X150964881Y-173911104D01*
X150202976Y-173187295D02*
X149707738Y-173187295D01*
X149707738Y-173187295D02*
X149974404Y-173492057D01*
X149974404Y-173492057D02*
X149860119Y-173492057D01*
X149860119Y-173492057D02*
X149783928Y-173530152D01*
X149783928Y-173530152D02*
X149745833Y-173568247D01*
X149745833Y-173568247D02*
X149707738Y-173644438D01*
X149707738Y-173644438D02*
X149707738Y-173834914D01*
X149707738Y-173834914D02*
X149745833Y-173911104D01*
X149745833Y-173911104D02*
X149783928Y-173949200D01*
X149783928Y-173949200D02*
X149860119Y-173987295D01*
X149860119Y-173987295D02*
X150088690Y-173987295D01*
X150088690Y-173987295D02*
X150164881Y-173949200D01*
X150164881Y-173949200D02*
X150202976Y-173911104D01*
X148755356Y-173987295D02*
X148755356Y-173187295D01*
X148298213Y-173987295D02*
X148641071Y-173530152D01*
X148298213Y-173187295D02*
X148755356Y-173644438D01*
X152485237Y-209062295D02*
X152485237Y-208262295D01*
X152485237Y-208262295D02*
X152294761Y-208262295D01*
X152294761Y-208262295D02*
X152180475Y-208300390D01*
X152180475Y-208300390D02*
X152104285Y-208376580D01*
X152104285Y-208376580D02*
X152066190Y-208452771D01*
X152066190Y-208452771D02*
X152028094Y-208605152D01*
X152028094Y-208605152D02*
X152028094Y-208719438D01*
X152028094Y-208719438D02*
X152066190Y-208871819D01*
X152066190Y-208871819D02*
X152104285Y-208948009D01*
X152104285Y-208948009D02*
X152180475Y-209024200D01*
X152180475Y-209024200D02*
X152294761Y-209062295D01*
X152294761Y-209062295D02*
X152485237Y-209062295D01*
X151723333Y-208338485D02*
X151685237Y-208300390D01*
X151685237Y-208300390D02*
X151609047Y-208262295D01*
X151609047Y-208262295D02*
X151418571Y-208262295D01*
X151418571Y-208262295D02*
X151342380Y-208300390D01*
X151342380Y-208300390D02*
X151304285Y-208338485D01*
X151304285Y-208338485D02*
X151266190Y-208414676D01*
X151266190Y-208414676D02*
X151266190Y-208490866D01*
X151266190Y-208490866D02*
X151304285Y-208605152D01*
X151304285Y-208605152D02*
X151761428Y-209062295D01*
X151761428Y-209062295D02*
X151266190Y-209062295D01*
X150313808Y-209062295D02*
X150313808Y-208262295D01*
X149856665Y-209062295D02*
X150199523Y-208605152D01*
X149856665Y-208262295D02*
X150313808Y-208719438D01*
X156070237Y-135887295D02*
X156070237Y-135087295D01*
X156070237Y-135087295D02*
X155879761Y-135087295D01*
X155879761Y-135087295D02*
X155765475Y-135125390D01*
X155765475Y-135125390D02*
X155689285Y-135201580D01*
X155689285Y-135201580D02*
X155651190Y-135277771D01*
X155651190Y-135277771D02*
X155613094Y-135430152D01*
X155613094Y-135430152D02*
X155613094Y-135544438D01*
X155613094Y-135544438D02*
X155651190Y-135696819D01*
X155651190Y-135696819D02*
X155689285Y-135773009D01*
X155689285Y-135773009D02*
X155765475Y-135849200D01*
X155765475Y-135849200D02*
X155879761Y-135887295D01*
X155879761Y-135887295D02*
X156070237Y-135887295D01*
X154927380Y-135087295D02*
X155079761Y-135087295D01*
X155079761Y-135087295D02*
X155155952Y-135125390D01*
X155155952Y-135125390D02*
X155194047Y-135163485D01*
X155194047Y-135163485D02*
X155270237Y-135277771D01*
X155270237Y-135277771D02*
X155308333Y-135430152D01*
X155308333Y-135430152D02*
X155308333Y-135734914D01*
X155308333Y-135734914D02*
X155270237Y-135811104D01*
X155270237Y-135811104D02*
X155232142Y-135849200D01*
X155232142Y-135849200D02*
X155155952Y-135887295D01*
X155155952Y-135887295D02*
X155003571Y-135887295D01*
X155003571Y-135887295D02*
X154927380Y-135849200D01*
X154927380Y-135849200D02*
X154889285Y-135811104D01*
X154889285Y-135811104D02*
X154851190Y-135734914D01*
X154851190Y-135734914D02*
X154851190Y-135544438D01*
X154851190Y-135544438D02*
X154889285Y-135468247D01*
X154889285Y-135468247D02*
X154927380Y-135430152D01*
X154927380Y-135430152D02*
X155003571Y-135392057D01*
X155003571Y-135392057D02*
X155155952Y-135392057D01*
X155155952Y-135392057D02*
X155232142Y-135430152D01*
X155232142Y-135430152D02*
X155270237Y-135468247D01*
X155270237Y-135468247D02*
X155308333Y-135544438D01*
X153898808Y-135887295D02*
X153898808Y-135087295D01*
X153441665Y-135887295D02*
X153784523Y-135430152D01*
X153441665Y-135087295D02*
X153898808Y-135544438D01*
X161213690Y-193037295D02*
X161213690Y-192237295D01*
X161213690Y-192237295D02*
X161023214Y-192237295D01*
X161023214Y-192237295D02*
X160908928Y-192275390D01*
X160908928Y-192275390D02*
X160832738Y-192351580D01*
X160832738Y-192351580D02*
X160794643Y-192427771D01*
X160794643Y-192427771D02*
X160756547Y-192580152D01*
X160756547Y-192580152D02*
X160756547Y-192694438D01*
X160756547Y-192694438D02*
X160794643Y-192846819D01*
X160794643Y-192846819D02*
X160832738Y-192923009D01*
X160832738Y-192923009D02*
X160908928Y-192999200D01*
X160908928Y-192999200D02*
X161023214Y-193037295D01*
X161023214Y-193037295D02*
X161213690Y-193037295D01*
X160070833Y-192503961D02*
X160070833Y-193037295D01*
X160261309Y-192199200D02*
X160451786Y-192770628D01*
X160451786Y-192770628D02*
X159956547Y-192770628D01*
X159308928Y-192237295D02*
X159461309Y-192237295D01*
X159461309Y-192237295D02*
X159537500Y-192275390D01*
X159537500Y-192275390D02*
X159575595Y-192313485D01*
X159575595Y-192313485D02*
X159651785Y-192427771D01*
X159651785Y-192427771D02*
X159689881Y-192580152D01*
X159689881Y-192580152D02*
X159689881Y-192884914D01*
X159689881Y-192884914D02*
X159651785Y-192961104D01*
X159651785Y-192961104D02*
X159613690Y-192999200D01*
X159613690Y-192999200D02*
X159537500Y-193037295D01*
X159537500Y-193037295D02*
X159385119Y-193037295D01*
X159385119Y-193037295D02*
X159308928Y-192999200D01*
X159308928Y-192999200D02*
X159270833Y-192961104D01*
X159270833Y-192961104D02*
X159232738Y-192884914D01*
X159232738Y-192884914D02*
X159232738Y-192694438D01*
X159232738Y-192694438D02*
X159270833Y-192618247D01*
X159270833Y-192618247D02*
X159308928Y-192580152D01*
X159308928Y-192580152D02*
X159385119Y-192542057D01*
X159385119Y-192542057D02*
X159537500Y-192542057D01*
X159537500Y-192542057D02*
X159613690Y-192580152D01*
X159613690Y-192580152D02*
X159651785Y-192618247D01*
X159651785Y-192618247D02*
X159689881Y-192694438D01*
X158280356Y-193037295D02*
X158280356Y-192237295D01*
X157823213Y-193037295D02*
X158166071Y-192580152D01*
X157823213Y-192237295D02*
X158280356Y-192694438D01*
X165485237Y-209062295D02*
X165485237Y-208262295D01*
X165485237Y-208262295D02*
X165294761Y-208262295D01*
X165294761Y-208262295D02*
X165180475Y-208300390D01*
X165180475Y-208300390D02*
X165104285Y-208376580D01*
X165104285Y-208376580D02*
X165066190Y-208452771D01*
X165066190Y-208452771D02*
X165028094Y-208605152D01*
X165028094Y-208605152D02*
X165028094Y-208719438D01*
X165028094Y-208719438D02*
X165066190Y-208871819D01*
X165066190Y-208871819D02*
X165104285Y-208948009D01*
X165104285Y-208948009D02*
X165180475Y-209024200D01*
X165180475Y-209024200D02*
X165294761Y-209062295D01*
X165294761Y-209062295D02*
X165485237Y-209062295D01*
X164761428Y-208262295D02*
X164266190Y-208262295D01*
X164266190Y-208262295D02*
X164532856Y-208567057D01*
X164532856Y-208567057D02*
X164418571Y-208567057D01*
X164418571Y-208567057D02*
X164342380Y-208605152D01*
X164342380Y-208605152D02*
X164304285Y-208643247D01*
X164304285Y-208643247D02*
X164266190Y-208719438D01*
X164266190Y-208719438D02*
X164266190Y-208909914D01*
X164266190Y-208909914D02*
X164304285Y-208986104D01*
X164304285Y-208986104D02*
X164342380Y-209024200D01*
X164342380Y-209024200D02*
X164418571Y-209062295D01*
X164418571Y-209062295D02*
X164647142Y-209062295D01*
X164647142Y-209062295D02*
X164723333Y-209024200D01*
X164723333Y-209024200D02*
X164761428Y-208986104D01*
X163313808Y-209062295D02*
X163313808Y-208262295D01*
X162856665Y-209062295D02*
X163199523Y-208605152D01*
X162856665Y-208262295D02*
X163313808Y-208719438D01*
X165976190Y-154937295D02*
X165976190Y-154137295D01*
X165976190Y-154137295D02*
X165785714Y-154137295D01*
X165785714Y-154137295D02*
X165671428Y-154175390D01*
X165671428Y-154175390D02*
X165595238Y-154251580D01*
X165595238Y-154251580D02*
X165557143Y-154327771D01*
X165557143Y-154327771D02*
X165519047Y-154480152D01*
X165519047Y-154480152D02*
X165519047Y-154594438D01*
X165519047Y-154594438D02*
X165557143Y-154746819D01*
X165557143Y-154746819D02*
X165595238Y-154823009D01*
X165595238Y-154823009D02*
X165671428Y-154899200D01*
X165671428Y-154899200D02*
X165785714Y-154937295D01*
X165785714Y-154937295D02*
X165976190Y-154937295D01*
X165214286Y-154213485D02*
X165176190Y-154175390D01*
X165176190Y-154175390D02*
X165100000Y-154137295D01*
X165100000Y-154137295D02*
X164909524Y-154137295D01*
X164909524Y-154137295D02*
X164833333Y-154175390D01*
X164833333Y-154175390D02*
X164795238Y-154213485D01*
X164795238Y-154213485D02*
X164757143Y-154289676D01*
X164757143Y-154289676D02*
X164757143Y-154365866D01*
X164757143Y-154365866D02*
X164795238Y-154480152D01*
X164795238Y-154480152D02*
X165252381Y-154937295D01*
X165252381Y-154937295D02*
X164757143Y-154937295D01*
X164261904Y-154137295D02*
X164185714Y-154137295D01*
X164185714Y-154137295D02*
X164109523Y-154175390D01*
X164109523Y-154175390D02*
X164071428Y-154213485D01*
X164071428Y-154213485D02*
X164033333Y-154289676D01*
X164033333Y-154289676D02*
X163995238Y-154442057D01*
X163995238Y-154442057D02*
X163995238Y-154632533D01*
X163995238Y-154632533D02*
X164033333Y-154784914D01*
X164033333Y-154784914D02*
X164071428Y-154861104D01*
X164071428Y-154861104D02*
X164109523Y-154899200D01*
X164109523Y-154899200D02*
X164185714Y-154937295D01*
X164185714Y-154937295D02*
X164261904Y-154937295D01*
X164261904Y-154937295D02*
X164338095Y-154899200D01*
X164338095Y-154899200D02*
X164376190Y-154861104D01*
X164376190Y-154861104D02*
X164414285Y-154784914D01*
X164414285Y-154784914D02*
X164452381Y-154632533D01*
X164452381Y-154632533D02*
X164452381Y-154442057D01*
X164452381Y-154442057D02*
X164414285Y-154289676D01*
X164414285Y-154289676D02*
X164376190Y-154213485D01*
X164376190Y-154213485D02*
X164338095Y-154175390D01*
X164338095Y-154175390D02*
X164261904Y-154137295D01*
X163042856Y-154937295D02*
X163042856Y-154137295D01*
X162585713Y-154937295D02*
X162928571Y-154480152D01*
X162585713Y-154137295D02*
X163042856Y-154594438D01*
X170738690Y-173987295D02*
X170738690Y-173187295D01*
X170738690Y-173187295D02*
X170548214Y-173187295D01*
X170548214Y-173187295D02*
X170433928Y-173225390D01*
X170433928Y-173225390D02*
X170357738Y-173301580D01*
X170357738Y-173301580D02*
X170319643Y-173377771D01*
X170319643Y-173377771D02*
X170281547Y-173530152D01*
X170281547Y-173530152D02*
X170281547Y-173644438D01*
X170281547Y-173644438D02*
X170319643Y-173796819D01*
X170319643Y-173796819D02*
X170357738Y-173873009D01*
X170357738Y-173873009D02*
X170433928Y-173949200D01*
X170433928Y-173949200D02*
X170548214Y-173987295D01*
X170548214Y-173987295D02*
X170738690Y-173987295D01*
X170014881Y-173187295D02*
X169519643Y-173187295D01*
X169519643Y-173187295D02*
X169786309Y-173492057D01*
X169786309Y-173492057D02*
X169672024Y-173492057D01*
X169672024Y-173492057D02*
X169595833Y-173530152D01*
X169595833Y-173530152D02*
X169557738Y-173568247D01*
X169557738Y-173568247D02*
X169519643Y-173644438D01*
X169519643Y-173644438D02*
X169519643Y-173834914D01*
X169519643Y-173834914D02*
X169557738Y-173911104D01*
X169557738Y-173911104D02*
X169595833Y-173949200D01*
X169595833Y-173949200D02*
X169672024Y-173987295D01*
X169672024Y-173987295D02*
X169900595Y-173987295D01*
X169900595Y-173987295D02*
X169976786Y-173949200D01*
X169976786Y-173949200D02*
X170014881Y-173911104D01*
X168833928Y-173453961D02*
X168833928Y-173987295D01*
X169024404Y-173149200D02*
X169214881Y-173720628D01*
X169214881Y-173720628D02*
X168719642Y-173720628D01*
X167805356Y-173987295D02*
X167805356Y-173187295D01*
X167348213Y-173987295D02*
X167691071Y-173530152D01*
X167348213Y-173187295D02*
X167805356Y-173644438D01*
X175120237Y-135887295D02*
X175120237Y-135087295D01*
X175120237Y-135087295D02*
X174929761Y-135087295D01*
X174929761Y-135087295D02*
X174815475Y-135125390D01*
X174815475Y-135125390D02*
X174739285Y-135201580D01*
X174739285Y-135201580D02*
X174701190Y-135277771D01*
X174701190Y-135277771D02*
X174663094Y-135430152D01*
X174663094Y-135430152D02*
X174663094Y-135544438D01*
X174663094Y-135544438D02*
X174701190Y-135696819D01*
X174701190Y-135696819D02*
X174739285Y-135773009D01*
X174739285Y-135773009D02*
X174815475Y-135849200D01*
X174815475Y-135849200D02*
X174929761Y-135887295D01*
X174929761Y-135887295D02*
X175120237Y-135887295D01*
X174396428Y-135087295D02*
X173863094Y-135087295D01*
X173863094Y-135087295D02*
X174205952Y-135887295D01*
X172948808Y-135887295D02*
X172948808Y-135087295D01*
X172491665Y-135887295D02*
X172834523Y-135430152D01*
X172491665Y-135087295D02*
X172948808Y-135544438D01*
X180263690Y-193037295D02*
X180263690Y-192237295D01*
X180263690Y-192237295D02*
X180073214Y-192237295D01*
X180073214Y-192237295D02*
X179958928Y-192275390D01*
X179958928Y-192275390D02*
X179882738Y-192351580D01*
X179882738Y-192351580D02*
X179844643Y-192427771D01*
X179844643Y-192427771D02*
X179806547Y-192580152D01*
X179806547Y-192580152D02*
X179806547Y-192694438D01*
X179806547Y-192694438D02*
X179844643Y-192846819D01*
X179844643Y-192846819D02*
X179882738Y-192923009D01*
X179882738Y-192923009D02*
X179958928Y-192999200D01*
X179958928Y-192999200D02*
X180073214Y-193037295D01*
X180073214Y-193037295D02*
X180263690Y-193037295D01*
X179120833Y-192503961D02*
X179120833Y-193037295D01*
X179311309Y-192199200D02*
X179501786Y-192770628D01*
X179501786Y-192770628D02*
X179006547Y-192770628D01*
X178777976Y-192237295D02*
X178244642Y-192237295D01*
X178244642Y-192237295D02*
X178587500Y-193037295D01*
X177330356Y-193037295D02*
X177330356Y-192237295D01*
X176873213Y-193037295D02*
X177216071Y-192580152D01*
X176873213Y-192237295D02*
X177330356Y-192694438D01*
X182644940Y-212087295D02*
X182644940Y-211287295D01*
X182644940Y-211287295D02*
X182454464Y-211287295D01*
X182454464Y-211287295D02*
X182340178Y-211325390D01*
X182340178Y-211325390D02*
X182263988Y-211401580D01*
X182263988Y-211401580D02*
X182225893Y-211477771D01*
X182225893Y-211477771D02*
X182187797Y-211630152D01*
X182187797Y-211630152D02*
X182187797Y-211744438D01*
X182187797Y-211744438D02*
X182225893Y-211896819D01*
X182225893Y-211896819D02*
X182263988Y-211973009D01*
X182263988Y-211973009D02*
X182340178Y-212049200D01*
X182340178Y-212049200D02*
X182454464Y-212087295D01*
X182454464Y-212087295D02*
X182644940Y-212087295D01*
X181463988Y-211287295D02*
X181844940Y-211287295D01*
X181844940Y-211287295D02*
X181883036Y-211668247D01*
X181883036Y-211668247D02*
X181844940Y-211630152D01*
X181844940Y-211630152D02*
X181768750Y-211592057D01*
X181768750Y-211592057D02*
X181578274Y-211592057D01*
X181578274Y-211592057D02*
X181502083Y-211630152D01*
X181502083Y-211630152D02*
X181463988Y-211668247D01*
X181463988Y-211668247D02*
X181425893Y-211744438D01*
X181425893Y-211744438D02*
X181425893Y-211934914D01*
X181425893Y-211934914D02*
X181463988Y-212011104D01*
X181463988Y-212011104D02*
X181502083Y-212049200D01*
X181502083Y-212049200D02*
X181578274Y-212087295D01*
X181578274Y-212087295D02*
X181768750Y-212087295D01*
X181768750Y-212087295D02*
X181844940Y-212049200D01*
X181844940Y-212049200D02*
X181883036Y-212011104D01*
X181159226Y-211287295D02*
X180625892Y-211287295D01*
X180625892Y-211287295D02*
X180968750Y-212087295D01*
X179711606Y-212087295D02*
X179711606Y-211287295D01*
X179254463Y-212087295D02*
X179597321Y-211630152D01*
X179254463Y-211287295D02*
X179711606Y-211744438D01*
X185026190Y-154937295D02*
X185026190Y-154137295D01*
X185026190Y-154137295D02*
X184835714Y-154137295D01*
X184835714Y-154137295D02*
X184721428Y-154175390D01*
X184721428Y-154175390D02*
X184645238Y-154251580D01*
X184645238Y-154251580D02*
X184607143Y-154327771D01*
X184607143Y-154327771D02*
X184569047Y-154480152D01*
X184569047Y-154480152D02*
X184569047Y-154594438D01*
X184569047Y-154594438D02*
X184607143Y-154746819D01*
X184607143Y-154746819D02*
X184645238Y-154823009D01*
X184645238Y-154823009D02*
X184721428Y-154899200D01*
X184721428Y-154899200D02*
X184835714Y-154937295D01*
X184835714Y-154937295D02*
X185026190Y-154937295D01*
X184264286Y-154213485D02*
X184226190Y-154175390D01*
X184226190Y-154175390D02*
X184150000Y-154137295D01*
X184150000Y-154137295D02*
X183959524Y-154137295D01*
X183959524Y-154137295D02*
X183883333Y-154175390D01*
X183883333Y-154175390D02*
X183845238Y-154213485D01*
X183845238Y-154213485D02*
X183807143Y-154289676D01*
X183807143Y-154289676D02*
X183807143Y-154365866D01*
X183807143Y-154365866D02*
X183845238Y-154480152D01*
X183845238Y-154480152D02*
X184302381Y-154937295D01*
X184302381Y-154937295D02*
X183807143Y-154937295D01*
X183045238Y-154937295D02*
X183502381Y-154937295D01*
X183273809Y-154937295D02*
X183273809Y-154137295D01*
X183273809Y-154137295D02*
X183350000Y-154251580D01*
X183350000Y-154251580D02*
X183426190Y-154327771D01*
X183426190Y-154327771D02*
X183502381Y-154365866D01*
X182092856Y-154937295D02*
X182092856Y-154137295D01*
X181635713Y-154937295D02*
X181978571Y-154480152D01*
X181635713Y-154137295D02*
X182092856Y-154594438D01*
X189788690Y-173987295D02*
X189788690Y-173187295D01*
X189788690Y-173187295D02*
X189598214Y-173187295D01*
X189598214Y-173187295D02*
X189483928Y-173225390D01*
X189483928Y-173225390D02*
X189407738Y-173301580D01*
X189407738Y-173301580D02*
X189369643Y-173377771D01*
X189369643Y-173377771D02*
X189331547Y-173530152D01*
X189331547Y-173530152D02*
X189331547Y-173644438D01*
X189331547Y-173644438D02*
X189369643Y-173796819D01*
X189369643Y-173796819D02*
X189407738Y-173873009D01*
X189407738Y-173873009D02*
X189483928Y-173949200D01*
X189483928Y-173949200D02*
X189598214Y-173987295D01*
X189598214Y-173987295D02*
X189788690Y-173987295D01*
X189064881Y-173187295D02*
X188569643Y-173187295D01*
X188569643Y-173187295D02*
X188836309Y-173492057D01*
X188836309Y-173492057D02*
X188722024Y-173492057D01*
X188722024Y-173492057D02*
X188645833Y-173530152D01*
X188645833Y-173530152D02*
X188607738Y-173568247D01*
X188607738Y-173568247D02*
X188569643Y-173644438D01*
X188569643Y-173644438D02*
X188569643Y-173834914D01*
X188569643Y-173834914D02*
X188607738Y-173911104D01*
X188607738Y-173911104D02*
X188645833Y-173949200D01*
X188645833Y-173949200D02*
X188722024Y-173987295D01*
X188722024Y-173987295D02*
X188950595Y-173987295D01*
X188950595Y-173987295D02*
X189026786Y-173949200D01*
X189026786Y-173949200D02*
X189064881Y-173911104D01*
X187845833Y-173187295D02*
X188226785Y-173187295D01*
X188226785Y-173187295D02*
X188264881Y-173568247D01*
X188264881Y-173568247D02*
X188226785Y-173530152D01*
X188226785Y-173530152D02*
X188150595Y-173492057D01*
X188150595Y-173492057D02*
X187960119Y-173492057D01*
X187960119Y-173492057D02*
X187883928Y-173530152D01*
X187883928Y-173530152D02*
X187845833Y-173568247D01*
X187845833Y-173568247D02*
X187807738Y-173644438D01*
X187807738Y-173644438D02*
X187807738Y-173834914D01*
X187807738Y-173834914D02*
X187845833Y-173911104D01*
X187845833Y-173911104D02*
X187883928Y-173949200D01*
X187883928Y-173949200D02*
X187960119Y-173987295D01*
X187960119Y-173987295D02*
X188150595Y-173987295D01*
X188150595Y-173987295D02*
X188226785Y-173949200D01*
X188226785Y-173949200D02*
X188264881Y-173911104D01*
X186855356Y-173987295D02*
X186855356Y-173187295D01*
X186398213Y-173987295D02*
X186741071Y-173530152D01*
X186398213Y-173187295D02*
X186855356Y-173644438D01*
X194170237Y-135887295D02*
X194170237Y-135087295D01*
X194170237Y-135087295D02*
X193979761Y-135087295D01*
X193979761Y-135087295D02*
X193865475Y-135125390D01*
X193865475Y-135125390D02*
X193789285Y-135201580D01*
X193789285Y-135201580D02*
X193751190Y-135277771D01*
X193751190Y-135277771D02*
X193713094Y-135430152D01*
X193713094Y-135430152D02*
X193713094Y-135544438D01*
X193713094Y-135544438D02*
X193751190Y-135696819D01*
X193751190Y-135696819D02*
X193789285Y-135773009D01*
X193789285Y-135773009D02*
X193865475Y-135849200D01*
X193865475Y-135849200D02*
X193979761Y-135887295D01*
X193979761Y-135887295D02*
X194170237Y-135887295D01*
X193255952Y-135430152D02*
X193332142Y-135392057D01*
X193332142Y-135392057D02*
X193370237Y-135353961D01*
X193370237Y-135353961D02*
X193408333Y-135277771D01*
X193408333Y-135277771D02*
X193408333Y-135239676D01*
X193408333Y-135239676D02*
X193370237Y-135163485D01*
X193370237Y-135163485D02*
X193332142Y-135125390D01*
X193332142Y-135125390D02*
X193255952Y-135087295D01*
X193255952Y-135087295D02*
X193103571Y-135087295D01*
X193103571Y-135087295D02*
X193027380Y-135125390D01*
X193027380Y-135125390D02*
X192989285Y-135163485D01*
X192989285Y-135163485D02*
X192951190Y-135239676D01*
X192951190Y-135239676D02*
X192951190Y-135277771D01*
X192951190Y-135277771D02*
X192989285Y-135353961D01*
X192989285Y-135353961D02*
X193027380Y-135392057D01*
X193027380Y-135392057D02*
X193103571Y-135430152D01*
X193103571Y-135430152D02*
X193255952Y-135430152D01*
X193255952Y-135430152D02*
X193332142Y-135468247D01*
X193332142Y-135468247D02*
X193370237Y-135506342D01*
X193370237Y-135506342D02*
X193408333Y-135582533D01*
X193408333Y-135582533D02*
X193408333Y-135734914D01*
X193408333Y-135734914D02*
X193370237Y-135811104D01*
X193370237Y-135811104D02*
X193332142Y-135849200D01*
X193332142Y-135849200D02*
X193255952Y-135887295D01*
X193255952Y-135887295D02*
X193103571Y-135887295D01*
X193103571Y-135887295D02*
X193027380Y-135849200D01*
X193027380Y-135849200D02*
X192989285Y-135811104D01*
X192989285Y-135811104D02*
X192951190Y-135734914D01*
X192951190Y-135734914D02*
X192951190Y-135582533D01*
X192951190Y-135582533D02*
X192989285Y-135506342D01*
X192989285Y-135506342D02*
X193027380Y-135468247D01*
X193027380Y-135468247D02*
X193103571Y-135430152D01*
X191998808Y-135887295D02*
X191998808Y-135087295D01*
X191541665Y-135887295D02*
X191884523Y-135430152D01*
X191541665Y-135087295D02*
X191998808Y-135544438D01*
X197866190Y-209062295D02*
X197866190Y-208262295D01*
X197866190Y-208262295D02*
X197675714Y-208262295D01*
X197675714Y-208262295D02*
X197561428Y-208300390D01*
X197561428Y-208300390D02*
X197485238Y-208376580D01*
X197485238Y-208376580D02*
X197447143Y-208452771D01*
X197447143Y-208452771D02*
X197409047Y-208605152D01*
X197409047Y-208605152D02*
X197409047Y-208719438D01*
X197409047Y-208719438D02*
X197447143Y-208871819D01*
X197447143Y-208871819D02*
X197485238Y-208948009D01*
X197485238Y-208948009D02*
X197561428Y-209024200D01*
X197561428Y-209024200D02*
X197675714Y-209062295D01*
X197675714Y-209062295D02*
X197866190Y-209062295D01*
X196647143Y-209062295D02*
X197104286Y-209062295D01*
X196875714Y-209062295D02*
X196875714Y-208262295D01*
X196875714Y-208262295D02*
X196951905Y-208376580D01*
X196951905Y-208376580D02*
X197028095Y-208452771D01*
X197028095Y-208452771D02*
X197104286Y-208490866D01*
X195923333Y-208262295D02*
X196304285Y-208262295D01*
X196304285Y-208262295D02*
X196342381Y-208643247D01*
X196342381Y-208643247D02*
X196304285Y-208605152D01*
X196304285Y-208605152D02*
X196228095Y-208567057D01*
X196228095Y-208567057D02*
X196037619Y-208567057D01*
X196037619Y-208567057D02*
X195961428Y-208605152D01*
X195961428Y-208605152D02*
X195923333Y-208643247D01*
X195923333Y-208643247D02*
X195885238Y-208719438D01*
X195885238Y-208719438D02*
X195885238Y-208909914D01*
X195885238Y-208909914D02*
X195923333Y-208986104D01*
X195923333Y-208986104D02*
X195961428Y-209024200D01*
X195961428Y-209024200D02*
X196037619Y-209062295D01*
X196037619Y-209062295D02*
X196228095Y-209062295D01*
X196228095Y-209062295D02*
X196304285Y-209024200D01*
X196304285Y-209024200D02*
X196342381Y-208986104D01*
X194932856Y-209062295D02*
X194932856Y-208262295D01*
X194475713Y-209062295D02*
X194818571Y-208605152D01*
X194475713Y-208262295D02*
X194932856Y-208719438D01*
X199313690Y-193037295D02*
X199313690Y-192237295D01*
X199313690Y-192237295D02*
X199123214Y-192237295D01*
X199123214Y-192237295D02*
X199008928Y-192275390D01*
X199008928Y-192275390D02*
X198932738Y-192351580D01*
X198932738Y-192351580D02*
X198894643Y-192427771D01*
X198894643Y-192427771D02*
X198856547Y-192580152D01*
X198856547Y-192580152D02*
X198856547Y-192694438D01*
X198856547Y-192694438D02*
X198894643Y-192846819D01*
X198894643Y-192846819D02*
X198932738Y-192923009D01*
X198932738Y-192923009D02*
X199008928Y-192999200D01*
X199008928Y-192999200D02*
X199123214Y-193037295D01*
X199123214Y-193037295D02*
X199313690Y-193037295D01*
X198170833Y-192503961D02*
X198170833Y-193037295D01*
X198361309Y-192199200D02*
X198551786Y-192770628D01*
X198551786Y-192770628D02*
X198056547Y-192770628D01*
X197637500Y-192580152D02*
X197713690Y-192542057D01*
X197713690Y-192542057D02*
X197751785Y-192503961D01*
X197751785Y-192503961D02*
X197789881Y-192427771D01*
X197789881Y-192427771D02*
X197789881Y-192389676D01*
X197789881Y-192389676D02*
X197751785Y-192313485D01*
X197751785Y-192313485D02*
X197713690Y-192275390D01*
X197713690Y-192275390D02*
X197637500Y-192237295D01*
X197637500Y-192237295D02*
X197485119Y-192237295D01*
X197485119Y-192237295D02*
X197408928Y-192275390D01*
X197408928Y-192275390D02*
X197370833Y-192313485D01*
X197370833Y-192313485D02*
X197332738Y-192389676D01*
X197332738Y-192389676D02*
X197332738Y-192427771D01*
X197332738Y-192427771D02*
X197370833Y-192503961D01*
X197370833Y-192503961D02*
X197408928Y-192542057D01*
X197408928Y-192542057D02*
X197485119Y-192580152D01*
X197485119Y-192580152D02*
X197637500Y-192580152D01*
X197637500Y-192580152D02*
X197713690Y-192618247D01*
X197713690Y-192618247D02*
X197751785Y-192656342D01*
X197751785Y-192656342D02*
X197789881Y-192732533D01*
X197789881Y-192732533D02*
X197789881Y-192884914D01*
X197789881Y-192884914D02*
X197751785Y-192961104D01*
X197751785Y-192961104D02*
X197713690Y-192999200D01*
X197713690Y-192999200D02*
X197637500Y-193037295D01*
X197637500Y-193037295D02*
X197485119Y-193037295D01*
X197485119Y-193037295D02*
X197408928Y-192999200D01*
X197408928Y-192999200D02*
X197370833Y-192961104D01*
X197370833Y-192961104D02*
X197332738Y-192884914D01*
X197332738Y-192884914D02*
X197332738Y-192732533D01*
X197332738Y-192732533D02*
X197370833Y-192656342D01*
X197370833Y-192656342D02*
X197408928Y-192618247D01*
X197408928Y-192618247D02*
X197485119Y-192580152D01*
X196380356Y-193037295D02*
X196380356Y-192237295D01*
X195923213Y-193037295D02*
X196266071Y-192580152D01*
X195923213Y-192237295D02*
X196380356Y-192694438D01*
X204076190Y-154937295D02*
X204076190Y-154137295D01*
X204076190Y-154137295D02*
X203885714Y-154137295D01*
X203885714Y-154137295D02*
X203771428Y-154175390D01*
X203771428Y-154175390D02*
X203695238Y-154251580D01*
X203695238Y-154251580D02*
X203657143Y-154327771D01*
X203657143Y-154327771D02*
X203619047Y-154480152D01*
X203619047Y-154480152D02*
X203619047Y-154594438D01*
X203619047Y-154594438D02*
X203657143Y-154746819D01*
X203657143Y-154746819D02*
X203695238Y-154823009D01*
X203695238Y-154823009D02*
X203771428Y-154899200D01*
X203771428Y-154899200D02*
X203885714Y-154937295D01*
X203885714Y-154937295D02*
X204076190Y-154937295D01*
X203314286Y-154213485D02*
X203276190Y-154175390D01*
X203276190Y-154175390D02*
X203200000Y-154137295D01*
X203200000Y-154137295D02*
X203009524Y-154137295D01*
X203009524Y-154137295D02*
X202933333Y-154175390D01*
X202933333Y-154175390D02*
X202895238Y-154213485D01*
X202895238Y-154213485D02*
X202857143Y-154289676D01*
X202857143Y-154289676D02*
X202857143Y-154365866D01*
X202857143Y-154365866D02*
X202895238Y-154480152D01*
X202895238Y-154480152D02*
X203352381Y-154937295D01*
X203352381Y-154937295D02*
X202857143Y-154937295D01*
X202552381Y-154213485D02*
X202514285Y-154175390D01*
X202514285Y-154175390D02*
X202438095Y-154137295D01*
X202438095Y-154137295D02*
X202247619Y-154137295D01*
X202247619Y-154137295D02*
X202171428Y-154175390D01*
X202171428Y-154175390D02*
X202133333Y-154213485D01*
X202133333Y-154213485D02*
X202095238Y-154289676D01*
X202095238Y-154289676D02*
X202095238Y-154365866D01*
X202095238Y-154365866D02*
X202133333Y-154480152D01*
X202133333Y-154480152D02*
X202590476Y-154937295D01*
X202590476Y-154937295D02*
X202095238Y-154937295D01*
X201142856Y-154937295D02*
X201142856Y-154137295D01*
X200685713Y-154937295D02*
X201028571Y-154480152D01*
X200685713Y-154137295D02*
X201142856Y-154594438D01*
X208838690Y-173987295D02*
X208838690Y-173187295D01*
X208838690Y-173187295D02*
X208648214Y-173187295D01*
X208648214Y-173187295D02*
X208533928Y-173225390D01*
X208533928Y-173225390D02*
X208457738Y-173301580D01*
X208457738Y-173301580D02*
X208419643Y-173377771D01*
X208419643Y-173377771D02*
X208381547Y-173530152D01*
X208381547Y-173530152D02*
X208381547Y-173644438D01*
X208381547Y-173644438D02*
X208419643Y-173796819D01*
X208419643Y-173796819D02*
X208457738Y-173873009D01*
X208457738Y-173873009D02*
X208533928Y-173949200D01*
X208533928Y-173949200D02*
X208648214Y-173987295D01*
X208648214Y-173987295D02*
X208838690Y-173987295D01*
X208114881Y-173187295D02*
X207619643Y-173187295D01*
X207619643Y-173187295D02*
X207886309Y-173492057D01*
X207886309Y-173492057D02*
X207772024Y-173492057D01*
X207772024Y-173492057D02*
X207695833Y-173530152D01*
X207695833Y-173530152D02*
X207657738Y-173568247D01*
X207657738Y-173568247D02*
X207619643Y-173644438D01*
X207619643Y-173644438D02*
X207619643Y-173834914D01*
X207619643Y-173834914D02*
X207657738Y-173911104D01*
X207657738Y-173911104D02*
X207695833Y-173949200D01*
X207695833Y-173949200D02*
X207772024Y-173987295D01*
X207772024Y-173987295D02*
X208000595Y-173987295D01*
X208000595Y-173987295D02*
X208076786Y-173949200D01*
X208076786Y-173949200D02*
X208114881Y-173911104D01*
X206933928Y-173187295D02*
X207086309Y-173187295D01*
X207086309Y-173187295D02*
X207162500Y-173225390D01*
X207162500Y-173225390D02*
X207200595Y-173263485D01*
X207200595Y-173263485D02*
X207276785Y-173377771D01*
X207276785Y-173377771D02*
X207314881Y-173530152D01*
X207314881Y-173530152D02*
X207314881Y-173834914D01*
X207314881Y-173834914D02*
X207276785Y-173911104D01*
X207276785Y-173911104D02*
X207238690Y-173949200D01*
X207238690Y-173949200D02*
X207162500Y-173987295D01*
X207162500Y-173987295D02*
X207010119Y-173987295D01*
X207010119Y-173987295D02*
X206933928Y-173949200D01*
X206933928Y-173949200D02*
X206895833Y-173911104D01*
X206895833Y-173911104D02*
X206857738Y-173834914D01*
X206857738Y-173834914D02*
X206857738Y-173644438D01*
X206857738Y-173644438D02*
X206895833Y-173568247D01*
X206895833Y-173568247D02*
X206933928Y-173530152D01*
X206933928Y-173530152D02*
X207010119Y-173492057D01*
X207010119Y-173492057D02*
X207162500Y-173492057D01*
X207162500Y-173492057D02*
X207238690Y-173530152D01*
X207238690Y-173530152D02*
X207276785Y-173568247D01*
X207276785Y-173568247D02*
X207314881Y-173644438D01*
X205905356Y-173987295D02*
X205905356Y-173187295D01*
X205448213Y-173987295D02*
X205791071Y-173530152D01*
X205448213Y-173187295D02*
X205905356Y-173644438D01*
X210866190Y-209062295D02*
X210866190Y-208262295D01*
X210866190Y-208262295D02*
X210675714Y-208262295D01*
X210675714Y-208262295D02*
X210561428Y-208300390D01*
X210561428Y-208300390D02*
X210485238Y-208376580D01*
X210485238Y-208376580D02*
X210447143Y-208452771D01*
X210447143Y-208452771D02*
X210409047Y-208605152D01*
X210409047Y-208605152D02*
X210409047Y-208719438D01*
X210409047Y-208719438D02*
X210447143Y-208871819D01*
X210447143Y-208871819D02*
X210485238Y-208948009D01*
X210485238Y-208948009D02*
X210561428Y-209024200D01*
X210561428Y-209024200D02*
X210675714Y-209062295D01*
X210675714Y-209062295D02*
X210866190Y-209062295D01*
X209647143Y-209062295D02*
X210104286Y-209062295D01*
X209875714Y-209062295D02*
X209875714Y-208262295D01*
X209875714Y-208262295D02*
X209951905Y-208376580D01*
X209951905Y-208376580D02*
X210028095Y-208452771D01*
X210028095Y-208452771D02*
X210104286Y-208490866D01*
X208961428Y-208262295D02*
X209113809Y-208262295D01*
X209113809Y-208262295D02*
X209190000Y-208300390D01*
X209190000Y-208300390D02*
X209228095Y-208338485D01*
X209228095Y-208338485D02*
X209304285Y-208452771D01*
X209304285Y-208452771D02*
X209342381Y-208605152D01*
X209342381Y-208605152D02*
X209342381Y-208909914D01*
X209342381Y-208909914D02*
X209304285Y-208986104D01*
X209304285Y-208986104D02*
X209266190Y-209024200D01*
X209266190Y-209024200D02*
X209190000Y-209062295D01*
X209190000Y-209062295D02*
X209037619Y-209062295D01*
X209037619Y-209062295D02*
X208961428Y-209024200D01*
X208961428Y-209024200D02*
X208923333Y-208986104D01*
X208923333Y-208986104D02*
X208885238Y-208909914D01*
X208885238Y-208909914D02*
X208885238Y-208719438D01*
X208885238Y-208719438D02*
X208923333Y-208643247D01*
X208923333Y-208643247D02*
X208961428Y-208605152D01*
X208961428Y-208605152D02*
X209037619Y-208567057D01*
X209037619Y-208567057D02*
X209190000Y-208567057D01*
X209190000Y-208567057D02*
X209266190Y-208605152D01*
X209266190Y-208605152D02*
X209304285Y-208643247D01*
X209304285Y-208643247D02*
X209342381Y-208719438D01*
X207932856Y-209062295D02*
X207932856Y-208262295D01*
X207475713Y-209062295D02*
X207818571Y-208605152D01*
X207475713Y-208262295D02*
X207932856Y-208719438D01*
X213220237Y-135887295D02*
X213220237Y-135087295D01*
X213220237Y-135087295D02*
X213029761Y-135087295D01*
X213029761Y-135087295D02*
X212915475Y-135125390D01*
X212915475Y-135125390D02*
X212839285Y-135201580D01*
X212839285Y-135201580D02*
X212801190Y-135277771D01*
X212801190Y-135277771D02*
X212763094Y-135430152D01*
X212763094Y-135430152D02*
X212763094Y-135544438D01*
X212763094Y-135544438D02*
X212801190Y-135696819D01*
X212801190Y-135696819D02*
X212839285Y-135773009D01*
X212839285Y-135773009D02*
X212915475Y-135849200D01*
X212915475Y-135849200D02*
X213029761Y-135887295D01*
X213029761Y-135887295D02*
X213220237Y-135887295D01*
X212382142Y-135887295D02*
X212229761Y-135887295D01*
X212229761Y-135887295D02*
X212153571Y-135849200D01*
X212153571Y-135849200D02*
X212115475Y-135811104D01*
X212115475Y-135811104D02*
X212039285Y-135696819D01*
X212039285Y-135696819D02*
X212001190Y-135544438D01*
X212001190Y-135544438D02*
X212001190Y-135239676D01*
X212001190Y-135239676D02*
X212039285Y-135163485D01*
X212039285Y-135163485D02*
X212077380Y-135125390D01*
X212077380Y-135125390D02*
X212153571Y-135087295D01*
X212153571Y-135087295D02*
X212305952Y-135087295D01*
X212305952Y-135087295D02*
X212382142Y-135125390D01*
X212382142Y-135125390D02*
X212420237Y-135163485D01*
X212420237Y-135163485D02*
X212458333Y-135239676D01*
X212458333Y-135239676D02*
X212458333Y-135430152D01*
X212458333Y-135430152D02*
X212420237Y-135506342D01*
X212420237Y-135506342D02*
X212382142Y-135544438D01*
X212382142Y-135544438D02*
X212305952Y-135582533D01*
X212305952Y-135582533D02*
X212153571Y-135582533D01*
X212153571Y-135582533D02*
X212077380Y-135544438D01*
X212077380Y-135544438D02*
X212039285Y-135506342D01*
X212039285Y-135506342D02*
X212001190Y-135430152D01*
X211048808Y-135887295D02*
X211048808Y-135087295D01*
X210591665Y-135887295D02*
X210934523Y-135430152D01*
X210591665Y-135087295D02*
X211048808Y-135544438D01*
X218363690Y-193037295D02*
X218363690Y-192237295D01*
X218363690Y-192237295D02*
X218173214Y-192237295D01*
X218173214Y-192237295D02*
X218058928Y-192275390D01*
X218058928Y-192275390D02*
X217982738Y-192351580D01*
X217982738Y-192351580D02*
X217944643Y-192427771D01*
X217944643Y-192427771D02*
X217906547Y-192580152D01*
X217906547Y-192580152D02*
X217906547Y-192694438D01*
X217906547Y-192694438D02*
X217944643Y-192846819D01*
X217944643Y-192846819D02*
X217982738Y-192923009D01*
X217982738Y-192923009D02*
X218058928Y-192999200D01*
X218058928Y-192999200D02*
X218173214Y-193037295D01*
X218173214Y-193037295D02*
X218363690Y-193037295D01*
X217220833Y-192503961D02*
X217220833Y-193037295D01*
X217411309Y-192199200D02*
X217601786Y-192770628D01*
X217601786Y-192770628D02*
X217106547Y-192770628D01*
X216763690Y-193037295D02*
X216611309Y-193037295D01*
X216611309Y-193037295D02*
X216535119Y-192999200D01*
X216535119Y-192999200D02*
X216497023Y-192961104D01*
X216497023Y-192961104D02*
X216420833Y-192846819D01*
X216420833Y-192846819D02*
X216382738Y-192694438D01*
X216382738Y-192694438D02*
X216382738Y-192389676D01*
X216382738Y-192389676D02*
X216420833Y-192313485D01*
X216420833Y-192313485D02*
X216458928Y-192275390D01*
X216458928Y-192275390D02*
X216535119Y-192237295D01*
X216535119Y-192237295D02*
X216687500Y-192237295D01*
X216687500Y-192237295D02*
X216763690Y-192275390D01*
X216763690Y-192275390D02*
X216801785Y-192313485D01*
X216801785Y-192313485D02*
X216839881Y-192389676D01*
X216839881Y-192389676D02*
X216839881Y-192580152D01*
X216839881Y-192580152D02*
X216801785Y-192656342D01*
X216801785Y-192656342D02*
X216763690Y-192694438D01*
X216763690Y-192694438D02*
X216687500Y-192732533D01*
X216687500Y-192732533D02*
X216535119Y-192732533D01*
X216535119Y-192732533D02*
X216458928Y-192694438D01*
X216458928Y-192694438D02*
X216420833Y-192656342D01*
X216420833Y-192656342D02*
X216382738Y-192580152D01*
X215430356Y-193037295D02*
X215430356Y-192237295D01*
X214973213Y-193037295D02*
X215316071Y-192580152D01*
X214973213Y-192237295D02*
X215430356Y-192694438D01*
X223126190Y-154937295D02*
X223126190Y-154137295D01*
X223126190Y-154137295D02*
X222935714Y-154137295D01*
X222935714Y-154137295D02*
X222821428Y-154175390D01*
X222821428Y-154175390D02*
X222745238Y-154251580D01*
X222745238Y-154251580D02*
X222707143Y-154327771D01*
X222707143Y-154327771D02*
X222669047Y-154480152D01*
X222669047Y-154480152D02*
X222669047Y-154594438D01*
X222669047Y-154594438D02*
X222707143Y-154746819D01*
X222707143Y-154746819D02*
X222745238Y-154823009D01*
X222745238Y-154823009D02*
X222821428Y-154899200D01*
X222821428Y-154899200D02*
X222935714Y-154937295D01*
X222935714Y-154937295D02*
X223126190Y-154937295D01*
X222364286Y-154213485D02*
X222326190Y-154175390D01*
X222326190Y-154175390D02*
X222250000Y-154137295D01*
X222250000Y-154137295D02*
X222059524Y-154137295D01*
X222059524Y-154137295D02*
X221983333Y-154175390D01*
X221983333Y-154175390D02*
X221945238Y-154213485D01*
X221945238Y-154213485D02*
X221907143Y-154289676D01*
X221907143Y-154289676D02*
X221907143Y-154365866D01*
X221907143Y-154365866D02*
X221945238Y-154480152D01*
X221945238Y-154480152D02*
X222402381Y-154937295D01*
X222402381Y-154937295D02*
X221907143Y-154937295D01*
X221640476Y-154137295D02*
X221145238Y-154137295D01*
X221145238Y-154137295D02*
X221411904Y-154442057D01*
X221411904Y-154442057D02*
X221297619Y-154442057D01*
X221297619Y-154442057D02*
X221221428Y-154480152D01*
X221221428Y-154480152D02*
X221183333Y-154518247D01*
X221183333Y-154518247D02*
X221145238Y-154594438D01*
X221145238Y-154594438D02*
X221145238Y-154784914D01*
X221145238Y-154784914D02*
X221183333Y-154861104D01*
X221183333Y-154861104D02*
X221221428Y-154899200D01*
X221221428Y-154899200D02*
X221297619Y-154937295D01*
X221297619Y-154937295D02*
X221526190Y-154937295D01*
X221526190Y-154937295D02*
X221602381Y-154899200D01*
X221602381Y-154899200D02*
X221640476Y-154861104D01*
X220192856Y-154937295D02*
X220192856Y-154137295D01*
X219735713Y-154937295D02*
X220078571Y-154480152D01*
X219735713Y-154137295D02*
X220192856Y-154594438D01*
X223866190Y-209062295D02*
X223866190Y-208262295D01*
X223866190Y-208262295D02*
X223675714Y-208262295D01*
X223675714Y-208262295D02*
X223561428Y-208300390D01*
X223561428Y-208300390D02*
X223485238Y-208376580D01*
X223485238Y-208376580D02*
X223447143Y-208452771D01*
X223447143Y-208452771D02*
X223409047Y-208605152D01*
X223409047Y-208605152D02*
X223409047Y-208719438D01*
X223409047Y-208719438D02*
X223447143Y-208871819D01*
X223447143Y-208871819D02*
X223485238Y-208948009D01*
X223485238Y-208948009D02*
X223561428Y-209024200D01*
X223561428Y-209024200D02*
X223675714Y-209062295D01*
X223675714Y-209062295D02*
X223866190Y-209062295D01*
X222647143Y-209062295D02*
X223104286Y-209062295D01*
X222875714Y-209062295D02*
X222875714Y-208262295D01*
X222875714Y-208262295D02*
X222951905Y-208376580D01*
X222951905Y-208376580D02*
X223028095Y-208452771D01*
X223028095Y-208452771D02*
X223104286Y-208490866D01*
X222380476Y-208262295D02*
X221847142Y-208262295D01*
X221847142Y-208262295D02*
X222190000Y-209062295D01*
X220932856Y-209062295D02*
X220932856Y-208262295D01*
X220475713Y-209062295D02*
X220818571Y-208605152D01*
X220475713Y-208262295D02*
X220932856Y-208719438D01*
X227888690Y-173987295D02*
X227888690Y-173187295D01*
X227888690Y-173187295D02*
X227698214Y-173187295D01*
X227698214Y-173187295D02*
X227583928Y-173225390D01*
X227583928Y-173225390D02*
X227507738Y-173301580D01*
X227507738Y-173301580D02*
X227469643Y-173377771D01*
X227469643Y-173377771D02*
X227431547Y-173530152D01*
X227431547Y-173530152D02*
X227431547Y-173644438D01*
X227431547Y-173644438D02*
X227469643Y-173796819D01*
X227469643Y-173796819D02*
X227507738Y-173873009D01*
X227507738Y-173873009D02*
X227583928Y-173949200D01*
X227583928Y-173949200D02*
X227698214Y-173987295D01*
X227698214Y-173987295D02*
X227888690Y-173987295D01*
X227164881Y-173187295D02*
X226669643Y-173187295D01*
X226669643Y-173187295D02*
X226936309Y-173492057D01*
X226936309Y-173492057D02*
X226822024Y-173492057D01*
X226822024Y-173492057D02*
X226745833Y-173530152D01*
X226745833Y-173530152D02*
X226707738Y-173568247D01*
X226707738Y-173568247D02*
X226669643Y-173644438D01*
X226669643Y-173644438D02*
X226669643Y-173834914D01*
X226669643Y-173834914D02*
X226707738Y-173911104D01*
X226707738Y-173911104D02*
X226745833Y-173949200D01*
X226745833Y-173949200D02*
X226822024Y-173987295D01*
X226822024Y-173987295D02*
X227050595Y-173987295D01*
X227050595Y-173987295D02*
X227126786Y-173949200D01*
X227126786Y-173949200D02*
X227164881Y-173911104D01*
X226402976Y-173187295D02*
X225869642Y-173187295D01*
X225869642Y-173187295D02*
X226212500Y-173987295D01*
X224955356Y-173987295D02*
X224955356Y-173187295D01*
X224498213Y-173987295D02*
X224841071Y-173530152D01*
X224498213Y-173187295D02*
X224955356Y-173644438D01*
X232651190Y-135887295D02*
X232651190Y-135087295D01*
X232651190Y-135087295D02*
X232460714Y-135087295D01*
X232460714Y-135087295D02*
X232346428Y-135125390D01*
X232346428Y-135125390D02*
X232270238Y-135201580D01*
X232270238Y-135201580D02*
X232232143Y-135277771D01*
X232232143Y-135277771D02*
X232194047Y-135430152D01*
X232194047Y-135430152D02*
X232194047Y-135544438D01*
X232194047Y-135544438D02*
X232232143Y-135696819D01*
X232232143Y-135696819D02*
X232270238Y-135773009D01*
X232270238Y-135773009D02*
X232346428Y-135849200D01*
X232346428Y-135849200D02*
X232460714Y-135887295D01*
X232460714Y-135887295D02*
X232651190Y-135887295D01*
X231432143Y-135887295D02*
X231889286Y-135887295D01*
X231660714Y-135887295D02*
X231660714Y-135087295D01*
X231660714Y-135087295D02*
X231736905Y-135201580D01*
X231736905Y-135201580D02*
X231813095Y-135277771D01*
X231813095Y-135277771D02*
X231889286Y-135315866D01*
X230936904Y-135087295D02*
X230860714Y-135087295D01*
X230860714Y-135087295D02*
X230784523Y-135125390D01*
X230784523Y-135125390D02*
X230746428Y-135163485D01*
X230746428Y-135163485D02*
X230708333Y-135239676D01*
X230708333Y-135239676D02*
X230670238Y-135392057D01*
X230670238Y-135392057D02*
X230670238Y-135582533D01*
X230670238Y-135582533D02*
X230708333Y-135734914D01*
X230708333Y-135734914D02*
X230746428Y-135811104D01*
X230746428Y-135811104D02*
X230784523Y-135849200D01*
X230784523Y-135849200D02*
X230860714Y-135887295D01*
X230860714Y-135887295D02*
X230936904Y-135887295D01*
X230936904Y-135887295D02*
X231013095Y-135849200D01*
X231013095Y-135849200D02*
X231051190Y-135811104D01*
X231051190Y-135811104D02*
X231089285Y-135734914D01*
X231089285Y-135734914D02*
X231127381Y-135582533D01*
X231127381Y-135582533D02*
X231127381Y-135392057D01*
X231127381Y-135392057D02*
X231089285Y-135239676D01*
X231089285Y-135239676D02*
X231051190Y-135163485D01*
X231051190Y-135163485D02*
X231013095Y-135125390D01*
X231013095Y-135125390D02*
X230936904Y-135087295D01*
X229717856Y-135887295D02*
X229717856Y-135087295D01*
X229260713Y-135887295D02*
X229603571Y-135430152D01*
X229260713Y-135087295D02*
X229717856Y-135544438D01*
X237413690Y-193037295D02*
X237413690Y-192237295D01*
X237413690Y-192237295D02*
X237223214Y-192237295D01*
X237223214Y-192237295D02*
X237108928Y-192275390D01*
X237108928Y-192275390D02*
X237032738Y-192351580D01*
X237032738Y-192351580D02*
X236994643Y-192427771D01*
X236994643Y-192427771D02*
X236956547Y-192580152D01*
X236956547Y-192580152D02*
X236956547Y-192694438D01*
X236956547Y-192694438D02*
X236994643Y-192846819D01*
X236994643Y-192846819D02*
X237032738Y-192923009D01*
X237032738Y-192923009D02*
X237108928Y-192999200D01*
X237108928Y-192999200D02*
X237223214Y-193037295D01*
X237223214Y-193037295D02*
X237413690Y-193037295D01*
X236232738Y-192237295D02*
X236613690Y-192237295D01*
X236613690Y-192237295D02*
X236651786Y-192618247D01*
X236651786Y-192618247D02*
X236613690Y-192580152D01*
X236613690Y-192580152D02*
X236537500Y-192542057D01*
X236537500Y-192542057D02*
X236347024Y-192542057D01*
X236347024Y-192542057D02*
X236270833Y-192580152D01*
X236270833Y-192580152D02*
X236232738Y-192618247D01*
X236232738Y-192618247D02*
X236194643Y-192694438D01*
X236194643Y-192694438D02*
X236194643Y-192884914D01*
X236194643Y-192884914D02*
X236232738Y-192961104D01*
X236232738Y-192961104D02*
X236270833Y-192999200D01*
X236270833Y-192999200D02*
X236347024Y-193037295D01*
X236347024Y-193037295D02*
X236537500Y-193037295D01*
X236537500Y-193037295D02*
X236613690Y-192999200D01*
X236613690Y-192999200D02*
X236651786Y-192961104D01*
X235699404Y-192237295D02*
X235623214Y-192237295D01*
X235623214Y-192237295D02*
X235547023Y-192275390D01*
X235547023Y-192275390D02*
X235508928Y-192313485D01*
X235508928Y-192313485D02*
X235470833Y-192389676D01*
X235470833Y-192389676D02*
X235432738Y-192542057D01*
X235432738Y-192542057D02*
X235432738Y-192732533D01*
X235432738Y-192732533D02*
X235470833Y-192884914D01*
X235470833Y-192884914D02*
X235508928Y-192961104D01*
X235508928Y-192961104D02*
X235547023Y-192999200D01*
X235547023Y-192999200D02*
X235623214Y-193037295D01*
X235623214Y-193037295D02*
X235699404Y-193037295D01*
X235699404Y-193037295D02*
X235775595Y-192999200D01*
X235775595Y-192999200D02*
X235813690Y-192961104D01*
X235813690Y-192961104D02*
X235851785Y-192884914D01*
X235851785Y-192884914D02*
X235889881Y-192732533D01*
X235889881Y-192732533D02*
X235889881Y-192542057D01*
X235889881Y-192542057D02*
X235851785Y-192389676D01*
X235851785Y-192389676D02*
X235813690Y-192313485D01*
X235813690Y-192313485D02*
X235775595Y-192275390D01*
X235775595Y-192275390D02*
X235699404Y-192237295D01*
X234480356Y-193037295D02*
X234480356Y-192237295D01*
X234023213Y-193037295D02*
X234366071Y-192580152D01*
X234023213Y-192237295D02*
X234480356Y-192694438D01*
X242176190Y-154937295D02*
X242176190Y-154137295D01*
X242176190Y-154137295D02*
X241985714Y-154137295D01*
X241985714Y-154137295D02*
X241871428Y-154175390D01*
X241871428Y-154175390D02*
X241795238Y-154251580D01*
X241795238Y-154251580D02*
X241757143Y-154327771D01*
X241757143Y-154327771D02*
X241719047Y-154480152D01*
X241719047Y-154480152D02*
X241719047Y-154594438D01*
X241719047Y-154594438D02*
X241757143Y-154746819D01*
X241757143Y-154746819D02*
X241795238Y-154823009D01*
X241795238Y-154823009D02*
X241871428Y-154899200D01*
X241871428Y-154899200D02*
X241985714Y-154937295D01*
X241985714Y-154937295D02*
X242176190Y-154937295D01*
X241414286Y-154213485D02*
X241376190Y-154175390D01*
X241376190Y-154175390D02*
X241300000Y-154137295D01*
X241300000Y-154137295D02*
X241109524Y-154137295D01*
X241109524Y-154137295D02*
X241033333Y-154175390D01*
X241033333Y-154175390D02*
X240995238Y-154213485D01*
X240995238Y-154213485D02*
X240957143Y-154289676D01*
X240957143Y-154289676D02*
X240957143Y-154365866D01*
X240957143Y-154365866D02*
X240995238Y-154480152D01*
X240995238Y-154480152D02*
X241452381Y-154937295D01*
X241452381Y-154937295D02*
X240957143Y-154937295D01*
X240271428Y-154403961D02*
X240271428Y-154937295D01*
X240461904Y-154099200D02*
X240652381Y-154670628D01*
X240652381Y-154670628D02*
X240157142Y-154670628D01*
X239242856Y-154937295D02*
X239242856Y-154137295D01*
X238785713Y-154937295D02*
X239128571Y-154480152D01*
X238785713Y-154137295D02*
X239242856Y-154594438D01*
X246938690Y-173987295D02*
X246938690Y-173187295D01*
X246938690Y-173187295D02*
X246748214Y-173187295D01*
X246748214Y-173187295D02*
X246633928Y-173225390D01*
X246633928Y-173225390D02*
X246557738Y-173301580D01*
X246557738Y-173301580D02*
X246519643Y-173377771D01*
X246519643Y-173377771D02*
X246481547Y-173530152D01*
X246481547Y-173530152D02*
X246481547Y-173644438D01*
X246481547Y-173644438D02*
X246519643Y-173796819D01*
X246519643Y-173796819D02*
X246557738Y-173873009D01*
X246557738Y-173873009D02*
X246633928Y-173949200D01*
X246633928Y-173949200D02*
X246748214Y-173987295D01*
X246748214Y-173987295D02*
X246938690Y-173987295D01*
X246214881Y-173187295D02*
X245719643Y-173187295D01*
X245719643Y-173187295D02*
X245986309Y-173492057D01*
X245986309Y-173492057D02*
X245872024Y-173492057D01*
X245872024Y-173492057D02*
X245795833Y-173530152D01*
X245795833Y-173530152D02*
X245757738Y-173568247D01*
X245757738Y-173568247D02*
X245719643Y-173644438D01*
X245719643Y-173644438D02*
X245719643Y-173834914D01*
X245719643Y-173834914D02*
X245757738Y-173911104D01*
X245757738Y-173911104D02*
X245795833Y-173949200D01*
X245795833Y-173949200D02*
X245872024Y-173987295D01*
X245872024Y-173987295D02*
X246100595Y-173987295D01*
X246100595Y-173987295D02*
X246176786Y-173949200D01*
X246176786Y-173949200D02*
X246214881Y-173911104D01*
X245262500Y-173530152D02*
X245338690Y-173492057D01*
X245338690Y-173492057D02*
X245376785Y-173453961D01*
X245376785Y-173453961D02*
X245414881Y-173377771D01*
X245414881Y-173377771D02*
X245414881Y-173339676D01*
X245414881Y-173339676D02*
X245376785Y-173263485D01*
X245376785Y-173263485D02*
X245338690Y-173225390D01*
X245338690Y-173225390D02*
X245262500Y-173187295D01*
X245262500Y-173187295D02*
X245110119Y-173187295D01*
X245110119Y-173187295D02*
X245033928Y-173225390D01*
X245033928Y-173225390D02*
X244995833Y-173263485D01*
X244995833Y-173263485D02*
X244957738Y-173339676D01*
X244957738Y-173339676D02*
X244957738Y-173377771D01*
X244957738Y-173377771D02*
X244995833Y-173453961D01*
X244995833Y-173453961D02*
X245033928Y-173492057D01*
X245033928Y-173492057D02*
X245110119Y-173530152D01*
X245110119Y-173530152D02*
X245262500Y-173530152D01*
X245262500Y-173530152D02*
X245338690Y-173568247D01*
X245338690Y-173568247D02*
X245376785Y-173606342D01*
X245376785Y-173606342D02*
X245414881Y-173682533D01*
X245414881Y-173682533D02*
X245414881Y-173834914D01*
X245414881Y-173834914D02*
X245376785Y-173911104D01*
X245376785Y-173911104D02*
X245338690Y-173949200D01*
X245338690Y-173949200D02*
X245262500Y-173987295D01*
X245262500Y-173987295D02*
X245110119Y-173987295D01*
X245110119Y-173987295D02*
X245033928Y-173949200D01*
X245033928Y-173949200D02*
X244995833Y-173911104D01*
X244995833Y-173911104D02*
X244957738Y-173834914D01*
X244957738Y-173834914D02*
X244957738Y-173682533D01*
X244957738Y-173682533D02*
X244995833Y-173606342D01*
X244995833Y-173606342D02*
X245033928Y-173568247D01*
X245033928Y-173568247D02*
X245110119Y-173530152D01*
X244005356Y-173987295D02*
X244005356Y-173187295D01*
X243548213Y-173987295D02*
X243891071Y-173530152D01*
X243548213Y-173187295D02*
X244005356Y-173644438D01*
X251701190Y-135887295D02*
X251701190Y-135087295D01*
X251701190Y-135087295D02*
X251510714Y-135087295D01*
X251510714Y-135087295D02*
X251396428Y-135125390D01*
X251396428Y-135125390D02*
X251320238Y-135201580D01*
X251320238Y-135201580D02*
X251282143Y-135277771D01*
X251282143Y-135277771D02*
X251244047Y-135430152D01*
X251244047Y-135430152D02*
X251244047Y-135544438D01*
X251244047Y-135544438D02*
X251282143Y-135696819D01*
X251282143Y-135696819D02*
X251320238Y-135773009D01*
X251320238Y-135773009D02*
X251396428Y-135849200D01*
X251396428Y-135849200D02*
X251510714Y-135887295D01*
X251510714Y-135887295D02*
X251701190Y-135887295D01*
X250482143Y-135887295D02*
X250939286Y-135887295D01*
X250710714Y-135887295D02*
X250710714Y-135087295D01*
X250710714Y-135087295D02*
X250786905Y-135201580D01*
X250786905Y-135201580D02*
X250863095Y-135277771D01*
X250863095Y-135277771D02*
X250939286Y-135315866D01*
X249720238Y-135887295D02*
X250177381Y-135887295D01*
X249948809Y-135887295D02*
X249948809Y-135087295D01*
X249948809Y-135087295D02*
X250025000Y-135201580D01*
X250025000Y-135201580D02*
X250101190Y-135277771D01*
X250101190Y-135277771D02*
X250177381Y-135315866D01*
X248767856Y-135887295D02*
X248767856Y-135087295D01*
X248310713Y-135887295D02*
X248653571Y-135430152D01*
X248310713Y-135087295D02*
X248767856Y-135544438D01*
X254082440Y-212087295D02*
X254082440Y-211287295D01*
X254082440Y-211287295D02*
X253891964Y-211287295D01*
X253891964Y-211287295D02*
X253777678Y-211325390D01*
X253777678Y-211325390D02*
X253701488Y-211401580D01*
X253701488Y-211401580D02*
X253663393Y-211477771D01*
X253663393Y-211477771D02*
X253625297Y-211630152D01*
X253625297Y-211630152D02*
X253625297Y-211744438D01*
X253625297Y-211744438D02*
X253663393Y-211896819D01*
X253663393Y-211896819D02*
X253701488Y-211973009D01*
X253701488Y-211973009D02*
X253777678Y-212049200D01*
X253777678Y-212049200D02*
X253891964Y-212087295D01*
X253891964Y-212087295D02*
X254082440Y-212087295D01*
X252901488Y-211287295D02*
X253282440Y-211287295D01*
X253282440Y-211287295D02*
X253320536Y-211668247D01*
X253320536Y-211668247D02*
X253282440Y-211630152D01*
X253282440Y-211630152D02*
X253206250Y-211592057D01*
X253206250Y-211592057D02*
X253015774Y-211592057D01*
X253015774Y-211592057D02*
X252939583Y-211630152D01*
X252939583Y-211630152D02*
X252901488Y-211668247D01*
X252901488Y-211668247D02*
X252863393Y-211744438D01*
X252863393Y-211744438D02*
X252863393Y-211934914D01*
X252863393Y-211934914D02*
X252901488Y-212011104D01*
X252901488Y-212011104D02*
X252939583Y-212049200D01*
X252939583Y-212049200D02*
X253015774Y-212087295D01*
X253015774Y-212087295D02*
X253206250Y-212087295D01*
X253206250Y-212087295D02*
X253282440Y-212049200D01*
X253282440Y-212049200D02*
X253320536Y-212011104D01*
X252406250Y-211630152D02*
X252482440Y-211592057D01*
X252482440Y-211592057D02*
X252520535Y-211553961D01*
X252520535Y-211553961D02*
X252558631Y-211477771D01*
X252558631Y-211477771D02*
X252558631Y-211439676D01*
X252558631Y-211439676D02*
X252520535Y-211363485D01*
X252520535Y-211363485D02*
X252482440Y-211325390D01*
X252482440Y-211325390D02*
X252406250Y-211287295D01*
X252406250Y-211287295D02*
X252253869Y-211287295D01*
X252253869Y-211287295D02*
X252177678Y-211325390D01*
X252177678Y-211325390D02*
X252139583Y-211363485D01*
X252139583Y-211363485D02*
X252101488Y-211439676D01*
X252101488Y-211439676D02*
X252101488Y-211477771D01*
X252101488Y-211477771D02*
X252139583Y-211553961D01*
X252139583Y-211553961D02*
X252177678Y-211592057D01*
X252177678Y-211592057D02*
X252253869Y-211630152D01*
X252253869Y-211630152D02*
X252406250Y-211630152D01*
X252406250Y-211630152D02*
X252482440Y-211668247D01*
X252482440Y-211668247D02*
X252520535Y-211706342D01*
X252520535Y-211706342D02*
X252558631Y-211782533D01*
X252558631Y-211782533D02*
X252558631Y-211934914D01*
X252558631Y-211934914D02*
X252520535Y-212011104D01*
X252520535Y-212011104D02*
X252482440Y-212049200D01*
X252482440Y-212049200D02*
X252406250Y-212087295D01*
X252406250Y-212087295D02*
X252253869Y-212087295D01*
X252253869Y-212087295D02*
X252177678Y-212049200D01*
X252177678Y-212049200D02*
X252139583Y-212011104D01*
X252139583Y-212011104D02*
X252101488Y-211934914D01*
X252101488Y-211934914D02*
X252101488Y-211782533D01*
X252101488Y-211782533D02*
X252139583Y-211706342D01*
X252139583Y-211706342D02*
X252177678Y-211668247D01*
X252177678Y-211668247D02*
X252253869Y-211630152D01*
X251149106Y-212087295D02*
X251149106Y-211287295D01*
X250691963Y-212087295D02*
X251034821Y-211630152D01*
X250691963Y-211287295D02*
X251149106Y-211744438D01*
X256463690Y-193037295D02*
X256463690Y-192237295D01*
X256463690Y-192237295D02*
X256273214Y-192237295D01*
X256273214Y-192237295D02*
X256158928Y-192275390D01*
X256158928Y-192275390D02*
X256082738Y-192351580D01*
X256082738Y-192351580D02*
X256044643Y-192427771D01*
X256044643Y-192427771D02*
X256006547Y-192580152D01*
X256006547Y-192580152D02*
X256006547Y-192694438D01*
X256006547Y-192694438D02*
X256044643Y-192846819D01*
X256044643Y-192846819D02*
X256082738Y-192923009D01*
X256082738Y-192923009D02*
X256158928Y-192999200D01*
X256158928Y-192999200D02*
X256273214Y-193037295D01*
X256273214Y-193037295D02*
X256463690Y-193037295D01*
X255282738Y-192237295D02*
X255663690Y-192237295D01*
X255663690Y-192237295D02*
X255701786Y-192618247D01*
X255701786Y-192618247D02*
X255663690Y-192580152D01*
X255663690Y-192580152D02*
X255587500Y-192542057D01*
X255587500Y-192542057D02*
X255397024Y-192542057D01*
X255397024Y-192542057D02*
X255320833Y-192580152D01*
X255320833Y-192580152D02*
X255282738Y-192618247D01*
X255282738Y-192618247D02*
X255244643Y-192694438D01*
X255244643Y-192694438D02*
X255244643Y-192884914D01*
X255244643Y-192884914D02*
X255282738Y-192961104D01*
X255282738Y-192961104D02*
X255320833Y-192999200D01*
X255320833Y-192999200D02*
X255397024Y-193037295D01*
X255397024Y-193037295D02*
X255587500Y-193037295D01*
X255587500Y-193037295D02*
X255663690Y-192999200D01*
X255663690Y-192999200D02*
X255701786Y-192961104D01*
X254482738Y-193037295D02*
X254939881Y-193037295D01*
X254711309Y-193037295D02*
X254711309Y-192237295D01*
X254711309Y-192237295D02*
X254787500Y-192351580D01*
X254787500Y-192351580D02*
X254863690Y-192427771D01*
X254863690Y-192427771D02*
X254939881Y-192465866D01*
X253530356Y-193037295D02*
X253530356Y-192237295D01*
X253073213Y-193037295D02*
X253416071Y-192580152D01*
X253073213Y-192237295D02*
X253530356Y-192694438D01*
X261226190Y-154937295D02*
X261226190Y-154137295D01*
X261226190Y-154137295D02*
X261035714Y-154137295D01*
X261035714Y-154137295D02*
X260921428Y-154175390D01*
X260921428Y-154175390D02*
X260845238Y-154251580D01*
X260845238Y-154251580D02*
X260807143Y-154327771D01*
X260807143Y-154327771D02*
X260769047Y-154480152D01*
X260769047Y-154480152D02*
X260769047Y-154594438D01*
X260769047Y-154594438D02*
X260807143Y-154746819D01*
X260807143Y-154746819D02*
X260845238Y-154823009D01*
X260845238Y-154823009D02*
X260921428Y-154899200D01*
X260921428Y-154899200D02*
X261035714Y-154937295D01*
X261035714Y-154937295D02*
X261226190Y-154937295D01*
X260464286Y-154213485D02*
X260426190Y-154175390D01*
X260426190Y-154175390D02*
X260350000Y-154137295D01*
X260350000Y-154137295D02*
X260159524Y-154137295D01*
X260159524Y-154137295D02*
X260083333Y-154175390D01*
X260083333Y-154175390D02*
X260045238Y-154213485D01*
X260045238Y-154213485D02*
X260007143Y-154289676D01*
X260007143Y-154289676D02*
X260007143Y-154365866D01*
X260007143Y-154365866D02*
X260045238Y-154480152D01*
X260045238Y-154480152D02*
X260502381Y-154937295D01*
X260502381Y-154937295D02*
X260007143Y-154937295D01*
X259283333Y-154137295D02*
X259664285Y-154137295D01*
X259664285Y-154137295D02*
X259702381Y-154518247D01*
X259702381Y-154518247D02*
X259664285Y-154480152D01*
X259664285Y-154480152D02*
X259588095Y-154442057D01*
X259588095Y-154442057D02*
X259397619Y-154442057D01*
X259397619Y-154442057D02*
X259321428Y-154480152D01*
X259321428Y-154480152D02*
X259283333Y-154518247D01*
X259283333Y-154518247D02*
X259245238Y-154594438D01*
X259245238Y-154594438D02*
X259245238Y-154784914D01*
X259245238Y-154784914D02*
X259283333Y-154861104D01*
X259283333Y-154861104D02*
X259321428Y-154899200D01*
X259321428Y-154899200D02*
X259397619Y-154937295D01*
X259397619Y-154937295D02*
X259588095Y-154937295D01*
X259588095Y-154937295D02*
X259664285Y-154899200D01*
X259664285Y-154899200D02*
X259702381Y-154861104D01*
X258292856Y-154937295D02*
X258292856Y-154137295D01*
X257835713Y-154937295D02*
X258178571Y-154480152D01*
X257835713Y-154137295D02*
X258292856Y-154594438D01*
X265988690Y-173987295D02*
X265988690Y-173187295D01*
X265988690Y-173187295D02*
X265798214Y-173187295D01*
X265798214Y-173187295D02*
X265683928Y-173225390D01*
X265683928Y-173225390D02*
X265607738Y-173301580D01*
X265607738Y-173301580D02*
X265569643Y-173377771D01*
X265569643Y-173377771D02*
X265531547Y-173530152D01*
X265531547Y-173530152D02*
X265531547Y-173644438D01*
X265531547Y-173644438D02*
X265569643Y-173796819D01*
X265569643Y-173796819D02*
X265607738Y-173873009D01*
X265607738Y-173873009D02*
X265683928Y-173949200D01*
X265683928Y-173949200D02*
X265798214Y-173987295D01*
X265798214Y-173987295D02*
X265988690Y-173987295D01*
X265264881Y-173187295D02*
X264769643Y-173187295D01*
X264769643Y-173187295D02*
X265036309Y-173492057D01*
X265036309Y-173492057D02*
X264922024Y-173492057D01*
X264922024Y-173492057D02*
X264845833Y-173530152D01*
X264845833Y-173530152D02*
X264807738Y-173568247D01*
X264807738Y-173568247D02*
X264769643Y-173644438D01*
X264769643Y-173644438D02*
X264769643Y-173834914D01*
X264769643Y-173834914D02*
X264807738Y-173911104D01*
X264807738Y-173911104D02*
X264845833Y-173949200D01*
X264845833Y-173949200D02*
X264922024Y-173987295D01*
X264922024Y-173987295D02*
X265150595Y-173987295D01*
X265150595Y-173987295D02*
X265226786Y-173949200D01*
X265226786Y-173949200D02*
X265264881Y-173911104D01*
X264388690Y-173987295D02*
X264236309Y-173987295D01*
X264236309Y-173987295D02*
X264160119Y-173949200D01*
X264160119Y-173949200D02*
X264122023Y-173911104D01*
X264122023Y-173911104D02*
X264045833Y-173796819D01*
X264045833Y-173796819D02*
X264007738Y-173644438D01*
X264007738Y-173644438D02*
X264007738Y-173339676D01*
X264007738Y-173339676D02*
X264045833Y-173263485D01*
X264045833Y-173263485D02*
X264083928Y-173225390D01*
X264083928Y-173225390D02*
X264160119Y-173187295D01*
X264160119Y-173187295D02*
X264312500Y-173187295D01*
X264312500Y-173187295D02*
X264388690Y-173225390D01*
X264388690Y-173225390D02*
X264426785Y-173263485D01*
X264426785Y-173263485D02*
X264464881Y-173339676D01*
X264464881Y-173339676D02*
X264464881Y-173530152D01*
X264464881Y-173530152D02*
X264426785Y-173606342D01*
X264426785Y-173606342D02*
X264388690Y-173644438D01*
X264388690Y-173644438D02*
X264312500Y-173682533D01*
X264312500Y-173682533D02*
X264160119Y-173682533D01*
X264160119Y-173682533D02*
X264083928Y-173644438D01*
X264083928Y-173644438D02*
X264045833Y-173606342D01*
X264045833Y-173606342D02*
X264007738Y-173530152D01*
X263055356Y-173987295D02*
X263055356Y-173187295D01*
X262598213Y-173987295D02*
X262941071Y-173530152D01*
X262598213Y-173187295D02*
X263055356Y-173644438D01*
X270751190Y-135887295D02*
X270751190Y-135087295D01*
X270751190Y-135087295D02*
X270560714Y-135087295D01*
X270560714Y-135087295D02*
X270446428Y-135125390D01*
X270446428Y-135125390D02*
X270370238Y-135201580D01*
X270370238Y-135201580D02*
X270332143Y-135277771D01*
X270332143Y-135277771D02*
X270294047Y-135430152D01*
X270294047Y-135430152D02*
X270294047Y-135544438D01*
X270294047Y-135544438D02*
X270332143Y-135696819D01*
X270332143Y-135696819D02*
X270370238Y-135773009D01*
X270370238Y-135773009D02*
X270446428Y-135849200D01*
X270446428Y-135849200D02*
X270560714Y-135887295D01*
X270560714Y-135887295D02*
X270751190Y-135887295D01*
X269532143Y-135887295D02*
X269989286Y-135887295D01*
X269760714Y-135887295D02*
X269760714Y-135087295D01*
X269760714Y-135087295D02*
X269836905Y-135201580D01*
X269836905Y-135201580D02*
X269913095Y-135277771D01*
X269913095Y-135277771D02*
X269989286Y-135315866D01*
X269227381Y-135163485D02*
X269189285Y-135125390D01*
X269189285Y-135125390D02*
X269113095Y-135087295D01*
X269113095Y-135087295D02*
X268922619Y-135087295D01*
X268922619Y-135087295D02*
X268846428Y-135125390D01*
X268846428Y-135125390D02*
X268808333Y-135163485D01*
X268808333Y-135163485D02*
X268770238Y-135239676D01*
X268770238Y-135239676D02*
X268770238Y-135315866D01*
X268770238Y-135315866D02*
X268808333Y-135430152D01*
X268808333Y-135430152D02*
X269265476Y-135887295D01*
X269265476Y-135887295D02*
X268770238Y-135887295D01*
X267817856Y-135887295D02*
X267817856Y-135087295D01*
X267360713Y-135887295D02*
X267703571Y-135430152D01*
X267360713Y-135087295D02*
X267817856Y-135544438D01*
X275513690Y-193037295D02*
X275513690Y-192237295D01*
X275513690Y-192237295D02*
X275323214Y-192237295D01*
X275323214Y-192237295D02*
X275208928Y-192275390D01*
X275208928Y-192275390D02*
X275132738Y-192351580D01*
X275132738Y-192351580D02*
X275094643Y-192427771D01*
X275094643Y-192427771D02*
X275056547Y-192580152D01*
X275056547Y-192580152D02*
X275056547Y-192694438D01*
X275056547Y-192694438D02*
X275094643Y-192846819D01*
X275094643Y-192846819D02*
X275132738Y-192923009D01*
X275132738Y-192923009D02*
X275208928Y-192999200D01*
X275208928Y-192999200D02*
X275323214Y-193037295D01*
X275323214Y-193037295D02*
X275513690Y-193037295D01*
X274332738Y-192237295D02*
X274713690Y-192237295D01*
X274713690Y-192237295D02*
X274751786Y-192618247D01*
X274751786Y-192618247D02*
X274713690Y-192580152D01*
X274713690Y-192580152D02*
X274637500Y-192542057D01*
X274637500Y-192542057D02*
X274447024Y-192542057D01*
X274447024Y-192542057D02*
X274370833Y-192580152D01*
X274370833Y-192580152D02*
X274332738Y-192618247D01*
X274332738Y-192618247D02*
X274294643Y-192694438D01*
X274294643Y-192694438D02*
X274294643Y-192884914D01*
X274294643Y-192884914D02*
X274332738Y-192961104D01*
X274332738Y-192961104D02*
X274370833Y-192999200D01*
X274370833Y-192999200D02*
X274447024Y-193037295D01*
X274447024Y-193037295D02*
X274637500Y-193037295D01*
X274637500Y-193037295D02*
X274713690Y-192999200D01*
X274713690Y-192999200D02*
X274751786Y-192961104D01*
X273989881Y-192313485D02*
X273951785Y-192275390D01*
X273951785Y-192275390D02*
X273875595Y-192237295D01*
X273875595Y-192237295D02*
X273685119Y-192237295D01*
X273685119Y-192237295D02*
X273608928Y-192275390D01*
X273608928Y-192275390D02*
X273570833Y-192313485D01*
X273570833Y-192313485D02*
X273532738Y-192389676D01*
X273532738Y-192389676D02*
X273532738Y-192465866D01*
X273532738Y-192465866D02*
X273570833Y-192580152D01*
X273570833Y-192580152D02*
X274027976Y-193037295D01*
X274027976Y-193037295D02*
X273532738Y-193037295D01*
X272580356Y-193037295D02*
X272580356Y-192237295D01*
X272123213Y-193037295D02*
X272466071Y-192580152D01*
X272123213Y-192237295D02*
X272580356Y-192694438D01*
X277894940Y-212087295D02*
X277894940Y-211287295D01*
X277894940Y-211287295D02*
X277704464Y-211287295D01*
X277704464Y-211287295D02*
X277590178Y-211325390D01*
X277590178Y-211325390D02*
X277513988Y-211401580D01*
X277513988Y-211401580D02*
X277475893Y-211477771D01*
X277475893Y-211477771D02*
X277437797Y-211630152D01*
X277437797Y-211630152D02*
X277437797Y-211744438D01*
X277437797Y-211744438D02*
X277475893Y-211896819D01*
X277475893Y-211896819D02*
X277513988Y-211973009D01*
X277513988Y-211973009D02*
X277590178Y-212049200D01*
X277590178Y-212049200D02*
X277704464Y-212087295D01*
X277704464Y-212087295D02*
X277894940Y-212087295D01*
X276713988Y-211287295D02*
X277094940Y-211287295D01*
X277094940Y-211287295D02*
X277133036Y-211668247D01*
X277133036Y-211668247D02*
X277094940Y-211630152D01*
X277094940Y-211630152D02*
X277018750Y-211592057D01*
X277018750Y-211592057D02*
X276828274Y-211592057D01*
X276828274Y-211592057D02*
X276752083Y-211630152D01*
X276752083Y-211630152D02*
X276713988Y-211668247D01*
X276713988Y-211668247D02*
X276675893Y-211744438D01*
X276675893Y-211744438D02*
X276675893Y-211934914D01*
X276675893Y-211934914D02*
X276713988Y-212011104D01*
X276713988Y-212011104D02*
X276752083Y-212049200D01*
X276752083Y-212049200D02*
X276828274Y-212087295D01*
X276828274Y-212087295D02*
X277018750Y-212087295D01*
X277018750Y-212087295D02*
X277094940Y-212049200D01*
X277094940Y-212049200D02*
X277133036Y-212011104D01*
X276294940Y-212087295D02*
X276142559Y-212087295D01*
X276142559Y-212087295D02*
X276066369Y-212049200D01*
X276066369Y-212049200D02*
X276028273Y-212011104D01*
X276028273Y-212011104D02*
X275952083Y-211896819D01*
X275952083Y-211896819D02*
X275913988Y-211744438D01*
X275913988Y-211744438D02*
X275913988Y-211439676D01*
X275913988Y-211439676D02*
X275952083Y-211363485D01*
X275952083Y-211363485D02*
X275990178Y-211325390D01*
X275990178Y-211325390D02*
X276066369Y-211287295D01*
X276066369Y-211287295D02*
X276218750Y-211287295D01*
X276218750Y-211287295D02*
X276294940Y-211325390D01*
X276294940Y-211325390D02*
X276333035Y-211363485D01*
X276333035Y-211363485D02*
X276371131Y-211439676D01*
X276371131Y-211439676D02*
X276371131Y-211630152D01*
X276371131Y-211630152D02*
X276333035Y-211706342D01*
X276333035Y-211706342D02*
X276294940Y-211744438D01*
X276294940Y-211744438D02*
X276218750Y-211782533D01*
X276218750Y-211782533D02*
X276066369Y-211782533D01*
X276066369Y-211782533D02*
X275990178Y-211744438D01*
X275990178Y-211744438D02*
X275952083Y-211706342D01*
X275952083Y-211706342D02*
X275913988Y-211630152D01*
X274961606Y-212087295D02*
X274961606Y-211287295D01*
X274504463Y-212087295D02*
X274847321Y-211630152D01*
X274504463Y-211287295D02*
X274961606Y-211744438D01*
X280276190Y-154937295D02*
X280276190Y-154137295D01*
X280276190Y-154137295D02*
X280085714Y-154137295D01*
X280085714Y-154137295D02*
X279971428Y-154175390D01*
X279971428Y-154175390D02*
X279895238Y-154251580D01*
X279895238Y-154251580D02*
X279857143Y-154327771D01*
X279857143Y-154327771D02*
X279819047Y-154480152D01*
X279819047Y-154480152D02*
X279819047Y-154594438D01*
X279819047Y-154594438D02*
X279857143Y-154746819D01*
X279857143Y-154746819D02*
X279895238Y-154823009D01*
X279895238Y-154823009D02*
X279971428Y-154899200D01*
X279971428Y-154899200D02*
X280085714Y-154937295D01*
X280085714Y-154937295D02*
X280276190Y-154937295D01*
X279514286Y-154213485D02*
X279476190Y-154175390D01*
X279476190Y-154175390D02*
X279400000Y-154137295D01*
X279400000Y-154137295D02*
X279209524Y-154137295D01*
X279209524Y-154137295D02*
X279133333Y-154175390D01*
X279133333Y-154175390D02*
X279095238Y-154213485D01*
X279095238Y-154213485D02*
X279057143Y-154289676D01*
X279057143Y-154289676D02*
X279057143Y-154365866D01*
X279057143Y-154365866D02*
X279095238Y-154480152D01*
X279095238Y-154480152D02*
X279552381Y-154937295D01*
X279552381Y-154937295D02*
X279057143Y-154937295D01*
X278371428Y-154137295D02*
X278523809Y-154137295D01*
X278523809Y-154137295D02*
X278600000Y-154175390D01*
X278600000Y-154175390D02*
X278638095Y-154213485D01*
X278638095Y-154213485D02*
X278714285Y-154327771D01*
X278714285Y-154327771D02*
X278752381Y-154480152D01*
X278752381Y-154480152D02*
X278752381Y-154784914D01*
X278752381Y-154784914D02*
X278714285Y-154861104D01*
X278714285Y-154861104D02*
X278676190Y-154899200D01*
X278676190Y-154899200D02*
X278600000Y-154937295D01*
X278600000Y-154937295D02*
X278447619Y-154937295D01*
X278447619Y-154937295D02*
X278371428Y-154899200D01*
X278371428Y-154899200D02*
X278333333Y-154861104D01*
X278333333Y-154861104D02*
X278295238Y-154784914D01*
X278295238Y-154784914D02*
X278295238Y-154594438D01*
X278295238Y-154594438D02*
X278333333Y-154518247D01*
X278333333Y-154518247D02*
X278371428Y-154480152D01*
X278371428Y-154480152D02*
X278447619Y-154442057D01*
X278447619Y-154442057D02*
X278600000Y-154442057D01*
X278600000Y-154442057D02*
X278676190Y-154480152D01*
X278676190Y-154480152D02*
X278714285Y-154518247D01*
X278714285Y-154518247D02*
X278752381Y-154594438D01*
X277342856Y-154937295D02*
X277342856Y-154137295D01*
X276885713Y-154937295D02*
X277228571Y-154480152D01*
X276885713Y-154137295D02*
X277342856Y-154594438D01*
X285038690Y-173987295D02*
X285038690Y-173187295D01*
X285038690Y-173187295D02*
X284848214Y-173187295D01*
X284848214Y-173187295D02*
X284733928Y-173225390D01*
X284733928Y-173225390D02*
X284657738Y-173301580D01*
X284657738Y-173301580D02*
X284619643Y-173377771D01*
X284619643Y-173377771D02*
X284581547Y-173530152D01*
X284581547Y-173530152D02*
X284581547Y-173644438D01*
X284581547Y-173644438D02*
X284619643Y-173796819D01*
X284619643Y-173796819D02*
X284657738Y-173873009D01*
X284657738Y-173873009D02*
X284733928Y-173949200D01*
X284733928Y-173949200D02*
X284848214Y-173987295D01*
X284848214Y-173987295D02*
X285038690Y-173987295D01*
X283895833Y-173453961D02*
X283895833Y-173987295D01*
X284086309Y-173149200D02*
X284276786Y-173720628D01*
X284276786Y-173720628D02*
X283781547Y-173720628D01*
X283324404Y-173187295D02*
X283248214Y-173187295D01*
X283248214Y-173187295D02*
X283172023Y-173225390D01*
X283172023Y-173225390D02*
X283133928Y-173263485D01*
X283133928Y-173263485D02*
X283095833Y-173339676D01*
X283095833Y-173339676D02*
X283057738Y-173492057D01*
X283057738Y-173492057D02*
X283057738Y-173682533D01*
X283057738Y-173682533D02*
X283095833Y-173834914D01*
X283095833Y-173834914D02*
X283133928Y-173911104D01*
X283133928Y-173911104D02*
X283172023Y-173949200D01*
X283172023Y-173949200D02*
X283248214Y-173987295D01*
X283248214Y-173987295D02*
X283324404Y-173987295D01*
X283324404Y-173987295D02*
X283400595Y-173949200D01*
X283400595Y-173949200D02*
X283438690Y-173911104D01*
X283438690Y-173911104D02*
X283476785Y-173834914D01*
X283476785Y-173834914D02*
X283514881Y-173682533D01*
X283514881Y-173682533D02*
X283514881Y-173492057D01*
X283514881Y-173492057D02*
X283476785Y-173339676D01*
X283476785Y-173339676D02*
X283438690Y-173263485D01*
X283438690Y-173263485D02*
X283400595Y-173225390D01*
X283400595Y-173225390D02*
X283324404Y-173187295D01*
X282105356Y-173987295D02*
X282105356Y-173187295D01*
X281648213Y-173987295D02*
X281991071Y-173530152D01*
X281648213Y-173187295D02*
X282105356Y-173644438D01*
X289801190Y-135887295D02*
X289801190Y-135087295D01*
X289801190Y-135087295D02*
X289610714Y-135087295D01*
X289610714Y-135087295D02*
X289496428Y-135125390D01*
X289496428Y-135125390D02*
X289420238Y-135201580D01*
X289420238Y-135201580D02*
X289382143Y-135277771D01*
X289382143Y-135277771D02*
X289344047Y-135430152D01*
X289344047Y-135430152D02*
X289344047Y-135544438D01*
X289344047Y-135544438D02*
X289382143Y-135696819D01*
X289382143Y-135696819D02*
X289420238Y-135773009D01*
X289420238Y-135773009D02*
X289496428Y-135849200D01*
X289496428Y-135849200D02*
X289610714Y-135887295D01*
X289610714Y-135887295D02*
X289801190Y-135887295D01*
X288582143Y-135887295D02*
X289039286Y-135887295D01*
X288810714Y-135887295D02*
X288810714Y-135087295D01*
X288810714Y-135087295D02*
X288886905Y-135201580D01*
X288886905Y-135201580D02*
X288963095Y-135277771D01*
X288963095Y-135277771D02*
X289039286Y-135315866D01*
X288315476Y-135087295D02*
X287820238Y-135087295D01*
X287820238Y-135087295D02*
X288086904Y-135392057D01*
X288086904Y-135392057D02*
X287972619Y-135392057D01*
X287972619Y-135392057D02*
X287896428Y-135430152D01*
X287896428Y-135430152D02*
X287858333Y-135468247D01*
X287858333Y-135468247D02*
X287820238Y-135544438D01*
X287820238Y-135544438D02*
X287820238Y-135734914D01*
X287820238Y-135734914D02*
X287858333Y-135811104D01*
X287858333Y-135811104D02*
X287896428Y-135849200D01*
X287896428Y-135849200D02*
X287972619Y-135887295D01*
X287972619Y-135887295D02*
X288201190Y-135887295D01*
X288201190Y-135887295D02*
X288277381Y-135849200D01*
X288277381Y-135849200D02*
X288315476Y-135811104D01*
X286867856Y-135887295D02*
X286867856Y-135087295D01*
X286410713Y-135887295D02*
X286753571Y-135430152D01*
X286410713Y-135087295D02*
X286867856Y-135544438D01*
X299326190Y-154937295D02*
X299326190Y-154137295D01*
X299326190Y-154137295D02*
X299135714Y-154137295D01*
X299135714Y-154137295D02*
X299021428Y-154175390D01*
X299021428Y-154175390D02*
X298945238Y-154251580D01*
X298945238Y-154251580D02*
X298907143Y-154327771D01*
X298907143Y-154327771D02*
X298869047Y-154480152D01*
X298869047Y-154480152D02*
X298869047Y-154594438D01*
X298869047Y-154594438D02*
X298907143Y-154746819D01*
X298907143Y-154746819D02*
X298945238Y-154823009D01*
X298945238Y-154823009D02*
X299021428Y-154899200D01*
X299021428Y-154899200D02*
X299135714Y-154937295D01*
X299135714Y-154937295D02*
X299326190Y-154937295D01*
X298564286Y-154213485D02*
X298526190Y-154175390D01*
X298526190Y-154175390D02*
X298450000Y-154137295D01*
X298450000Y-154137295D02*
X298259524Y-154137295D01*
X298259524Y-154137295D02*
X298183333Y-154175390D01*
X298183333Y-154175390D02*
X298145238Y-154213485D01*
X298145238Y-154213485D02*
X298107143Y-154289676D01*
X298107143Y-154289676D02*
X298107143Y-154365866D01*
X298107143Y-154365866D02*
X298145238Y-154480152D01*
X298145238Y-154480152D02*
X298602381Y-154937295D01*
X298602381Y-154937295D02*
X298107143Y-154937295D01*
X297840476Y-154137295D02*
X297307142Y-154137295D01*
X297307142Y-154137295D02*
X297650000Y-154937295D01*
X296392856Y-154937295D02*
X296392856Y-154137295D01*
X295935713Y-154937295D02*
X296278571Y-154480152D01*
X295935713Y-154137295D02*
X296392856Y-154594438D01*
X301707440Y-212087295D02*
X301707440Y-211287295D01*
X301707440Y-211287295D02*
X301516964Y-211287295D01*
X301516964Y-211287295D02*
X301402678Y-211325390D01*
X301402678Y-211325390D02*
X301326488Y-211401580D01*
X301326488Y-211401580D02*
X301288393Y-211477771D01*
X301288393Y-211477771D02*
X301250297Y-211630152D01*
X301250297Y-211630152D02*
X301250297Y-211744438D01*
X301250297Y-211744438D02*
X301288393Y-211896819D01*
X301288393Y-211896819D02*
X301326488Y-211973009D01*
X301326488Y-211973009D02*
X301402678Y-212049200D01*
X301402678Y-212049200D02*
X301516964Y-212087295D01*
X301516964Y-212087295D02*
X301707440Y-212087295D01*
X300564583Y-211287295D02*
X300716964Y-211287295D01*
X300716964Y-211287295D02*
X300793155Y-211325390D01*
X300793155Y-211325390D02*
X300831250Y-211363485D01*
X300831250Y-211363485D02*
X300907440Y-211477771D01*
X300907440Y-211477771D02*
X300945536Y-211630152D01*
X300945536Y-211630152D02*
X300945536Y-211934914D01*
X300945536Y-211934914D02*
X300907440Y-212011104D01*
X300907440Y-212011104D02*
X300869345Y-212049200D01*
X300869345Y-212049200D02*
X300793155Y-212087295D01*
X300793155Y-212087295D02*
X300640774Y-212087295D01*
X300640774Y-212087295D02*
X300564583Y-212049200D01*
X300564583Y-212049200D02*
X300526488Y-212011104D01*
X300526488Y-212011104D02*
X300488393Y-211934914D01*
X300488393Y-211934914D02*
X300488393Y-211744438D01*
X300488393Y-211744438D02*
X300526488Y-211668247D01*
X300526488Y-211668247D02*
X300564583Y-211630152D01*
X300564583Y-211630152D02*
X300640774Y-211592057D01*
X300640774Y-211592057D02*
X300793155Y-211592057D01*
X300793155Y-211592057D02*
X300869345Y-211630152D01*
X300869345Y-211630152D02*
X300907440Y-211668247D01*
X300907440Y-211668247D02*
X300945536Y-211744438D01*
X299993154Y-211287295D02*
X299916964Y-211287295D01*
X299916964Y-211287295D02*
X299840773Y-211325390D01*
X299840773Y-211325390D02*
X299802678Y-211363485D01*
X299802678Y-211363485D02*
X299764583Y-211439676D01*
X299764583Y-211439676D02*
X299726488Y-211592057D01*
X299726488Y-211592057D02*
X299726488Y-211782533D01*
X299726488Y-211782533D02*
X299764583Y-211934914D01*
X299764583Y-211934914D02*
X299802678Y-212011104D01*
X299802678Y-212011104D02*
X299840773Y-212049200D01*
X299840773Y-212049200D02*
X299916964Y-212087295D01*
X299916964Y-212087295D02*
X299993154Y-212087295D01*
X299993154Y-212087295D02*
X300069345Y-212049200D01*
X300069345Y-212049200D02*
X300107440Y-212011104D01*
X300107440Y-212011104D02*
X300145535Y-211934914D01*
X300145535Y-211934914D02*
X300183631Y-211782533D01*
X300183631Y-211782533D02*
X300183631Y-211592057D01*
X300183631Y-211592057D02*
X300145535Y-211439676D01*
X300145535Y-211439676D02*
X300107440Y-211363485D01*
X300107440Y-211363485D02*
X300069345Y-211325390D01*
X300069345Y-211325390D02*
X299993154Y-211287295D01*
X298774106Y-212087295D02*
X298774106Y-211287295D01*
X298316963Y-212087295D02*
X298659821Y-211630152D01*
X298316963Y-211287295D02*
X298774106Y-211744438D01*
X311232440Y-193037295D02*
X311232440Y-192237295D01*
X311232440Y-192237295D02*
X311041964Y-192237295D01*
X311041964Y-192237295D02*
X310927678Y-192275390D01*
X310927678Y-192275390D02*
X310851488Y-192351580D01*
X310851488Y-192351580D02*
X310813393Y-192427771D01*
X310813393Y-192427771D02*
X310775297Y-192580152D01*
X310775297Y-192580152D02*
X310775297Y-192694438D01*
X310775297Y-192694438D02*
X310813393Y-192846819D01*
X310813393Y-192846819D02*
X310851488Y-192923009D01*
X310851488Y-192923009D02*
X310927678Y-192999200D01*
X310927678Y-192999200D02*
X311041964Y-193037295D01*
X311041964Y-193037295D02*
X311232440Y-193037295D01*
X310051488Y-192237295D02*
X310432440Y-192237295D01*
X310432440Y-192237295D02*
X310470536Y-192618247D01*
X310470536Y-192618247D02*
X310432440Y-192580152D01*
X310432440Y-192580152D02*
X310356250Y-192542057D01*
X310356250Y-192542057D02*
X310165774Y-192542057D01*
X310165774Y-192542057D02*
X310089583Y-192580152D01*
X310089583Y-192580152D02*
X310051488Y-192618247D01*
X310051488Y-192618247D02*
X310013393Y-192694438D01*
X310013393Y-192694438D02*
X310013393Y-192884914D01*
X310013393Y-192884914D02*
X310051488Y-192961104D01*
X310051488Y-192961104D02*
X310089583Y-192999200D01*
X310089583Y-192999200D02*
X310165774Y-193037295D01*
X310165774Y-193037295D02*
X310356250Y-193037295D01*
X310356250Y-193037295D02*
X310432440Y-192999200D01*
X310432440Y-192999200D02*
X310470536Y-192961104D01*
X309746726Y-192237295D02*
X309251488Y-192237295D01*
X309251488Y-192237295D02*
X309518154Y-192542057D01*
X309518154Y-192542057D02*
X309403869Y-192542057D01*
X309403869Y-192542057D02*
X309327678Y-192580152D01*
X309327678Y-192580152D02*
X309289583Y-192618247D01*
X309289583Y-192618247D02*
X309251488Y-192694438D01*
X309251488Y-192694438D02*
X309251488Y-192884914D01*
X309251488Y-192884914D02*
X309289583Y-192961104D01*
X309289583Y-192961104D02*
X309327678Y-192999200D01*
X309327678Y-192999200D02*
X309403869Y-193037295D01*
X309403869Y-193037295D02*
X309632440Y-193037295D01*
X309632440Y-193037295D02*
X309708631Y-192999200D01*
X309708631Y-192999200D02*
X309746726Y-192961104D01*
X308299106Y-193037295D02*
X308299106Y-192237295D01*
X307841963Y-193037295D02*
X308184821Y-192580152D01*
X307841963Y-192237295D02*
X308299106Y-192694438D01*
X315994940Y-173987295D02*
X315994940Y-173187295D01*
X315994940Y-173187295D02*
X315804464Y-173187295D01*
X315804464Y-173187295D02*
X315690178Y-173225390D01*
X315690178Y-173225390D02*
X315613988Y-173301580D01*
X315613988Y-173301580D02*
X315575893Y-173377771D01*
X315575893Y-173377771D02*
X315537797Y-173530152D01*
X315537797Y-173530152D02*
X315537797Y-173644438D01*
X315537797Y-173644438D02*
X315575893Y-173796819D01*
X315575893Y-173796819D02*
X315613988Y-173873009D01*
X315613988Y-173873009D02*
X315690178Y-173949200D01*
X315690178Y-173949200D02*
X315804464Y-173987295D01*
X315804464Y-173987295D02*
X315994940Y-173987295D01*
X314852083Y-173453961D02*
X314852083Y-173987295D01*
X315042559Y-173149200D02*
X315233036Y-173720628D01*
X315233036Y-173720628D02*
X314737797Y-173720628D01*
X314013988Y-173987295D02*
X314471131Y-173987295D01*
X314242559Y-173987295D02*
X314242559Y-173187295D01*
X314242559Y-173187295D02*
X314318750Y-173301580D01*
X314318750Y-173301580D02*
X314394940Y-173377771D01*
X314394940Y-173377771D02*
X314471131Y-173415866D01*
X313061606Y-173987295D02*
X313061606Y-173187295D01*
X312604463Y-173987295D02*
X312947321Y-173530152D01*
X312604463Y-173187295D02*
X313061606Y-173644438D01*
X318376190Y-135887295D02*
X318376190Y-135087295D01*
X318376190Y-135087295D02*
X318185714Y-135087295D01*
X318185714Y-135087295D02*
X318071428Y-135125390D01*
X318071428Y-135125390D02*
X317995238Y-135201580D01*
X317995238Y-135201580D02*
X317957143Y-135277771D01*
X317957143Y-135277771D02*
X317919047Y-135430152D01*
X317919047Y-135430152D02*
X317919047Y-135544438D01*
X317919047Y-135544438D02*
X317957143Y-135696819D01*
X317957143Y-135696819D02*
X317995238Y-135773009D01*
X317995238Y-135773009D02*
X318071428Y-135849200D01*
X318071428Y-135849200D02*
X318185714Y-135887295D01*
X318185714Y-135887295D02*
X318376190Y-135887295D01*
X317157143Y-135887295D02*
X317614286Y-135887295D01*
X317385714Y-135887295D02*
X317385714Y-135087295D01*
X317385714Y-135087295D02*
X317461905Y-135201580D01*
X317461905Y-135201580D02*
X317538095Y-135277771D01*
X317538095Y-135277771D02*
X317614286Y-135315866D01*
X316471428Y-135353961D02*
X316471428Y-135887295D01*
X316661904Y-135049200D02*
X316852381Y-135620628D01*
X316852381Y-135620628D02*
X316357142Y-135620628D01*
X315442856Y-135887295D02*
X315442856Y-135087295D01*
X314985713Y-135887295D02*
X315328571Y-135430152D01*
X314985713Y-135087295D02*
X315442856Y-135544438D01*
X323138690Y-154937295D02*
X323138690Y-154137295D01*
X323138690Y-154137295D02*
X322948214Y-154137295D01*
X322948214Y-154137295D02*
X322833928Y-154175390D01*
X322833928Y-154175390D02*
X322757738Y-154251580D01*
X322757738Y-154251580D02*
X322719643Y-154327771D01*
X322719643Y-154327771D02*
X322681547Y-154480152D01*
X322681547Y-154480152D02*
X322681547Y-154594438D01*
X322681547Y-154594438D02*
X322719643Y-154746819D01*
X322719643Y-154746819D02*
X322757738Y-154823009D01*
X322757738Y-154823009D02*
X322833928Y-154899200D01*
X322833928Y-154899200D02*
X322948214Y-154937295D01*
X322948214Y-154937295D02*
X323138690Y-154937295D01*
X322376786Y-154213485D02*
X322338690Y-154175390D01*
X322338690Y-154175390D02*
X322262500Y-154137295D01*
X322262500Y-154137295D02*
X322072024Y-154137295D01*
X322072024Y-154137295D02*
X321995833Y-154175390D01*
X321995833Y-154175390D02*
X321957738Y-154213485D01*
X321957738Y-154213485D02*
X321919643Y-154289676D01*
X321919643Y-154289676D02*
X321919643Y-154365866D01*
X321919643Y-154365866D02*
X321957738Y-154480152D01*
X321957738Y-154480152D02*
X322414881Y-154937295D01*
X322414881Y-154937295D02*
X321919643Y-154937295D01*
X321462500Y-154480152D02*
X321538690Y-154442057D01*
X321538690Y-154442057D02*
X321576785Y-154403961D01*
X321576785Y-154403961D02*
X321614881Y-154327771D01*
X321614881Y-154327771D02*
X321614881Y-154289676D01*
X321614881Y-154289676D02*
X321576785Y-154213485D01*
X321576785Y-154213485D02*
X321538690Y-154175390D01*
X321538690Y-154175390D02*
X321462500Y-154137295D01*
X321462500Y-154137295D02*
X321310119Y-154137295D01*
X321310119Y-154137295D02*
X321233928Y-154175390D01*
X321233928Y-154175390D02*
X321195833Y-154213485D01*
X321195833Y-154213485D02*
X321157738Y-154289676D01*
X321157738Y-154289676D02*
X321157738Y-154327771D01*
X321157738Y-154327771D02*
X321195833Y-154403961D01*
X321195833Y-154403961D02*
X321233928Y-154442057D01*
X321233928Y-154442057D02*
X321310119Y-154480152D01*
X321310119Y-154480152D02*
X321462500Y-154480152D01*
X321462500Y-154480152D02*
X321538690Y-154518247D01*
X321538690Y-154518247D02*
X321576785Y-154556342D01*
X321576785Y-154556342D02*
X321614881Y-154632533D01*
X321614881Y-154632533D02*
X321614881Y-154784914D01*
X321614881Y-154784914D02*
X321576785Y-154861104D01*
X321576785Y-154861104D02*
X321538690Y-154899200D01*
X321538690Y-154899200D02*
X321462500Y-154937295D01*
X321462500Y-154937295D02*
X321310119Y-154937295D01*
X321310119Y-154937295D02*
X321233928Y-154899200D01*
X321233928Y-154899200D02*
X321195833Y-154861104D01*
X321195833Y-154861104D02*
X321157738Y-154784914D01*
X321157738Y-154784914D02*
X321157738Y-154632533D01*
X321157738Y-154632533D02*
X321195833Y-154556342D01*
X321195833Y-154556342D02*
X321233928Y-154518247D01*
X321233928Y-154518247D02*
X321310119Y-154480152D01*
X320205356Y-154937295D02*
X320205356Y-154137295D01*
X319748213Y-154937295D02*
X320091071Y-154480152D01*
X319748213Y-154137295D02*
X320205356Y-154594438D01*
X325519940Y-212087295D02*
X325519940Y-211287295D01*
X325519940Y-211287295D02*
X325329464Y-211287295D01*
X325329464Y-211287295D02*
X325215178Y-211325390D01*
X325215178Y-211325390D02*
X325138988Y-211401580D01*
X325138988Y-211401580D02*
X325100893Y-211477771D01*
X325100893Y-211477771D02*
X325062797Y-211630152D01*
X325062797Y-211630152D02*
X325062797Y-211744438D01*
X325062797Y-211744438D02*
X325100893Y-211896819D01*
X325100893Y-211896819D02*
X325138988Y-211973009D01*
X325138988Y-211973009D02*
X325215178Y-212049200D01*
X325215178Y-212049200D02*
X325329464Y-212087295D01*
X325329464Y-212087295D02*
X325519940Y-212087295D01*
X324377083Y-211287295D02*
X324529464Y-211287295D01*
X324529464Y-211287295D02*
X324605655Y-211325390D01*
X324605655Y-211325390D02*
X324643750Y-211363485D01*
X324643750Y-211363485D02*
X324719940Y-211477771D01*
X324719940Y-211477771D02*
X324758036Y-211630152D01*
X324758036Y-211630152D02*
X324758036Y-211934914D01*
X324758036Y-211934914D02*
X324719940Y-212011104D01*
X324719940Y-212011104D02*
X324681845Y-212049200D01*
X324681845Y-212049200D02*
X324605655Y-212087295D01*
X324605655Y-212087295D02*
X324453274Y-212087295D01*
X324453274Y-212087295D02*
X324377083Y-212049200D01*
X324377083Y-212049200D02*
X324338988Y-212011104D01*
X324338988Y-212011104D02*
X324300893Y-211934914D01*
X324300893Y-211934914D02*
X324300893Y-211744438D01*
X324300893Y-211744438D02*
X324338988Y-211668247D01*
X324338988Y-211668247D02*
X324377083Y-211630152D01*
X324377083Y-211630152D02*
X324453274Y-211592057D01*
X324453274Y-211592057D02*
X324605655Y-211592057D01*
X324605655Y-211592057D02*
X324681845Y-211630152D01*
X324681845Y-211630152D02*
X324719940Y-211668247D01*
X324719940Y-211668247D02*
X324758036Y-211744438D01*
X323538988Y-212087295D02*
X323996131Y-212087295D01*
X323767559Y-212087295D02*
X323767559Y-211287295D01*
X323767559Y-211287295D02*
X323843750Y-211401580D01*
X323843750Y-211401580D02*
X323919940Y-211477771D01*
X323919940Y-211477771D02*
X323996131Y-211515866D01*
X322586606Y-212087295D02*
X322586606Y-211287295D01*
X322129463Y-212087295D02*
X322472321Y-211630152D01*
X322129463Y-211287295D02*
X322586606Y-211744438D01*
X158846904Y-131679819D02*
X158846904Y-130679819D01*
X158275476Y-131679819D02*
X158704047Y-131108390D01*
X158275476Y-130679819D02*
X158846904Y-131251247D01*
X292196904Y-131679819D02*
X292196904Y-130679819D01*
X291625476Y-131679819D02*
X292054047Y-131108390D01*
X291625476Y-130679819D02*
X292196904Y-131251247D01*
X89790704Y-207879819D02*
X89790704Y-206879819D01*
X89219276Y-207879819D02*
X89647847Y-207308390D01*
X89219276Y-206879819D02*
X89790704Y-207451247D01*
X155261904Y-210154819D02*
X155261904Y-209154819D01*
X154690476Y-210154819D02*
X155119047Y-209583390D01*
X154690476Y-209154819D02*
X155261904Y-209726247D01*
X244571904Y-150729819D02*
X244571904Y-149729819D01*
X244000476Y-150729819D02*
X244429047Y-150158390D01*
X244000476Y-149729819D02*
X244571904Y-150301247D01*
X96934404Y-169779819D02*
X96934404Y-168779819D01*
X96362976Y-169779819D02*
X96791547Y-169208390D01*
X96362976Y-168779819D02*
X96934404Y-169351247D01*
X139796904Y-131679819D02*
X139796904Y-130679819D01*
X139225476Y-131679819D02*
X139654047Y-131108390D01*
X139225476Y-130679819D02*
X139796904Y-131251247D01*
X185040704Y-207879819D02*
X185040704Y-206879819D01*
X184469276Y-207879819D02*
X184897847Y-207308390D01*
X184469276Y-206879819D02*
X185040704Y-207451247D01*
X215996904Y-131679819D02*
X215996904Y-130679819D01*
X215425476Y-131679819D02*
X215854047Y-131108390D01*
X215425476Y-130679819D02*
X215996904Y-131251247D01*
X113603204Y-207879819D02*
X113603204Y-206879819D01*
X113031776Y-207879819D02*
X113460347Y-207308390D01*
X113031776Y-206879819D02*
X113603204Y-207451247D01*
X313628204Y-188829819D02*
X313628204Y-187829819D01*
X313056776Y-188829819D02*
X313485347Y-188258390D01*
X313056776Y-187829819D02*
X313628204Y-188401247D01*
X327915704Y-207879819D02*
X327915704Y-206879819D01*
X327344276Y-207879819D02*
X327772847Y-207308390D01*
X327344276Y-206879819D02*
X327915704Y-207451247D01*
X254096904Y-131679819D02*
X254096904Y-130679819D01*
X253525476Y-131679819D02*
X253954047Y-131108390D01*
X253525476Y-130679819D02*
X254096904Y-131251247D01*
X304103204Y-207879819D02*
X304103204Y-206879819D01*
X303531776Y-207879819D02*
X303960347Y-207308390D01*
X303531776Y-206879819D02*
X304103204Y-207451247D01*
X192184404Y-169779819D02*
X192184404Y-168779819D01*
X191612976Y-169779819D02*
X192041547Y-169208390D01*
X191612976Y-168779819D02*
X192184404Y-169351247D01*
X258859404Y-188829819D02*
X258859404Y-187829819D01*
X258287976Y-188829819D02*
X258716547Y-188258390D01*
X258287976Y-187829819D02*
X258859404Y-188401247D01*
X325534404Y-150729819D02*
X325534404Y-149729819D01*
X324962976Y-150729819D02*
X325391547Y-150158390D01*
X324962976Y-149729819D02*
X325534404Y-150301247D01*
X226261904Y-210154819D02*
X226261904Y-209154819D01*
X225690476Y-210154819D02*
X226119047Y-209583390D01*
X225690476Y-209154819D02*
X226261904Y-209726247D01*
X154084404Y-169779819D02*
X154084404Y-168779819D01*
X153512976Y-169779819D02*
X153941547Y-169208390D01*
X153512976Y-168779819D02*
X154084404Y-169351247D01*
X268384404Y-169779819D02*
X268384404Y-168779819D01*
X267812976Y-169779819D02*
X268241547Y-169208390D01*
X267812976Y-168779819D02*
X268384404Y-169351247D01*
X130271904Y-150729819D02*
X130271904Y-149729819D01*
X129700476Y-150729819D02*
X130129047Y-150158390D01*
X129700476Y-149729819D02*
X130271904Y-150301247D01*
X163609404Y-188829819D02*
X163609404Y-187829819D01*
X163037976Y-188829819D02*
X163466547Y-188258390D01*
X163037976Y-187829819D02*
X163609404Y-188401247D01*
X256478204Y-207879819D02*
X256478204Y-206879819D01*
X255906776Y-207879819D02*
X256335347Y-207308390D01*
X255906776Y-206879819D02*
X256478204Y-207451247D01*
X318390704Y-169779819D02*
X318390704Y-168779819D01*
X317819276Y-169779819D02*
X318247847Y-169208390D01*
X317819276Y-168779819D02*
X318390704Y-169351247D01*
X200261904Y-210154819D02*
X200261904Y-209154819D01*
X199690476Y-210154819D02*
X200119047Y-209583390D01*
X199690476Y-209154819D02*
X200261904Y-209726247D01*
X65978204Y-207879819D02*
X65978204Y-206879819D01*
X65406776Y-207879819D02*
X65835347Y-207308390D01*
X65406776Y-206879819D02*
X65978204Y-207451247D01*
X196946904Y-131679819D02*
X196946904Y-130679819D01*
X196375476Y-131679819D02*
X196804047Y-131108390D01*
X196375476Y-130679819D02*
X196946904Y-131251247D01*
X120746904Y-131679819D02*
X120746904Y-130679819D01*
X120175476Y-131679819D02*
X120604047Y-131108390D01*
X120175476Y-130679819D02*
X120746904Y-131251247D01*
X225521904Y-150729819D02*
X225521904Y-149729819D01*
X224950476Y-150729819D02*
X225379047Y-150158390D01*
X224950476Y-149729819D02*
X225521904Y-150301247D01*
X273146904Y-131679819D02*
X273146904Y-130679819D01*
X272575476Y-131679819D02*
X273004047Y-131108390D01*
X272575476Y-130679819D02*
X273146904Y-131251247D01*
X211234404Y-169779819D02*
X211234404Y-168779819D01*
X210662976Y-169779819D02*
X211091547Y-169208390D01*
X210662976Y-168779819D02*
X211234404Y-169351247D01*
X249334404Y-169779819D02*
X249334404Y-168779819D01*
X248762976Y-169779819D02*
X249191547Y-169208390D01*
X248762976Y-168779819D02*
X249334404Y-169351247D01*
X206471904Y-150729819D02*
X206471904Y-149729819D01*
X205900476Y-150729819D02*
X206329047Y-150158390D01*
X205900476Y-149729819D02*
X206471904Y-150301247D01*
X182659404Y-188829819D02*
X182659404Y-187829819D01*
X182087976Y-188829819D02*
X182516547Y-188258390D01*
X182087976Y-187829819D02*
X182659404Y-188401247D01*
X125509404Y-188829819D02*
X125509404Y-187829819D01*
X124937976Y-188829819D02*
X125366547Y-188258390D01*
X124937976Y-187829819D02*
X125509404Y-188401247D01*
X239809404Y-188829819D02*
X239809404Y-187829819D01*
X239237976Y-188829819D02*
X239666547Y-188258390D01*
X239237976Y-187829819D02*
X239809404Y-188401247D01*
X287434404Y-169779819D02*
X287434404Y-168779819D01*
X286862976Y-169779819D02*
X287291547Y-169208390D01*
X286862976Y-168779819D02*
X287434404Y-169351247D01*
X282671904Y-150729819D02*
X282671904Y-149729819D01*
X282100476Y-150729819D02*
X282529047Y-150158390D01*
X282100476Y-149729819D02*
X282671904Y-150301247D01*
X230284404Y-169779819D02*
X230284404Y-168779819D01*
X229712976Y-169779819D02*
X230141547Y-169208390D01*
X229712976Y-168779819D02*
X230284404Y-169351247D01*
X235046904Y-131679819D02*
X235046904Y-130679819D01*
X234475476Y-131679819D02*
X234904047Y-131108390D01*
X234475476Y-130679819D02*
X235046904Y-131251247D01*
X144559404Y-188829819D02*
X144559404Y-187829819D01*
X143987976Y-188829819D02*
X144416547Y-188258390D01*
X143987976Y-187829819D02*
X144559404Y-188401247D01*
X75503204Y-188829819D02*
X75503204Y-187829819D01*
X74931776Y-188829819D02*
X75360347Y-188258390D01*
X74931776Y-187829819D02*
X75503204Y-188401247D01*
X106459404Y-188829819D02*
X106459404Y-187829819D01*
X105887976Y-188829819D02*
X106316547Y-188258390D01*
X105887976Y-187829819D02*
X106459404Y-188401247D01*
X173134404Y-169779819D02*
X173134404Y-168779819D01*
X172562976Y-169779819D02*
X172991547Y-169208390D01*
X172562976Y-168779819D02*
X173134404Y-169351247D01*
X220759404Y-188829819D02*
X220759404Y-187829819D01*
X220187976Y-188829819D02*
X220616547Y-188258390D01*
X220187976Y-187829819D02*
X220759404Y-188401247D01*
X201709404Y-188829819D02*
X201709404Y-187829819D01*
X201137976Y-188829819D02*
X201566547Y-188258390D01*
X201137976Y-187829819D02*
X201709404Y-188401247D01*
X213261904Y-210154819D02*
X213261904Y-209154819D01*
X212690476Y-210154819D02*
X213119047Y-209583390D01*
X212690476Y-209154819D02*
X213261904Y-209726247D01*
X168261904Y-210154819D02*
X168261904Y-209154819D01*
X167690476Y-210154819D02*
X168119047Y-209583390D01*
X167690476Y-209154819D02*
X168261904Y-209726247D01*
X168371904Y-150729819D02*
X168371904Y-149729819D01*
X167800476Y-150729819D02*
X168229047Y-150158390D01*
X167800476Y-149729819D02*
X168371904Y-150301247D01*
X135034404Y-169779819D02*
X135034404Y-168779819D01*
X134462976Y-169779819D02*
X134891547Y-169208390D01*
X134462976Y-168779819D02*
X135034404Y-169351247D01*
X70740704Y-169779819D02*
X70740704Y-168779819D01*
X70169276Y-169779819D02*
X70597847Y-169208390D01*
X70169276Y-168779819D02*
X70740704Y-169351247D01*
X263621904Y-150729819D02*
X263621904Y-149729819D01*
X263050476Y-150729819D02*
X263479047Y-150158390D01*
X263050476Y-149729819D02*
X263621904Y-150301247D01*
X149321904Y-150729819D02*
X149321904Y-149729819D01*
X148750476Y-150729819D02*
X149179047Y-150158390D01*
X148750476Y-149729819D02*
X149321904Y-150301247D01*
X142261904Y-210154819D02*
X142261904Y-209154819D01*
X141690476Y-210154819D02*
X142119047Y-209583390D01*
X141690476Y-209154819D02*
X142261904Y-209726247D01*
X187421904Y-150729819D02*
X187421904Y-149729819D01*
X186850476Y-150729819D02*
X187279047Y-150158390D01*
X186850476Y-149729819D02*
X187421904Y-150301247D01*
X320771904Y-131679819D02*
X320771904Y-130679819D01*
X320200476Y-131679819D02*
X320629047Y-131108390D01*
X320200476Y-130679819D02*
X320771904Y-131251247D01*
X301721904Y-150729819D02*
X301721904Y-149729819D01*
X301150476Y-150729819D02*
X301579047Y-150158390D01*
X301150476Y-149729819D02*
X301721904Y-150301247D01*
X280290704Y-207879819D02*
X280290704Y-206879819D01*
X279719276Y-207879819D02*
X280147847Y-207308390D01*
X279719276Y-206879819D02*
X280290704Y-207451247D01*
X177896904Y-131679819D02*
X177896904Y-130679819D01*
X177325476Y-131679819D02*
X177754047Y-131108390D01*
X177325476Y-130679819D02*
X177896904Y-131251247D01*
X115984404Y-169779819D02*
X115984404Y-168779819D01*
X115412976Y-169779819D02*
X115841547Y-169208390D01*
X115412976Y-168779819D02*
X115984404Y-169351247D01*
X277909404Y-188829819D02*
X277909404Y-187829819D01*
X277337976Y-188829819D02*
X277766547Y-188258390D01*
X277337976Y-187829819D02*
X277909404Y-188401247D01*
%TO.C,D6*%
D10*
X152005000Y-133025000D02*
X152655000Y-133025000D01*
X156055000Y-131905000D02*
X156055000Y-134145000D01*
X156175000Y-131905000D02*
X156175000Y-134145000D01*
X156295000Y-131905000D02*
X156295000Y-134145000D01*
X157545000Y-133025000D02*
X156895000Y-133025000D01*
X152655000Y-131905000D02*
X156895000Y-131905000D01*
X156895000Y-134145000D01*
X152655000Y-134145000D01*
X152655000Y-131905000D01*
%TO.C,D13*%
X285355000Y-133025000D02*
X286005000Y-133025000D01*
X289405000Y-131905000D02*
X289405000Y-134145000D01*
X289525000Y-131905000D02*
X289525000Y-134145000D01*
X289645000Y-131905000D02*
X289645000Y-134145000D01*
X290895000Y-133025000D02*
X290245000Y-133025000D01*
X286005000Y-131905000D02*
X290245000Y-131905000D01*
X290245000Y-134145000D01*
X286005000Y-134145000D01*
X286005000Y-131905000D01*
%TO.C,D55*%
X82948800Y-209225000D02*
X83598800Y-209225000D01*
X86998800Y-208105000D02*
X86998800Y-210345000D01*
X87118800Y-208105000D02*
X87118800Y-210345000D01*
X87238800Y-208105000D02*
X87238800Y-210345000D01*
X88488800Y-209225000D02*
X87838800Y-209225000D01*
X83598800Y-208105000D02*
X87838800Y-208105000D01*
X87838800Y-210345000D01*
X83598800Y-210345000D01*
X83598800Y-208105000D01*
%TO.C,D2*%
X148420000Y-211500000D02*
X149070000Y-211500000D01*
X152470000Y-210380000D02*
X152470000Y-212620000D01*
X152590000Y-210380000D02*
X152590000Y-212620000D01*
X152710000Y-210380000D02*
X152710000Y-212620000D01*
X153960000Y-211500000D02*
X153310000Y-211500000D01*
X149070000Y-210380000D02*
X153310000Y-210380000D01*
X153310000Y-212620000D01*
X149070000Y-212620000D01*
X149070000Y-210380000D01*
%TO.C,D24*%
X237730000Y-152075000D02*
X238380000Y-152075000D01*
X241780000Y-150955000D02*
X241780000Y-153195000D01*
X241900000Y-150955000D02*
X241900000Y-153195000D01*
X242020000Y-150955000D02*
X242020000Y-153195000D01*
X243270000Y-152075000D02*
X242620000Y-152075000D01*
X238380000Y-150955000D02*
X242620000Y-150955000D01*
X242620000Y-153195000D01*
X238380000Y-153195000D01*
X238380000Y-150955000D01*
%TO.C,D30*%
X90092500Y-171125000D02*
X90742500Y-171125000D01*
X94142500Y-170005000D02*
X94142500Y-172245000D01*
X94262500Y-170005000D02*
X94262500Y-172245000D01*
X94382500Y-170005000D02*
X94382500Y-172245000D01*
X95632500Y-171125000D02*
X94982500Y-171125000D01*
X90742500Y-170005000D02*
X94982500Y-170005000D01*
X94982500Y-172245000D01*
X90742500Y-172245000D01*
X90742500Y-170005000D01*
%TO.C,D5*%
X132955000Y-133025000D02*
X133605000Y-133025000D01*
X137005000Y-131905000D02*
X137005000Y-134145000D01*
X137125000Y-131905000D02*
X137125000Y-134145000D01*
X137245000Y-131905000D02*
X137245000Y-134145000D01*
X138495000Y-133025000D02*
X137845000Y-133025000D01*
X133605000Y-131905000D02*
X137845000Y-131905000D01*
X137845000Y-134145000D01*
X133605000Y-134145000D01*
X133605000Y-131905000D01*
%TO.C,D57*%
X178198800Y-209225000D02*
X178848800Y-209225000D01*
X182248800Y-208105000D02*
X182248800Y-210345000D01*
X182368800Y-208105000D02*
X182368800Y-210345000D01*
X182488800Y-208105000D02*
X182488800Y-210345000D01*
X183738800Y-209225000D02*
X183088800Y-209225000D01*
X178848800Y-208105000D02*
X183088800Y-208105000D01*
X183088800Y-210345000D01*
X178848800Y-210345000D01*
X178848800Y-208105000D01*
%TO.C,D9*%
X209155000Y-133025000D02*
X209805000Y-133025000D01*
X213205000Y-131905000D02*
X213205000Y-134145000D01*
X213325000Y-131905000D02*
X213325000Y-134145000D01*
X213445000Y-131905000D02*
X213445000Y-134145000D01*
X214695000Y-133025000D02*
X214045000Y-133025000D01*
X209805000Y-131905000D02*
X214045000Y-131905000D01*
X214045000Y-134145000D01*
X209805000Y-134145000D01*
X209805000Y-131905000D01*
%TO.C,D56*%
X106761300Y-209225000D02*
X107411300Y-209225000D01*
X110811300Y-208105000D02*
X110811300Y-210345000D01*
X110931300Y-208105000D02*
X110931300Y-210345000D01*
X111051300Y-208105000D02*
X111051300Y-210345000D01*
X112301300Y-209225000D02*
X111651300Y-209225000D01*
X107411300Y-208105000D02*
X111651300Y-208105000D01*
X111651300Y-210345000D01*
X107411300Y-210345000D01*
X107411300Y-208105000D01*
%TO.C,D53*%
X306786300Y-190175000D02*
X307436300Y-190175000D01*
X310836300Y-189055000D02*
X310836300Y-191295000D01*
X310956300Y-189055000D02*
X310956300Y-191295000D01*
X311076300Y-189055000D02*
X311076300Y-191295000D01*
X312326300Y-190175000D02*
X311676300Y-190175000D01*
X307436300Y-189055000D02*
X311676300Y-189055000D01*
X311676300Y-191295000D01*
X307436300Y-191295000D01*
X307436300Y-189055000D01*
%TO.C,D61*%
X321073800Y-209225000D02*
X321723800Y-209225000D01*
X325123800Y-208105000D02*
X325123800Y-210345000D01*
X325243800Y-208105000D02*
X325243800Y-210345000D01*
X325363800Y-208105000D02*
X325363800Y-210345000D01*
X326613800Y-209225000D02*
X325963800Y-209225000D01*
X321723800Y-208105000D02*
X325963800Y-208105000D01*
X325963800Y-210345000D01*
X321723800Y-210345000D01*
X321723800Y-208105000D01*
%TO.C,D11*%
X247255000Y-133025000D02*
X247905000Y-133025000D01*
X251305000Y-131905000D02*
X251305000Y-134145000D01*
X251425000Y-131905000D02*
X251425000Y-134145000D01*
X251545000Y-131905000D02*
X251545000Y-134145000D01*
X252795000Y-133025000D02*
X252145000Y-133025000D01*
X247905000Y-131905000D02*
X252145000Y-131905000D01*
X252145000Y-134145000D01*
X247905000Y-134145000D01*
X247905000Y-131905000D01*
%TO.C,D60*%
X297261300Y-209225000D02*
X297911300Y-209225000D01*
X301311300Y-208105000D02*
X301311300Y-210345000D01*
X301431300Y-208105000D02*
X301431300Y-210345000D01*
X301551300Y-208105000D02*
X301551300Y-210345000D01*
X302801300Y-209225000D02*
X302151300Y-209225000D01*
X297911300Y-208105000D02*
X302151300Y-208105000D01*
X302151300Y-210345000D01*
X297911300Y-210345000D01*
X297911300Y-208105000D01*
%TO.C,D35*%
X185342500Y-171125000D02*
X185992500Y-171125000D01*
X189392500Y-170005000D02*
X189392500Y-172245000D01*
X189512500Y-170005000D02*
X189512500Y-172245000D01*
X189632500Y-170005000D02*
X189632500Y-172245000D01*
X190882500Y-171125000D02*
X190232500Y-171125000D01*
X185992500Y-170005000D02*
X190232500Y-170005000D01*
X190232500Y-172245000D01*
X185992500Y-172245000D01*
X185992500Y-170005000D01*
%TO.C,D51*%
X252017500Y-190175000D02*
X252667500Y-190175000D01*
X256067500Y-189055000D02*
X256067500Y-191295000D01*
X256187500Y-189055000D02*
X256187500Y-191295000D01*
X256307500Y-189055000D02*
X256307500Y-191295000D01*
X257557500Y-190175000D02*
X256907500Y-190175000D01*
X252667500Y-189055000D02*
X256907500Y-189055000D01*
X256907500Y-191295000D01*
X252667500Y-191295000D01*
X252667500Y-189055000D01*
%TO.C,D28*%
X318692500Y-152075000D02*
X319342500Y-152075000D01*
X322742500Y-150955000D02*
X322742500Y-153195000D01*
X322862500Y-150955000D02*
X322862500Y-153195000D01*
X322982500Y-150955000D02*
X322982500Y-153195000D01*
X324232500Y-152075000D02*
X323582500Y-152075000D01*
X319342500Y-150955000D02*
X323582500Y-150955000D01*
X323582500Y-153195000D01*
X319342500Y-153195000D01*
X319342500Y-150955000D01*
%TO.C,D17*%
X219420000Y-211500000D02*
X220070000Y-211500000D01*
X223470000Y-210380000D02*
X223470000Y-212620000D01*
X223590000Y-210380000D02*
X223590000Y-212620000D01*
X223710000Y-210380000D02*
X223710000Y-212620000D01*
X224960000Y-211500000D02*
X224310000Y-211500000D01*
X220070000Y-210380000D02*
X224310000Y-210380000D01*
X224310000Y-212620000D01*
X220070000Y-212620000D01*
X220070000Y-210380000D01*
%TO.C,D33*%
X147242500Y-171125000D02*
X147892500Y-171125000D01*
X151292500Y-170005000D02*
X151292500Y-172245000D01*
X151412500Y-170005000D02*
X151412500Y-172245000D01*
X151532500Y-170005000D02*
X151532500Y-172245000D01*
X152782500Y-171125000D02*
X152132500Y-171125000D01*
X147892500Y-170005000D02*
X152132500Y-170005000D01*
X152132500Y-172245000D01*
X147892500Y-172245000D01*
X147892500Y-170005000D01*
%TO.C,D39*%
X261542500Y-171125000D02*
X262192500Y-171125000D01*
X265592500Y-170005000D02*
X265592500Y-172245000D01*
X265712500Y-170005000D02*
X265712500Y-172245000D01*
X265832500Y-170005000D02*
X265832500Y-172245000D01*
X267082500Y-171125000D02*
X266432500Y-171125000D01*
X262192500Y-170005000D02*
X266432500Y-170005000D01*
X266432500Y-172245000D01*
X262192500Y-172245000D01*
X262192500Y-170005000D01*
%TO.C,D18*%
X123430000Y-152075000D02*
X124080000Y-152075000D01*
X127480000Y-150955000D02*
X127480000Y-153195000D01*
X127600000Y-150955000D02*
X127600000Y-153195000D01*
X127720000Y-150955000D02*
X127720000Y-153195000D01*
X128970000Y-152075000D02*
X128320000Y-152075000D01*
X124080000Y-150955000D02*
X128320000Y-150955000D01*
X128320000Y-153195000D01*
X124080000Y-153195000D01*
X124080000Y-150955000D01*
%TO.C,D46*%
X156767500Y-190175000D02*
X157417500Y-190175000D01*
X160817500Y-189055000D02*
X160817500Y-191295000D01*
X160937500Y-189055000D02*
X160937500Y-191295000D01*
X161057500Y-189055000D02*
X161057500Y-191295000D01*
X162307500Y-190175000D02*
X161657500Y-190175000D01*
X157417500Y-189055000D02*
X161657500Y-189055000D01*
X161657500Y-191295000D01*
X157417500Y-191295000D01*
X157417500Y-189055000D01*
%TO.C,D58*%
X249636300Y-209225000D02*
X250286300Y-209225000D01*
X253686300Y-208105000D02*
X253686300Y-210345000D01*
X253806300Y-208105000D02*
X253806300Y-210345000D01*
X253926300Y-208105000D02*
X253926300Y-210345000D01*
X255176300Y-209225000D02*
X254526300Y-209225000D01*
X250286300Y-208105000D02*
X254526300Y-208105000D01*
X254526300Y-210345000D01*
X250286300Y-210345000D01*
X250286300Y-208105000D01*
%TO.C,D41*%
X311548800Y-171125000D02*
X312198800Y-171125000D01*
X315598800Y-170005000D02*
X315598800Y-172245000D01*
X315718800Y-170005000D02*
X315718800Y-172245000D01*
X315838800Y-170005000D02*
X315838800Y-172245000D01*
X317088800Y-171125000D02*
X316438800Y-171125000D01*
X312198800Y-170005000D02*
X316438800Y-170005000D01*
X316438800Y-172245000D01*
X312198800Y-172245000D01*
X312198800Y-170005000D01*
%TO.C,D15*%
X193420000Y-211500000D02*
X194070000Y-211500000D01*
X197470000Y-210380000D02*
X197470000Y-212620000D01*
X197590000Y-210380000D02*
X197590000Y-212620000D01*
X197710000Y-210380000D02*
X197710000Y-212620000D01*
X198960000Y-211500000D02*
X198310000Y-211500000D01*
X194070000Y-210380000D02*
X198310000Y-210380000D01*
X198310000Y-212620000D01*
X194070000Y-212620000D01*
X194070000Y-210380000D01*
%TO.C,D54*%
X59136300Y-209225000D02*
X59786300Y-209225000D01*
X63186300Y-208105000D02*
X63186300Y-210345000D01*
X63306300Y-208105000D02*
X63306300Y-210345000D01*
X63426300Y-208105000D02*
X63426300Y-210345000D01*
X64676300Y-209225000D02*
X64026300Y-209225000D01*
X59786300Y-208105000D02*
X64026300Y-208105000D01*
X64026300Y-210345000D01*
X59786300Y-210345000D01*
X59786300Y-208105000D01*
%TO.C,D8*%
X190105000Y-133025000D02*
X190755000Y-133025000D01*
X194155000Y-131905000D02*
X194155000Y-134145000D01*
X194275000Y-131905000D02*
X194275000Y-134145000D01*
X194395000Y-131905000D02*
X194395000Y-134145000D01*
X195645000Y-133025000D02*
X194995000Y-133025000D01*
X190755000Y-131905000D02*
X194995000Y-131905000D01*
X194995000Y-134145000D01*
X190755000Y-134145000D01*
X190755000Y-131905000D01*
%TO.C,D4*%
X113905000Y-133025000D02*
X114555000Y-133025000D01*
X117955000Y-131905000D02*
X117955000Y-134145000D01*
X118075000Y-131905000D02*
X118075000Y-134145000D01*
X118195000Y-131905000D02*
X118195000Y-134145000D01*
X119445000Y-133025000D02*
X118795000Y-133025000D01*
X114555000Y-131905000D02*
X118795000Y-131905000D01*
X118795000Y-134145000D01*
X114555000Y-134145000D01*
X114555000Y-131905000D01*
%TO.C,D23*%
X218680000Y-152075000D02*
X219330000Y-152075000D01*
X222730000Y-150955000D02*
X222730000Y-153195000D01*
X222850000Y-150955000D02*
X222850000Y-153195000D01*
X222970000Y-150955000D02*
X222970000Y-153195000D01*
X224220000Y-152075000D02*
X223570000Y-152075000D01*
X219330000Y-150955000D02*
X223570000Y-150955000D01*
X223570000Y-153195000D01*
X219330000Y-153195000D01*
X219330000Y-150955000D01*
%TO.C,D12*%
X266305000Y-133025000D02*
X266955000Y-133025000D01*
X270355000Y-131905000D02*
X270355000Y-134145000D01*
X270475000Y-131905000D02*
X270475000Y-134145000D01*
X270595000Y-131905000D02*
X270595000Y-134145000D01*
X271845000Y-133025000D02*
X271195000Y-133025000D01*
X266955000Y-131905000D02*
X271195000Y-131905000D01*
X271195000Y-134145000D01*
X266955000Y-134145000D01*
X266955000Y-131905000D01*
%TO.C,D36*%
X204392500Y-171125000D02*
X205042500Y-171125000D01*
X208442500Y-170005000D02*
X208442500Y-172245000D01*
X208562500Y-170005000D02*
X208562500Y-172245000D01*
X208682500Y-170005000D02*
X208682500Y-172245000D01*
X209932500Y-171125000D02*
X209282500Y-171125000D01*
X205042500Y-170005000D02*
X209282500Y-170005000D01*
X209282500Y-172245000D01*
X205042500Y-172245000D01*
X205042500Y-170005000D01*
%TO.C,D38*%
X242492500Y-171125000D02*
X243142500Y-171125000D01*
X246542500Y-170005000D02*
X246542500Y-172245000D01*
X246662500Y-170005000D02*
X246662500Y-172245000D01*
X246782500Y-170005000D02*
X246782500Y-172245000D01*
X248032500Y-171125000D02*
X247382500Y-171125000D01*
X243142500Y-170005000D02*
X247382500Y-170005000D01*
X247382500Y-172245000D01*
X243142500Y-172245000D01*
X243142500Y-170005000D01*
%TO.C,D22*%
X199630000Y-152075000D02*
X200280000Y-152075000D01*
X203680000Y-150955000D02*
X203680000Y-153195000D01*
X203800000Y-150955000D02*
X203800000Y-153195000D01*
X203920000Y-150955000D02*
X203920000Y-153195000D01*
X205170000Y-152075000D02*
X204520000Y-152075000D01*
X200280000Y-150955000D02*
X204520000Y-150955000D01*
X204520000Y-153195000D01*
X200280000Y-153195000D01*
X200280000Y-150955000D01*
%TO.C,D47*%
X175817500Y-190175000D02*
X176467500Y-190175000D01*
X179867500Y-189055000D02*
X179867500Y-191295000D01*
X179987500Y-189055000D02*
X179987500Y-191295000D01*
X180107500Y-189055000D02*
X180107500Y-191295000D01*
X181357500Y-190175000D02*
X180707500Y-190175000D01*
X176467500Y-189055000D02*
X180707500Y-189055000D01*
X180707500Y-191295000D01*
X176467500Y-191295000D01*
X176467500Y-189055000D01*
%TO.C,D44*%
X118667500Y-190175000D02*
X119317500Y-190175000D01*
X122717500Y-189055000D02*
X122717500Y-191295000D01*
X122837500Y-189055000D02*
X122837500Y-191295000D01*
X122957500Y-189055000D02*
X122957500Y-191295000D01*
X124207500Y-190175000D02*
X123557500Y-190175000D01*
X119317500Y-189055000D02*
X123557500Y-189055000D01*
X123557500Y-191295000D01*
X119317500Y-191295000D01*
X119317500Y-189055000D01*
%TO.C,D50*%
X232967500Y-190175000D02*
X233617500Y-190175000D01*
X237017500Y-189055000D02*
X237017500Y-191295000D01*
X237137500Y-189055000D02*
X237137500Y-191295000D01*
X237257500Y-189055000D02*
X237257500Y-191295000D01*
X238507500Y-190175000D02*
X237857500Y-190175000D01*
X233617500Y-189055000D02*
X237857500Y-189055000D01*
X237857500Y-191295000D01*
X233617500Y-191295000D01*
X233617500Y-189055000D01*
%TO.C,D40*%
X280592500Y-171125000D02*
X281242500Y-171125000D01*
X284642500Y-170005000D02*
X284642500Y-172245000D01*
X284762500Y-170005000D02*
X284762500Y-172245000D01*
X284882500Y-170005000D02*
X284882500Y-172245000D01*
X286132500Y-171125000D02*
X285482500Y-171125000D01*
X281242500Y-170005000D02*
X285482500Y-170005000D01*
X285482500Y-172245000D01*
X281242500Y-172245000D01*
X281242500Y-170005000D01*
%TO.C,D26*%
X275830000Y-152075000D02*
X276480000Y-152075000D01*
X279880000Y-150955000D02*
X279880000Y-153195000D01*
X280000000Y-150955000D02*
X280000000Y-153195000D01*
X280120000Y-150955000D02*
X280120000Y-153195000D01*
X281370000Y-152075000D02*
X280720000Y-152075000D01*
X276480000Y-150955000D02*
X280720000Y-150955000D01*
X280720000Y-153195000D01*
X276480000Y-153195000D01*
X276480000Y-150955000D01*
%TO.C,D37*%
X223442500Y-171125000D02*
X224092500Y-171125000D01*
X227492500Y-170005000D02*
X227492500Y-172245000D01*
X227612500Y-170005000D02*
X227612500Y-172245000D01*
X227732500Y-170005000D02*
X227732500Y-172245000D01*
X228982500Y-171125000D02*
X228332500Y-171125000D01*
X224092500Y-170005000D02*
X228332500Y-170005000D01*
X228332500Y-172245000D01*
X224092500Y-172245000D01*
X224092500Y-170005000D01*
%TO.C,D10*%
X228205000Y-133025000D02*
X228855000Y-133025000D01*
X232255000Y-131905000D02*
X232255000Y-134145000D01*
X232375000Y-131905000D02*
X232375000Y-134145000D01*
X232495000Y-131905000D02*
X232495000Y-134145000D01*
X233745000Y-133025000D02*
X233095000Y-133025000D01*
X228855000Y-131905000D02*
X233095000Y-131905000D01*
X233095000Y-134145000D01*
X228855000Y-134145000D01*
X228855000Y-131905000D01*
%TO.C,D45*%
X137717500Y-190175000D02*
X138367500Y-190175000D01*
X141767500Y-189055000D02*
X141767500Y-191295000D01*
X141887500Y-189055000D02*
X141887500Y-191295000D01*
X142007500Y-189055000D02*
X142007500Y-191295000D01*
X143257500Y-190175000D02*
X142607500Y-190175000D01*
X138367500Y-189055000D02*
X142607500Y-189055000D01*
X142607500Y-191295000D01*
X138367500Y-191295000D01*
X138367500Y-189055000D01*
%TO.C,D42*%
X68661300Y-190175000D02*
X69311300Y-190175000D01*
X72711300Y-189055000D02*
X72711300Y-191295000D01*
X72831300Y-189055000D02*
X72831300Y-191295000D01*
X72951300Y-189055000D02*
X72951300Y-191295000D01*
X74201300Y-190175000D02*
X73551300Y-190175000D01*
X69311300Y-189055000D02*
X73551300Y-189055000D01*
X73551300Y-191295000D01*
X69311300Y-191295000D01*
X69311300Y-189055000D01*
%TO.C,D43*%
X99617500Y-190175000D02*
X100267500Y-190175000D01*
X103667500Y-189055000D02*
X103667500Y-191295000D01*
X103787500Y-189055000D02*
X103787500Y-191295000D01*
X103907500Y-189055000D02*
X103907500Y-191295000D01*
X105157500Y-190175000D02*
X104507500Y-190175000D01*
X100267500Y-189055000D02*
X104507500Y-189055000D01*
X104507500Y-191295000D01*
X100267500Y-191295000D01*
X100267500Y-189055000D01*
%TO.C,D34*%
X166292500Y-171125000D02*
X166942500Y-171125000D01*
X170342500Y-170005000D02*
X170342500Y-172245000D01*
X170462500Y-170005000D02*
X170462500Y-172245000D01*
X170582500Y-170005000D02*
X170582500Y-172245000D01*
X171832500Y-171125000D02*
X171182500Y-171125000D01*
X166942500Y-170005000D02*
X171182500Y-170005000D01*
X171182500Y-172245000D01*
X166942500Y-172245000D01*
X166942500Y-170005000D01*
%TO.C,D49*%
X213917500Y-190175000D02*
X214567500Y-190175000D01*
X217967500Y-189055000D02*
X217967500Y-191295000D01*
X218087500Y-189055000D02*
X218087500Y-191295000D01*
X218207500Y-189055000D02*
X218207500Y-191295000D01*
X219457500Y-190175000D02*
X218807500Y-190175000D01*
X214567500Y-189055000D02*
X218807500Y-189055000D01*
X218807500Y-191295000D01*
X214567500Y-191295000D01*
X214567500Y-189055000D01*
%TO.C,D48*%
X194867500Y-190175000D02*
X195517500Y-190175000D01*
X198917500Y-189055000D02*
X198917500Y-191295000D01*
X199037500Y-189055000D02*
X199037500Y-191295000D01*
X199157500Y-189055000D02*
X199157500Y-191295000D01*
X200407500Y-190175000D02*
X199757500Y-190175000D01*
X195517500Y-189055000D02*
X199757500Y-189055000D01*
X199757500Y-191295000D01*
X195517500Y-191295000D01*
X195517500Y-189055000D01*
%TO.C,D16*%
X206420000Y-211500000D02*
X207070000Y-211500000D01*
X210470000Y-210380000D02*
X210470000Y-212620000D01*
X210590000Y-210380000D02*
X210590000Y-212620000D01*
X210710000Y-210380000D02*
X210710000Y-212620000D01*
X211960000Y-211500000D02*
X211310000Y-211500000D01*
X207070000Y-210380000D02*
X211310000Y-210380000D01*
X211310000Y-212620000D01*
X207070000Y-212620000D01*
X207070000Y-210380000D01*
%TO.C,D3*%
X161420000Y-211500000D02*
X162070000Y-211500000D01*
X165470000Y-210380000D02*
X165470000Y-212620000D01*
X165590000Y-210380000D02*
X165590000Y-212620000D01*
X165710000Y-210380000D02*
X165710000Y-212620000D01*
X166960000Y-211500000D02*
X166310000Y-211500000D01*
X162070000Y-210380000D02*
X166310000Y-210380000D01*
X166310000Y-212620000D01*
X162070000Y-212620000D01*
X162070000Y-210380000D01*
%TO.C,SW62*%
X328250000Y-183000000D02*
X328250000Y-181500000D01*
X329500000Y-179000000D02*
X334000000Y-179000000D01*
X334000000Y-185500000D02*
X329500000Y-185500000D01*
X335250000Y-181500000D02*
X335250000Y-183000000D01*
%TO.C,D20*%
X161530000Y-152075000D02*
X162180000Y-152075000D01*
X165580000Y-150955000D02*
X165580000Y-153195000D01*
X165700000Y-150955000D02*
X165700000Y-153195000D01*
X165820000Y-150955000D02*
X165820000Y-153195000D01*
X167070000Y-152075000D02*
X166420000Y-152075000D01*
X162180000Y-150955000D02*
X166420000Y-150955000D01*
X166420000Y-153195000D01*
X162180000Y-153195000D01*
X162180000Y-150955000D01*
%TO.C,D32*%
X128192500Y-171125000D02*
X128842500Y-171125000D01*
X132242500Y-170005000D02*
X132242500Y-172245000D01*
X132362500Y-170005000D02*
X132362500Y-172245000D01*
X132482500Y-170005000D02*
X132482500Y-172245000D01*
X133732500Y-171125000D02*
X133082500Y-171125000D01*
X128842500Y-170005000D02*
X133082500Y-170005000D01*
X133082500Y-172245000D01*
X128842500Y-172245000D01*
X128842500Y-170005000D01*
%TO.C,D29*%
X63898800Y-171125000D02*
X64548800Y-171125000D01*
X67948800Y-170005000D02*
X67948800Y-172245000D01*
X68068800Y-170005000D02*
X68068800Y-172245000D01*
X68188800Y-170005000D02*
X68188800Y-172245000D01*
X69438800Y-171125000D02*
X68788800Y-171125000D01*
X64548800Y-170005000D02*
X68788800Y-170005000D01*
X68788800Y-172245000D01*
X64548800Y-172245000D01*
X64548800Y-170005000D01*
%TO.C,D25*%
X256780000Y-152075000D02*
X257430000Y-152075000D01*
X260830000Y-150955000D02*
X260830000Y-153195000D01*
X260950000Y-150955000D02*
X260950000Y-153195000D01*
X261070000Y-150955000D02*
X261070000Y-153195000D01*
X262320000Y-152075000D02*
X261670000Y-152075000D01*
X257430000Y-150955000D02*
X261670000Y-150955000D01*
X261670000Y-153195000D01*
X257430000Y-153195000D01*
X257430000Y-150955000D01*
%TO.C,D19*%
X142480000Y-152075000D02*
X143130000Y-152075000D01*
X146530000Y-150955000D02*
X146530000Y-153195000D01*
X146650000Y-150955000D02*
X146650000Y-153195000D01*
X146770000Y-150955000D02*
X146770000Y-153195000D01*
X148020000Y-152075000D02*
X147370000Y-152075000D01*
X143130000Y-150955000D02*
X147370000Y-150955000D01*
X147370000Y-153195000D01*
X143130000Y-153195000D01*
X143130000Y-150955000D01*
%TO.C,D1*%
X135420000Y-211500000D02*
X136070000Y-211500000D01*
X139470000Y-210380000D02*
X139470000Y-212620000D01*
X139590000Y-210380000D02*
X139590000Y-212620000D01*
X139710000Y-210380000D02*
X139710000Y-212620000D01*
X140960000Y-211500000D02*
X140310000Y-211500000D01*
X136070000Y-210380000D02*
X140310000Y-210380000D01*
X140310000Y-212620000D01*
X136070000Y-212620000D01*
X136070000Y-210380000D01*
%TO.C,D21*%
X180580000Y-152075000D02*
X181230000Y-152075000D01*
X184630000Y-150955000D02*
X184630000Y-153195000D01*
X184750000Y-150955000D02*
X184750000Y-153195000D01*
X184870000Y-150955000D02*
X184870000Y-153195000D01*
X186120000Y-152075000D02*
X185470000Y-152075000D01*
X181230000Y-150955000D02*
X185470000Y-150955000D01*
X185470000Y-153195000D01*
X181230000Y-153195000D01*
X181230000Y-150955000D01*
%TO.C,D14*%
X313930000Y-133025000D02*
X314580000Y-133025000D01*
X317980000Y-131905000D02*
X317980000Y-134145000D01*
X318100000Y-131905000D02*
X318100000Y-134145000D01*
X318220000Y-131905000D02*
X318220000Y-134145000D01*
X319470000Y-133025000D02*
X318820000Y-133025000D01*
X314580000Y-131905000D02*
X318820000Y-131905000D01*
X318820000Y-134145000D01*
X314580000Y-134145000D01*
X314580000Y-131905000D01*
%TO.C,D27*%
X294880000Y-152075000D02*
X295530000Y-152075000D01*
X298930000Y-150955000D02*
X298930000Y-153195000D01*
X299050000Y-150955000D02*
X299050000Y-153195000D01*
X299170000Y-150955000D02*
X299170000Y-153195000D01*
X300420000Y-152075000D02*
X299770000Y-152075000D01*
X295530000Y-150955000D02*
X299770000Y-150955000D01*
X299770000Y-153195000D01*
X295530000Y-153195000D01*
X295530000Y-150955000D01*
%TO.C,D59*%
X273448800Y-209225000D02*
X274098800Y-209225000D01*
X277498800Y-208105000D02*
X277498800Y-210345000D01*
X277618800Y-208105000D02*
X277618800Y-210345000D01*
X277738800Y-208105000D02*
X277738800Y-210345000D01*
X278988800Y-209225000D02*
X278338800Y-209225000D01*
X274098800Y-208105000D02*
X278338800Y-208105000D01*
X278338800Y-210345000D01*
X274098800Y-210345000D01*
X274098800Y-208105000D01*
%TO.C,D7*%
X171055000Y-133025000D02*
X171705000Y-133025000D01*
X175105000Y-131905000D02*
X175105000Y-134145000D01*
X175225000Y-131905000D02*
X175225000Y-134145000D01*
X175345000Y-131905000D02*
X175345000Y-134145000D01*
X176595000Y-133025000D02*
X175945000Y-133025000D01*
X171705000Y-131905000D02*
X175945000Y-131905000D01*
X175945000Y-134145000D01*
X171705000Y-134145000D01*
X171705000Y-131905000D01*
%TO.C,D31*%
X109142500Y-171125000D02*
X109792500Y-171125000D01*
X113192500Y-170005000D02*
X113192500Y-172245000D01*
X113312500Y-170005000D02*
X113312500Y-172245000D01*
X113432500Y-170005000D02*
X113432500Y-172245000D01*
X114682500Y-171125000D02*
X114032500Y-171125000D01*
X109792500Y-170005000D02*
X114032500Y-170005000D01*
X114032500Y-172245000D01*
X109792500Y-172245000D01*
X109792500Y-170005000D01*
%TO.C,D52*%
X271067500Y-190175000D02*
X271717500Y-190175000D01*
X275117500Y-189055000D02*
X275117500Y-191295000D01*
X275237500Y-189055000D02*
X275237500Y-191295000D01*
X275357500Y-189055000D02*
X275357500Y-191295000D01*
X276607500Y-190175000D02*
X275957500Y-190175000D01*
X271717500Y-189055000D02*
X275957500Y-189055000D01*
X275957500Y-191295000D01*
X271717500Y-191295000D01*
X271717500Y-189055000D01*
%TD*%
%LPC*%
D12*
%TO.C,H4*%
X336000000Y-209000000D03*
%TD*%
D13*
%TO.C,SW39*%
X259232500Y-162625000D03*
D14*
X264312500Y-162625000D03*
D13*
X269392500Y-162625000D03*
D15*
X266852500Y-157545000D03*
X260502500Y-160085000D03*
%TD*%
D13*
%TO.C,SW60*%
X294951300Y-200725000D03*
D14*
X300031300Y-200725000D03*
D13*
X305111300Y-200725000D03*
D15*
X302571300Y-195645000D03*
X296221300Y-198185000D03*
%TD*%
D13*
%TO.C,SW3*%
X92545000Y-124525000D03*
D14*
X97625000Y-124525000D03*
D13*
X102705000Y-124525000D03*
D15*
X100165000Y-119445000D03*
X93815000Y-121985000D03*
%TD*%
D13*
%TO.C,SW28*%
X316382500Y-143575000D03*
D14*
X321462500Y-143575000D03*
D13*
X326542500Y-143575000D03*
D15*
X324002500Y-138495000D03*
X317652500Y-141035000D03*
%TD*%
D13*
%TO.C,SW1*%
X54445000Y-124525000D03*
D14*
X59525000Y-124525000D03*
D13*
X64605000Y-124525000D03*
D15*
X62065000Y-119445000D03*
X55715000Y-121985000D03*
%TD*%
D13*
%TO.C,SW29*%
X61588800Y-162625000D03*
D14*
X66668800Y-162625000D03*
D13*
X71748800Y-162625000D03*
D15*
X69208800Y-157545000D03*
X62858800Y-160085000D03*
%TD*%
D13*
%TO.C,SW6*%
X149695000Y-124525000D03*
D14*
X154775000Y-124525000D03*
D13*
X159855000Y-124525000D03*
D15*
X157315000Y-119445000D03*
X150965000Y-121985000D03*
%TD*%
D13*
%TO.C,SW33*%
X144932500Y-162625000D03*
D14*
X150012500Y-162625000D03*
D13*
X155092500Y-162625000D03*
D15*
X152552500Y-157545000D03*
X146202500Y-160085000D03*
%TD*%
D16*
%TO.C,SW41*%
X302418800Y-155625000D03*
D14*
X302418800Y-170865000D03*
D13*
X309238800Y-162625000D03*
D14*
X314318800Y-162625000D03*
D13*
X319398800Y-162625000D03*
D16*
X326218800Y-155625000D03*
D14*
X326218800Y-170865000D03*
D15*
X316858800Y-157545000D03*
X310508800Y-160085000D03*
%TD*%
D16*
%TO.C,SW42*%
X59531300Y-174675000D03*
D14*
X59531300Y-189915000D03*
D13*
X66351300Y-181675000D03*
D14*
X71431300Y-181675000D03*
D13*
X76511300Y-181675000D03*
D16*
X83331300Y-174675000D03*
D14*
X83331300Y-189915000D03*
D15*
X73971300Y-176595000D03*
X67621300Y-179135000D03*
%TD*%
D13*
%TO.C,SW16*%
X83020000Y-143575000D03*
D14*
X88100000Y-143575000D03*
D13*
X93180000Y-143575000D03*
D15*
X90640000Y-138495000D03*
X84290000Y-141035000D03*
%TD*%
D13*
%TO.C,SW47*%
X173507500Y-181675000D03*
D14*
X178587500Y-181675000D03*
D13*
X183667500Y-181675000D03*
D15*
X181127500Y-176595000D03*
X174777500Y-179135000D03*
%TD*%
D13*
%TO.C,SW26*%
X273520000Y-143575000D03*
D14*
X278600000Y-143575000D03*
D13*
X283680000Y-143575000D03*
D15*
X281140000Y-138495000D03*
X274790000Y-141035000D03*
%TD*%
D13*
%TO.C,SW17*%
X102070000Y-143575000D03*
D14*
X107150000Y-143575000D03*
D13*
X112230000Y-143575000D03*
D15*
X109690000Y-138495000D03*
X103340000Y-141035000D03*
%TD*%
D13*
%TO.C,SW56*%
X104451300Y-200725000D03*
D14*
X109531300Y-200725000D03*
D13*
X114611300Y-200725000D03*
D15*
X112071300Y-195645000D03*
X105721300Y-198185000D03*
%TD*%
D13*
%TO.C,SW55*%
X80638800Y-200725000D03*
D14*
X85718800Y-200725000D03*
D13*
X90798800Y-200725000D03*
D15*
X88258800Y-195645000D03*
X81908800Y-198185000D03*
%TD*%
D13*
%TO.C,SW49*%
X211607500Y-181675000D03*
D14*
X216687500Y-181675000D03*
D13*
X221767500Y-181675000D03*
D15*
X219227500Y-176595000D03*
X212877500Y-179135000D03*
%TD*%
D13*
%TO.C,SW20*%
X159220000Y-143575000D03*
D14*
X164300000Y-143575000D03*
D13*
X169380000Y-143575000D03*
D15*
X166840000Y-138495000D03*
X160490000Y-141035000D03*
%TD*%
D13*
%TO.C,SW48*%
X192557500Y-181675000D03*
D14*
X197637500Y-181675000D03*
D13*
X202717500Y-181675000D03*
D15*
X200177500Y-176595000D03*
X193827500Y-179135000D03*
%TD*%
D13*
%TO.C,SW5*%
X130645000Y-124525000D03*
D14*
X135725000Y-124525000D03*
D13*
X140805000Y-124525000D03*
D15*
X138265000Y-119445000D03*
X131915000Y-121985000D03*
%TD*%
D16*
%TO.C,SW14*%
X304800000Y-117525000D03*
D14*
X304800000Y-132765000D03*
D13*
X311620000Y-124525000D03*
D14*
X316700000Y-124525000D03*
D13*
X321780000Y-124525000D03*
D16*
X328600000Y-117525000D03*
D14*
X328600000Y-132765000D03*
D15*
X319240000Y-119445000D03*
X312890000Y-121985000D03*
%TD*%
D13*
%TO.C,SW27*%
X292570000Y-143575000D03*
D14*
X297650000Y-143575000D03*
D13*
X302730000Y-143575000D03*
D15*
X300190000Y-138495000D03*
X293840000Y-141035000D03*
%TD*%
D13*
%TO.C,SW8*%
X187795000Y-124525000D03*
D14*
X192875000Y-124525000D03*
D13*
X197955000Y-124525000D03*
D15*
X195415000Y-119445000D03*
X189065000Y-121985000D03*
%TD*%
D13*
%TO.C,SW15*%
X59207500Y-143575000D03*
D14*
X64287500Y-143575000D03*
D13*
X69367500Y-143575000D03*
D15*
X66827500Y-138495000D03*
X60477500Y-141035000D03*
%TD*%
D12*
%TO.C,H2*%
X336000000Y-117000000D03*
%TD*%
D13*
%TO.C,SW58*%
X247326300Y-200725000D03*
D14*
X252406300Y-200725000D03*
D13*
X257486300Y-200725000D03*
D15*
X254946300Y-195645000D03*
X248596300Y-198185000D03*
%TD*%
D16*
%TO.C,SW53*%
X297656300Y-174675000D03*
D14*
X297656300Y-189915000D03*
D13*
X304476300Y-181675000D03*
D14*
X309556300Y-181675000D03*
D13*
X314636300Y-181675000D03*
D16*
X321456300Y-174675000D03*
D14*
X321456300Y-189915000D03*
D15*
X312096300Y-176595000D03*
X305746300Y-179135000D03*
%TD*%
D13*
%TO.C,SW40*%
X278282500Y-162625000D03*
D14*
X283362500Y-162625000D03*
D13*
X288442500Y-162625000D03*
D15*
X285902500Y-157545000D03*
X279552500Y-160085000D03*
%TD*%
D13*
%TO.C,SW34*%
X163982500Y-162625000D03*
D14*
X169062500Y-162625000D03*
D13*
X174142500Y-162625000D03*
D15*
X171602500Y-157545000D03*
X165252500Y-160085000D03*
%TD*%
D13*
%TO.C,SW13*%
X283045000Y-124525000D03*
D14*
X288125000Y-124525000D03*
D13*
X293205000Y-124525000D03*
D15*
X290665000Y-119445000D03*
X284315000Y-121985000D03*
%TD*%
D13*
%TO.C,SW7*%
X168745000Y-124525000D03*
D14*
X173825000Y-124525000D03*
D13*
X178905000Y-124525000D03*
D15*
X176365000Y-119445000D03*
X170015000Y-121985000D03*
%TD*%
D13*
%TO.C,SW54*%
X56826300Y-200725000D03*
D14*
X61906300Y-200725000D03*
D13*
X66986300Y-200725000D03*
D15*
X64446300Y-195645000D03*
X58096300Y-198185000D03*
%TD*%
D13*
%TO.C,SW45*%
X135407500Y-181675000D03*
D14*
X140487500Y-181675000D03*
D13*
X145567500Y-181675000D03*
D15*
X143027500Y-176595000D03*
X136677500Y-179135000D03*
%TD*%
D13*
%TO.C,SW51*%
X249707500Y-181675000D03*
D14*
X254787500Y-181675000D03*
D13*
X259867500Y-181675000D03*
D15*
X257327500Y-176595000D03*
X250977500Y-179135000D03*
%TD*%
D13*
%TO.C,SW44*%
X116357500Y-181675000D03*
D14*
X121437500Y-181675000D03*
D13*
X126517500Y-181675000D03*
D15*
X123977500Y-176595000D03*
X117627500Y-179135000D03*
%TD*%
D13*
%TO.C,SW46*%
X154457500Y-181675000D03*
D14*
X159537500Y-181675000D03*
D13*
X164617500Y-181675000D03*
D15*
X162077500Y-176595000D03*
X155727500Y-179135000D03*
%TD*%
D13*
%TO.C,SW61*%
X318763800Y-200725000D03*
D14*
X323843800Y-200725000D03*
D13*
X328923800Y-200725000D03*
D15*
X326383800Y-195645000D03*
X320033800Y-198185000D03*
%TD*%
D13*
%TO.C,SW23*%
X216370000Y-143575000D03*
D14*
X221450000Y-143575000D03*
D13*
X226530000Y-143575000D03*
D15*
X223990000Y-138495000D03*
X217640000Y-141035000D03*
%TD*%
D13*
%TO.C,SW21*%
X178270000Y-143575000D03*
D14*
X183350000Y-143575000D03*
D13*
X188430000Y-143575000D03*
D15*
X185890000Y-138495000D03*
X179540000Y-141035000D03*
%TD*%
D13*
%TO.C,SW24*%
X235420000Y-143575000D03*
D14*
X240500000Y-143575000D03*
D13*
X245580000Y-143575000D03*
D15*
X243040000Y-138495000D03*
X236690000Y-141035000D03*
%TD*%
D13*
%TO.C,SW4*%
X111595000Y-124525000D03*
D14*
X116675000Y-124525000D03*
D13*
X121755000Y-124525000D03*
D15*
X119215000Y-119445000D03*
X112865000Y-121985000D03*
%TD*%
D13*
%TO.C,SW12*%
X263995000Y-124525000D03*
D14*
X269075000Y-124525000D03*
D13*
X274155000Y-124525000D03*
D15*
X271615000Y-119445000D03*
X265265000Y-121985000D03*
%TD*%
D13*
%TO.C,SW11*%
X244945000Y-124525000D03*
D14*
X250025000Y-124525000D03*
D13*
X255105000Y-124525000D03*
D15*
X252565000Y-119445000D03*
X246215000Y-121985000D03*
%TD*%
D13*
%TO.C,SW35*%
X183032500Y-162625000D03*
D14*
X188112500Y-162625000D03*
D13*
X193192500Y-162625000D03*
D15*
X190652500Y-157545000D03*
X184302500Y-160085000D03*
%TD*%
D13*
%TO.C,SW19*%
X140170000Y-143575000D03*
D14*
X145250000Y-143575000D03*
D13*
X150330000Y-143575000D03*
D15*
X147790000Y-138495000D03*
X141440000Y-141035000D03*
%TD*%
D16*
%TO.C,SW57*%
X130968800Y-193725000D03*
D14*
X130968800Y-208965000D03*
D13*
X175888800Y-200725000D03*
D14*
X180968800Y-200725000D03*
D13*
X186048800Y-200725000D03*
D16*
X230968800Y-193725000D03*
D14*
X230968800Y-208965000D03*
D15*
X183508800Y-195645000D03*
X177158800Y-198185000D03*
%TD*%
D12*
%TO.C,H1*%
X49000000Y-117000000D03*
%TD*%
D13*
%TO.C,SW30*%
X87782500Y-162625000D03*
D14*
X92862500Y-162625000D03*
D13*
X97942500Y-162625000D03*
D15*
X95402500Y-157545000D03*
X89052500Y-160085000D03*
%TD*%
D13*
%TO.C,SW32*%
X125882500Y-162625000D03*
D14*
X130962500Y-162625000D03*
D13*
X136042500Y-162625000D03*
D15*
X133502500Y-157545000D03*
X127152500Y-160085000D03*
%TD*%
D12*
%TO.C,H3*%
X49000000Y-209000000D03*
%TD*%
D13*
%TO.C,SW59*%
X271138800Y-200725000D03*
D14*
X276218800Y-200725000D03*
D13*
X281298800Y-200725000D03*
D15*
X278758800Y-195645000D03*
X272408800Y-198185000D03*
%TD*%
D13*
%TO.C,SW38*%
X240182500Y-162625000D03*
D14*
X245262500Y-162625000D03*
D13*
X250342500Y-162625000D03*
D15*
X247802500Y-157545000D03*
X241452500Y-160085000D03*
%TD*%
D13*
%TO.C,SW9*%
X206845000Y-124525000D03*
D14*
X211925000Y-124525000D03*
D13*
X217005000Y-124525000D03*
D15*
X214465000Y-119445000D03*
X208115000Y-121985000D03*
%TD*%
D13*
%TO.C,SW10*%
X225895000Y-124525000D03*
D14*
X230975000Y-124525000D03*
D13*
X236055000Y-124525000D03*
D15*
X233515000Y-119445000D03*
X227165000Y-121985000D03*
%TD*%
D13*
%TO.C,SW50*%
X230657500Y-181675000D03*
D14*
X235737500Y-181675000D03*
D13*
X240817500Y-181675000D03*
D15*
X238277500Y-176595000D03*
X231927500Y-179135000D03*
%TD*%
D13*
%TO.C,SW31*%
X106832500Y-162625000D03*
D14*
X111912500Y-162625000D03*
D13*
X116992500Y-162625000D03*
D15*
X114452500Y-157545000D03*
X108102500Y-160085000D03*
%TD*%
D13*
%TO.C,SW52*%
X268757500Y-181675000D03*
D14*
X273837500Y-181675000D03*
D13*
X278917500Y-181675000D03*
D15*
X276377500Y-176595000D03*
X270027500Y-179135000D03*
%TD*%
D13*
%TO.C,SW2*%
X73495000Y-124525000D03*
D14*
X78575000Y-124525000D03*
D13*
X83655000Y-124525000D03*
D15*
X81115000Y-119445000D03*
X74765000Y-121985000D03*
%TD*%
D13*
%TO.C,SW25*%
X254470000Y-143575000D03*
D14*
X259550000Y-143575000D03*
D13*
X264630000Y-143575000D03*
D15*
X262090000Y-138495000D03*
X255740000Y-141035000D03*
%TD*%
D13*
%TO.C,SW22*%
X197320000Y-143575000D03*
D14*
X202400000Y-143575000D03*
D13*
X207480000Y-143575000D03*
D15*
X204940000Y-138495000D03*
X198590000Y-141035000D03*
%TD*%
D13*
%TO.C,SW37*%
X221132500Y-162625000D03*
D14*
X226212500Y-162625000D03*
D13*
X231292500Y-162625000D03*
D15*
X228752500Y-157545000D03*
X222402500Y-160085000D03*
%TD*%
D13*
%TO.C,SW18*%
X121120000Y-143575000D03*
D14*
X126200000Y-143575000D03*
D13*
X131280000Y-143575000D03*
D15*
X128740000Y-138495000D03*
X122390000Y-141035000D03*
%TD*%
D13*
%TO.C,SW43*%
X97307500Y-181675000D03*
D14*
X102387500Y-181675000D03*
D13*
X107467500Y-181675000D03*
D15*
X104927500Y-176595000D03*
X98577500Y-179135000D03*
%TD*%
D13*
%TO.C,SW36*%
X202082500Y-162625000D03*
D14*
X207162500Y-162625000D03*
D13*
X212242500Y-162625000D03*
D15*
X209702500Y-157545000D03*
X203352500Y-160085000D03*
%TD*%
D17*
%TO.C,D6*%
X158585000Y-133025000D03*
D18*
X150965000Y-133025000D03*
%TD*%
D17*
%TO.C,D13*%
X291935000Y-133025000D03*
D18*
X284315000Y-133025000D03*
%TD*%
D19*
%TO.C,U1*%
X96560000Y-151180000D03*
D18*
X94020000Y-151180000D03*
D20*
X91480000Y-151180000D03*
D18*
X88940000Y-151180000D03*
X86400000Y-151180000D03*
X83860000Y-151180000D03*
X81320000Y-151180000D03*
D20*
X78780000Y-151180000D03*
D18*
X76240000Y-151180000D03*
X73700000Y-151180000D03*
X71160000Y-151180000D03*
X68620000Y-151180000D03*
D20*
X66080000Y-151180000D03*
D18*
X63540000Y-151180000D03*
X61000000Y-151180000D03*
X58460000Y-151180000D03*
X55920000Y-151180000D03*
D20*
X53380000Y-151180000D03*
D18*
X50840000Y-151180000D03*
X48300000Y-151180000D03*
X48300000Y-133400000D03*
X50840000Y-133400000D03*
D21*
X53380000Y-133400000D03*
D18*
X55920000Y-133400000D03*
X58460000Y-133400000D03*
X61000000Y-133400000D03*
X63540000Y-133400000D03*
D21*
X66080000Y-133400000D03*
D18*
X68620000Y-133400000D03*
X71160000Y-133400000D03*
X73700000Y-133400000D03*
X76240000Y-133400000D03*
D21*
X78780000Y-133400000D03*
D18*
X81320000Y-133400000D03*
X83860000Y-133400000D03*
X86400000Y-133400000D03*
X88940000Y-133400000D03*
D21*
X91480000Y-133400000D03*
D18*
X94020000Y-133400000D03*
X96560000Y-133400000D03*
%TD*%
D17*
%TO.C,D55*%
X89528800Y-209225000D03*
D18*
X81908800Y-209225000D03*
%TD*%
D17*
%TO.C,D2*%
X155000000Y-211500000D03*
D18*
X147380000Y-211500000D03*
%TD*%
D17*
%TO.C,D24*%
X244310000Y-152075000D03*
D18*
X236690000Y-152075000D03*
%TD*%
D17*
%TO.C,D30*%
X96672500Y-171125000D03*
D18*
X89052500Y-171125000D03*
%TD*%
D17*
%TO.C,D5*%
X139535000Y-133025000D03*
D18*
X131915000Y-133025000D03*
%TD*%
D17*
%TO.C,D57*%
X184778800Y-209225000D03*
D18*
X177158800Y-209225000D03*
%TD*%
D17*
%TO.C,D9*%
X215735000Y-133025000D03*
D18*
X208115000Y-133025000D03*
%TD*%
D17*
%TO.C,D56*%
X113341300Y-209225000D03*
D18*
X105721300Y-209225000D03*
%TD*%
D17*
%TO.C,D53*%
X313366300Y-190175000D03*
D18*
X305746300Y-190175000D03*
%TD*%
D17*
%TO.C,D61*%
X327653800Y-209225000D03*
D18*
X320033800Y-209225000D03*
%TD*%
D17*
%TO.C,D11*%
X253835000Y-133025000D03*
D18*
X246215000Y-133025000D03*
%TD*%
D17*
%TO.C,D60*%
X303841300Y-209225000D03*
D18*
X296221300Y-209225000D03*
%TD*%
D17*
%TO.C,D35*%
X191922500Y-171125000D03*
D18*
X184302500Y-171125000D03*
%TD*%
D17*
%TO.C,D51*%
X258597500Y-190175000D03*
D18*
X250977500Y-190175000D03*
%TD*%
D17*
%TO.C,D28*%
X325272500Y-152075000D03*
D18*
X317652500Y-152075000D03*
%TD*%
D17*
%TO.C,D17*%
X226000000Y-211500000D03*
D18*
X218380000Y-211500000D03*
%TD*%
D17*
%TO.C,D33*%
X153822500Y-171125000D03*
D18*
X146202500Y-171125000D03*
%TD*%
D17*
%TO.C,D39*%
X268122500Y-171125000D03*
D18*
X260502500Y-171125000D03*
%TD*%
D17*
%TO.C,D18*%
X130010000Y-152075000D03*
D18*
X122390000Y-152075000D03*
%TD*%
D17*
%TO.C,D46*%
X163347500Y-190175000D03*
D18*
X155727500Y-190175000D03*
%TD*%
D17*
%TO.C,D58*%
X256216300Y-209225000D03*
D18*
X248596300Y-209225000D03*
%TD*%
D17*
%TO.C,D41*%
X318128800Y-171125000D03*
D18*
X310508800Y-171125000D03*
%TD*%
D17*
%TO.C,D15*%
X200000000Y-211500000D03*
D18*
X192380000Y-211500000D03*
%TD*%
D17*
%TO.C,D54*%
X65716300Y-209225000D03*
D18*
X58096300Y-209225000D03*
%TD*%
D17*
%TO.C,D8*%
X196685000Y-133025000D03*
D18*
X189065000Y-133025000D03*
%TD*%
D17*
%TO.C,D4*%
X120485000Y-133025000D03*
D18*
X112865000Y-133025000D03*
%TD*%
D17*
%TO.C,D23*%
X225260000Y-152075000D03*
D18*
X217640000Y-152075000D03*
%TD*%
D17*
%TO.C,D12*%
X272885000Y-133025000D03*
D18*
X265265000Y-133025000D03*
%TD*%
D17*
%TO.C,D36*%
X210972500Y-171125000D03*
D18*
X203352500Y-171125000D03*
%TD*%
D17*
%TO.C,D38*%
X249072500Y-171125000D03*
D18*
X241452500Y-171125000D03*
%TD*%
D17*
%TO.C,D22*%
X206210000Y-152075000D03*
D18*
X198590000Y-152075000D03*
%TD*%
D17*
%TO.C,D47*%
X182397500Y-190175000D03*
D18*
X174777500Y-190175000D03*
%TD*%
D17*
%TO.C,D44*%
X125247500Y-190175000D03*
D18*
X117627500Y-190175000D03*
%TD*%
D17*
%TO.C,D50*%
X239547500Y-190175000D03*
D18*
X231927500Y-190175000D03*
%TD*%
D17*
%TO.C,D40*%
X287172500Y-171125000D03*
D18*
X279552500Y-171125000D03*
%TD*%
D17*
%TO.C,D26*%
X282410000Y-152075000D03*
D18*
X274790000Y-152075000D03*
%TD*%
D17*
%TO.C,D37*%
X230022500Y-171125000D03*
D18*
X222402500Y-171125000D03*
%TD*%
D17*
%TO.C,D10*%
X234785000Y-133025000D03*
D18*
X227165000Y-133025000D03*
%TD*%
D17*
%TO.C,D45*%
X144297500Y-190175000D03*
D18*
X136677500Y-190175000D03*
%TD*%
D17*
%TO.C,D42*%
X75241300Y-190175000D03*
D18*
X67621300Y-190175000D03*
%TD*%
D17*
%TO.C,D43*%
X106197500Y-190175000D03*
D18*
X98577500Y-190175000D03*
%TD*%
D17*
%TO.C,D34*%
X172872500Y-171125000D03*
D18*
X165252500Y-171125000D03*
%TD*%
D17*
%TO.C,D49*%
X220497500Y-190175000D03*
D18*
X212877500Y-190175000D03*
%TD*%
D17*
%TO.C,D48*%
X201447500Y-190175000D03*
D18*
X193827500Y-190175000D03*
%TD*%
D17*
%TO.C,D16*%
X213000000Y-211500000D03*
D18*
X205380000Y-211500000D03*
%TD*%
D17*
%TO.C,D3*%
X168000000Y-211500000D03*
D18*
X160380000Y-211500000D03*
%TD*%
D22*
%TO.C,SW62*%
X335000000Y-180000000D03*
X328500000Y-180000000D03*
X335000000Y-184500000D03*
X328500000Y-184500000D03*
%TD*%
D17*
%TO.C,D20*%
X168110000Y-152075000D03*
D18*
X160490000Y-152075000D03*
%TD*%
D17*
%TO.C,D32*%
X134772500Y-171125000D03*
D18*
X127152500Y-171125000D03*
%TD*%
D17*
%TO.C,D29*%
X70478800Y-171125000D03*
D18*
X62858800Y-171125000D03*
%TD*%
D17*
%TO.C,D25*%
X263360000Y-152075000D03*
D18*
X255740000Y-152075000D03*
%TD*%
D17*
%TO.C,D19*%
X149060000Y-152075000D03*
D18*
X141440000Y-152075000D03*
%TD*%
D17*
%TO.C,D1*%
X142000000Y-211500000D03*
D18*
X134380000Y-211500000D03*
%TD*%
D17*
%TO.C,D21*%
X187160000Y-152075000D03*
D18*
X179540000Y-152075000D03*
%TD*%
D17*
%TO.C,D14*%
X320510000Y-133025000D03*
D18*
X312890000Y-133025000D03*
%TD*%
D17*
%TO.C,D27*%
X301460000Y-152075000D03*
D18*
X293840000Y-152075000D03*
%TD*%
D17*
%TO.C,D59*%
X280028800Y-209225000D03*
D18*
X272408800Y-209225000D03*
%TD*%
D17*
%TO.C,D7*%
X177635000Y-133025000D03*
D18*
X170015000Y-133025000D03*
%TD*%
D17*
%TO.C,D31*%
X115722500Y-171125000D03*
D18*
X108102500Y-171125000D03*
%TD*%
D17*
%TO.C,D52*%
X277647500Y-190175000D03*
D18*
X270027500Y-190175000D03*
%TD*%
%LPD*%
M02*
