M48
; DRILL file KiCad 10.0.6 date 2026-10-06T21:04:08
; FORMAT={-:-/ absolute / metric / decimal}
; #@! TF.CreationDate,2026-10-06T21:04:08-07:00
; #@! TF.GenerationSoftware,Kicad,Pcbnew,10.0.6
; #@! TF.FileFunction,Plated,1,2,PTH
FMAT,2
METRIC
; #@! TA.AperFunction,Plated,PTH,ViaDrill
T1C0.400
; #@! TA.AperFunction,Plated,PTH,ComponentDrill
T2C0.800
; #@! TA.AperFunction,Plated,PTH,ComponentDrill
T3C1.000
; #@! TA.AperFunction,Plated,PTH,ComponentDrill
T4C1.100
; #@! TA.AperFunction,Plated,PTH,ComponentDrill
T5C1.500
%
G90
G05
T1
X70.83Y-82.058
X159.462Y-72.41
X175.796Y-85.97
X175.981Y-74.236
X175.981Y-78.146
X175.981Y-82.57
X185.879Y-175.068
X188.828Y-105.528
T2
X55.715Y-133.025
X58.096Y-209.225
X60.477Y-152.075
X62.859Y-171.125
X63.335Y-133.025
X65.716Y-209.225
X67.621Y-190.175
X68.097Y-152.075
X70.479Y-171.125
X74.765Y-133.025
X75.241Y-190.175
X81.909Y-209.225
X82.385Y-133.025
X84.29Y-152.075
X89.052Y-171.125
X89.529Y-209.225
X91.91Y-152.075
X93.815Y-133.025
X96.672Y-171.125
X98.578Y-190.175
X101.435Y-133.025
X103.34Y-152.075
X105.721Y-209.225
X106.197Y-190.175
X108.102Y-171.125
X110.96Y-152.075
X112.865Y-133.025
X113.341Y-209.225
X115.722Y-171.125
X117.627Y-190.175
X120.485Y-133.025
X122.39Y-152.075
X125.247Y-190.175
X127.152Y-171.125
X130.01Y-152.075
X131.915Y-133.025
X134.773Y-171.125
X136.677Y-190.175
X139.535Y-133.025
X141.44Y-152.075
X144.297Y-190.175
X146.202Y-171.125
X149.06Y-152.075
X150.965Y-133.025
X153.822Y-171.125
X155.727Y-190.175
X158.585Y-133.025
X160.49Y-152.075
X163.347Y-190.175
X165.252Y-171.125
X168.11Y-152.075
X170.015Y-133.025
X172.873Y-171.125
X174.778Y-190.175
X177.159Y-209.225
X177.635Y-133.025
X179.54Y-152.075
X182.397Y-190.175
X184.302Y-171.125
X184.779Y-209.225
X187.16Y-152.075
X189.065Y-133.025
X191.922Y-171.125
X193.827Y-190.175
X196.685Y-133.025
X198.59Y-152.075
X201.447Y-190.175
X203.352Y-171.125
X206.21Y-152.075
X208.115Y-133.025
X210.972Y-171.125
X212.877Y-190.175
X215.735Y-133.025
X217.64Y-152.075
X220.498Y-190.175
X222.403Y-171.125
X225.26Y-152.075
X227.165Y-133.025
X230.022Y-171.125
X231.927Y-190.175
X234.785Y-133.025
X236.69Y-152.075
X239.547Y-190.175
X241.452Y-171.125
X244.31Y-152.075
X246.215Y-133.025
X248.596Y-209.225
X249.072Y-171.125
X250.977Y-190.175
X253.835Y-133.025
X255.74Y-152.075
X256.216Y-209.225
X258.597Y-190.175
X260.502Y-171.125
X263.36Y-152.075
X265.265Y-133.025
X268.123Y-171.125
X270.027Y-190.175
X272.409Y-209.225
X272.885Y-133.025
X274.79Y-152.075
X277.647Y-190.175
X279.553Y-171.125
X280.029Y-209.225
X282.41Y-152.075
X284.315Y-133.025
X287.173Y-171.125
X291.935Y-133.025
X293.84Y-152.075
X296.221Y-209.225
X301.46Y-152.075
X303.841Y-209.225
X305.746Y-190.175
X310.509Y-171.125
X312.89Y-133.025
X313.366Y-190.175
X317.652Y-152.075
X318.129Y-171.125
X320.034Y-209.225
X320.51Y-133.025
X325.272Y-152.075
X327.654Y-209.225
T3
X181.11Y-49.55
X181.11Y-52.09
X181.11Y-54.63
X181.11Y-57.17
X181.11Y-59.71
X181.11Y-62.25
X181.11Y-64.79
X181.11Y-67.33
X181.11Y-69.87
X181.11Y-72.41
X181.11Y-74.95
X181.11Y-77.49
X181.11Y-80.03
X181.11Y-82.57
X181.11Y-85.11
X181.11Y-87.65
X181.11Y-90.19
X181.11Y-92.73
X181.11Y-95.27
X181.11Y-97.81
X198.89Y-49.55
X198.89Y-52.09
X198.89Y-54.63
X198.89Y-57.17
X198.89Y-59.71
X198.89Y-62.25
X198.89Y-64.79
X198.89Y-67.33
X198.89Y-69.87
X198.89Y-72.41
X198.89Y-74.95
X198.89Y-77.49
X198.89Y-80.03
X198.89Y-82.57
X198.89Y-85.11
X198.89Y-87.65
X198.89Y-90.19
X198.89Y-92.73
X198.89Y-95.27
X198.89Y-97.81
T4
X222.0Y-90.0
X222.0Y-94.5
X228.5Y-90.0
X228.5Y-94.5
T5
X55.715Y-121.985
X58.096Y-198.185
X60.477Y-141.035
X62.065Y-119.445
X62.859Y-160.085
X64.446Y-195.645
X66.828Y-138.495
X67.621Y-179.135
X69.209Y-157.545
X73.971Y-176.595
X74.765Y-121.985
X81.115Y-119.445
X81.909Y-198.185
X84.29Y-141.035
X88.259Y-195.645
X89.052Y-160.085
X90.64Y-138.495
X93.815Y-121.985
X95.402Y-157.545
X98.578Y-179.135
X100.165Y-119.445
X103.34Y-141.035
X104.927Y-176.595
X105.721Y-198.185
X108.102Y-160.085
X109.69Y-138.495
X112.071Y-195.645
X112.865Y-121.985
X114.453Y-157.545
X117.627Y-179.135
X119.215Y-119.445
X122.39Y-141.035
X123.977Y-176.595
X127.152Y-160.085
X128.74Y-138.495
X131.915Y-121.985
X133.502Y-157.545
X136.677Y-179.135
X138.265Y-119.445
X141.44Y-141.035
X143.028Y-176.595
X146.202Y-160.085
X147.79Y-138.495
X150.965Y-121.985
X152.552Y-157.545
X155.727Y-179.135
X157.315Y-119.445
X160.49Y-141.035
X162.077Y-176.595
X165.252Y-160.085
X166.84Y-138.495
X170.015Y-121.985
X171.602Y-157.545
X174.778Y-179.135
X176.365Y-119.445
X177.159Y-198.185
X179.54Y-141.035
X181.127Y-176.595
X183.509Y-195.645
X184.302Y-160.085
X185.89Y-138.495
X189.065Y-121.985
X190.653Y-157.545
X193.827Y-179.135
X195.415Y-119.445
X198.59Y-141.035
X200.177Y-176.595
X203.352Y-160.085
X204.94Y-138.495
X208.115Y-121.985
X209.702Y-157.545
X212.877Y-179.135
X214.465Y-119.445
X217.64Y-141.035
X219.227Y-176.595
X222.403Y-160.085
X223.99Y-138.495
X227.165Y-121.985
X228.752Y-157.545
X231.927Y-179.135
X233.515Y-119.445
X236.69Y-141.035
X238.278Y-176.595
X241.452Y-160.085
X243.04Y-138.495
X246.215Y-121.985
X247.802Y-157.545
X248.596Y-198.185
X250.977Y-179.135
X252.565Y-119.445
X254.946Y-195.645
X255.74Y-141.035
X257.327Y-176.595
X260.502Y-160.085
X262.09Y-138.495
X265.265Y-121.985
X266.852Y-157.545
X270.027Y-179.135
X271.615Y-119.445
X272.409Y-198.185
X274.79Y-141.035
X276.377Y-176.595
X278.759Y-195.645
X279.553Y-160.085
X281.14Y-138.495
X284.315Y-121.985
X285.902Y-157.545
X290.665Y-119.445
X293.84Y-141.035
X296.221Y-198.185
X300.19Y-138.495
X302.571Y-195.645
X305.746Y-179.135
X310.509Y-160.085
X312.096Y-176.595
X312.89Y-121.985
X316.859Y-157.545
X317.652Y-141.035
X319.24Y-119.445
X320.034Y-198.185
X324.002Y-138.495
X326.384Y-195.645
M30
